<!-- Generated by readme-aura https://github.com/collectioneur/readme-aura -->
<svg width="900" height="260" viewBox="0 0 900 260" xmlns="http://www.w3.org/2000/svg"><defs><clipPath id="satori_bc-id"><path x="0" y="0" width="900" height="260" d="M24,0 h852 a24,24 0 0 1 24,24 v212 a24,24 0 0 1 -24,24 h-852 a24,24 0 0 1 -24,-24 v-212 a24,24 0 0 1 24,-24"/></clipPath></defs><mask id="satori_om-id"><rect x="1" y="1" width="898" height="258" fill="#fff"/><path width="900" height="260" fill="none" stroke="#000" stroke-width="2" d="M7.029,7.029 A24,24 0 0 1 24,0 h852 a24,24 0 0 1 24,24 v212 a24,24 0 0 1 -24,24 h-852 a24,24 0 0 1 -24,-24 v-212 A24,24 0 0 1 7.029,7.029"/></mask><path x="0" y="0" width="900" height="260" fill="#070B14" d="M24,0 h852 a24,24 0 0 1 24,24 v212 a24,24 0 0 1 -24,24 h-852 a24,24 0 0 1 -24,-24 v-212 a24,24 0 0 1 24,-24"/><path width="900" height="260" clip-path="url(#satori_bc-id)" fill="none" stroke="#1E293B" stroke-width="2" d="M7.029,7.029 A24,24 0 0 1 24,0 h852 a24,24 0 0 1 24,24 v212 a24,24 0 0 1 -24,24 h-852 a24,24 0 0 1 -24,-24 v-212 A24,24 0 0 1 7.029,7.029"/><defs><clipPath id="satori_bc-id-0"><path x="29" y="29" width="81" height="45" d="M51.5,29 h36 a22.5,22.5 0 0 1 22.5,22.5 v0 a22.5,22.5 0 0 1 -22.5,22.5 h-36 a22.5,22.5 0 0 1 -22.5,-22.5 v0 a22.5,22.5 0 0 1 22.5,-22.5"/></clipPath></defs><mask id="satori_om-id-0"><rect x="30" y="30" width="79" height="43" fill="#fff"/><path width="81" height="45" fill="none" stroke="#000" stroke-width="2" d="M35.59,35.59 A22.5,22.5 0 0 1 51.5,29 h36 a22.5,22.5 0 0 1 22.5,22.5 v0 a22.5,22.5 0 0 1 -22.5,22.5 h-36 a22.5,22.5 0 0 1 -22.5,-22.5 v0 A22.5,22.5 0 0 1 35.59,35.59"/></mask><path x="29" y="29" width="81" height="45" fill="#0F172A" d="M51.5,29 h36 a22.5,22.5 0 0 1 22.5,22.5 v0 a22.5,22.5 0 0 1 -22.5,22.5 h-36 a22.5,22.5 0 0 1 -22.5,-22.5 v0 a22.5,22.5 0 0 1 22.5,-22.5"/><path width="81" height="45" clip-path="url(#satori_bc-id-0)" fill="none" stroke="#1E293B" stroke-width="2" d="M35.59,35.59 A22.5,22.5 0 0 1 51.5,29 h36 a22.5,22.5 0 0 1 22.5,22.5 v0 a22.5,22.5 0 0 1 -22.5,22.5 h-36 a22.5,22.5 0 0 1 -22.5,-22.5 v0 A22.5,22.5 0 0 1 35.59,35.59"/><g  ><path fill="#E2E8F0" d="M50.9 58L49.4 58L49.4 46.4L53.4 46.4Q54.8 46.4 55.6 46.8Q56.5 47.3 56.9 48.1Q57.4 48.9 57.4 50.0Q57.4 51.0 56.9 51.8Q56.5 52.6 55.6 53.0L55.6 53.0Q55.4 53.1 55.2 53.2L55.2 53.2L57.8 58L56.1 58L53.7 53.5Q53.5 53.5 53.4 53.5L53.4 53.5L50.9 53.5L50.9 58ZM50.9 47.7L50.9 52.2L53.3 52.2Q54.3 52.2 54.8 51.9Q55.4 51.6 55.6 51.1Q55.9 50.6 55.9 50.0L55.9 50.0Q55.9 49.3 55.6 48.7Q55.4 48.2 54.8 47.9Q54.2 47.7 53.3 47.7L53.3 47.7L50.9 47.7ZM63.2 58.2L63.2 58.2Q61.9 58.2 61.0 57.6Q60.1 57.1 59.6 56.1Q59.1 55.0 59.1 53.7Q59.1 52.4 59.6 51.3Q60.1 50.3 61.0 49.7Q61.9 49.2 63.0 49.2L63.0 49.2Q63.7 49.2 64.4 49.4Q65.1 49.6 65.6 50.1Q66.2 50.6 66.5 51.5Q66.8 52.3 66.8 53.5L66.8 53.5L66.8 54.1L60.5 54.1Q60.6 55.0 60.9 55.6L60.9 55.6Q61.2 56.2 61.8 56.6Q62.4 56.9 63.2 56.9L63.2 56.9Q63.7 56.9 64.1 56.8Q64.6 56.6 64.9 56.3Q65.2 56.0 65.3 55.6L65.3 55.6L66.7 56.0Q66.5 56.6 66.0 57.1Q65.5 57.6 64.8 57.9Q64.1 58.2 63.2 58.2ZM60.5 52.9L60.5 52.9L65.4 52.9Q65.4 52.3 65.2 51.8L65.2 51.8Q64.9 51.2 64.4 50.8Q63.8 50.4 63.0 50.4Q62.3 50.4 61.7 50.8Q61.1 51.2 60.8 51.8L60.8 51.8Q60.6 52.3 60.5 52.9ZM71.3 58.2L71.3 58.2Q70.5 58.2 69.8 57.9Q69.1 57.6 68.7 57.0Q68.3 56.4 68.3 55.5L68.3 55.5Q68.3 54.8 68.6 54.3Q68.9 53.8 69.4 53.6Q69.9 53.3 70.5 53.2Q71.1 53.0 71.7 52.9L71.7 52.9Q72.5 52.8 73 52.8Q73.5 52.7 73.7 52.6Q74.0 52.5 74.0 52.1L74.0 52.1L74.0 52.1Q74.0 51.6 73.8 51.2Q73.6 50.8 73.2 50.6Q72.8 50.4 72.1 50.4L72.1 50.4Q71.5 50.4 71.1 50.6Q70.6 50.8 70.3 51.1Q70.1 51.4 69.9 51.7L69.9 51.7L68.6 51.2Q68.9 50.4 69.5 50.0Q70.1 49.5 70.7 49.3Q71.4 49.2 72.1 49.2L72.1 49.2Q72.5 49.2 73.1 49.3Q73.7 49.4 74.2 49.7Q74.7 50.0 75.0 50.6Q75.4 51.2 75.4 52.2L75.4 52.2L75.4 58L74.0 58L74.0 56.8L73.9 56.8Q73.8 57.1 73.4 57.4Q73.1 57.8 72.6 58.0Q72.0 58.2 71.3 58.2ZM71.5 57.0L71.5 57.0Q72.3 57.0 72.9 56.7Q73.4 56.4 73.7 55.9Q74.0 55.4 74.0 54.8L74.0 54.8L74.0 53.6Q73.9 53.7 73.6 53.8Q73.3 53.9 72.9 54.0Q72.6 54.0 72.2 54.1Q71.9 54.1 71.7 54.1L71.7 54.1Q71.2 54.2 70.7 54.3Q70.3 54.5 70.0 54.8Q69.7 55.1 69.7 55.6L69.7 55.6Q69.7 56.0 70.0 56.3Q70.2 56.6 70.6 56.8Q71.0 57.0 71.5 57.0ZM81.4 58.2L81.4 58.2Q80.2 58.2 79.3 57.6Q78.4 57.1 77.9 56.0Q77.4 55.0 77.4 53.7L77.4 53.7Q77.4 52.3 77.9 51.3Q78.4 50.3 79.3 49.7Q80.2 49.2 81.4 49.2L81.4 49.2Q82.0 49.2 82.6 49.3Q83.2 49.5 83.6 49.8Q84.1 50.1 84.4 50.6Q84.8 51 84.9 51.6L84.9 51.6L83.6 52.0Q83.5 51.6 83.3 51.3Q83.1 51.1 82.8 50.8Q82.5 50.6 82.2 50.5Q81.8 50.4 81.4 50.4L81.4 50.4Q80.5 50.4 80.0 50.9Q79.4 51.3 79.1 52.1Q78.9 52.8 78.9 53.7L78.9 53.7Q78.9 54.5 79.1 55.3Q79.4 56.0 80.0 56.5Q80.5 56.9 81.4 56.9L81.4 56.9Q81.8 56.9 82.2 56.8Q82.6 56.7 82.9 56.5Q83.1 56.3 83.3 56.0Q83.5 55.7 83.6 55.3L83.6 55.3L85.0 55.7Q84.8 56.3 84.5 56.7Q84.1 57.2 83.6 57.5Q83.2 57.9 82.6 58.0Q82.0 58.2 81.4 58.2ZM88.6 49.3L90.4 49.3L90.4 50.5L88.6 50.5L88.6 55.7Q88.6 56.3 88.9 56.6Q89.1 56.9 89.7 56.9L89.7 56.9Q89.8 56.9 90.0 56.8Q90.2 56.8 90.4 56.8L90.4 56.8L90.7 58.0Q90.4 58.0 90.2 58.1Q89.9 58.1 89.6 58.1L89.6 58.1Q88.5 58.1 87.9 57.5Q87.2 56.9 87.2 55.8L87.2 55.8L87.2 50.5L85.9 50.5L85.9 49.3L87.2 49.3L87.2 47.2L88.6 47.2L88.6 49.3Z "/></g><defs><clipPath id="satori_bc-id-1"><path x="124" y="29" width="91" height="45" d="M146.5,29 h46 a22.5,22.5 0 0 1 22.5,22.5 v0 a22.5,22.5 0 0 1 -22.5,22.5 h-46 a22.5,22.5 0 0 1 -22.5,-22.5 v0 a22.5,22.5 0 0 1 22.5,-22.5"/></clipPath></defs><mask id="satori_om-id-1"><rect x="125" y="30" width="89" height="43" fill="#fff"/><path width="91" height="45" fill="none" stroke="#000" stroke-width="2" d="M130.59,35.59 A22.5,22.5 0 0 1 146.5,29 h46 a22.5,22.5 0 0 1 22.5,22.5 v0 a22.5,22.5 0 0 1 -22.5,22.5 h-46 a22.5,22.5 0 0 1 -22.5,-22.5 v0 A22.5,22.5 0 0 1 130.59,35.59"/></mask><path x="124" y="29" width="91" height="45" fill="#0F172A" d="M146.5,29 h46 a22.5,22.5 0 0 1 22.5,22.5 v0 a22.5,22.5 0 0 1 -22.5,22.5 h-46 a22.5,22.5 0 0 1 -22.5,-22.5 v0 a22.5,22.5 0 0 1 22.5,-22.5"/><path width="91" height="45" clip-path="url(#satori_bc-id-1)" fill="none" stroke="#1E293B" stroke-width="2" d="M130.59,35.59 A22.5,22.5 0 0 1 146.5,29 h46 a22.5,22.5 0 0 1 22.5,22.5 v0 a22.5,22.5 0 0 1 -22.5,22.5 h-46 a22.5,22.5 0 0 1 -22.5,-22.5 v0 A22.5,22.5 0 0 1 130.59,35.59"/><g  ><path fill="#E2E8F0" d="M145.9 58L144.4 58L144.4 46.4L146.2 46.4L150.9 53.8Q151.1 54.1 151.3 54.5Q151.6 55 151.9 55.6L151.9 55.6Q152.1 55.9 152.3 56.2L152.3 56.2Q152.2 55.9 152.2 55.5L152.2 55.5Q152.2 54.9 152.2 54.4Q152.2 53.9 152.2 53.5L152.2 53.5L152.2 46.4L153.6 46.4L153.6 58L151.9 58L147.7 51.4Q147.4 50.9 147.1 50.4Q146.8 49.9 146.4 49.3L146.4 49.3Q146.1 48.8 145.8 48.1L145.8 48.1Q145.8 48.7 145.8 49.2L145.8 49.2Q145.9 50.0 145.9 50.5Q145.9 51.0 145.9 51.4L145.9 51.4L145.9 58ZM160.0 58.2L160.0 58.2Q158.7 58.2 157.8 57.6Q156.9 57.1 156.4 56.1Q155.9 55.0 155.9 53.7Q155.9 52.4 156.4 51.3Q156.8 50.3 157.7 49.7Q158.6 49.2 159.8 49.2L159.8 49.2Q160.5 49.2 161.2 49.4Q161.8 49.6 162.4 50.1Q162.9 50.6 163.3 51.5Q163.6 52.3 163.6 53.5L163.6 53.5L163.6 54.1L157.3 54.1Q157.3 55.0 157.6 55.6L157.6 55.6Q158.0 56.2 158.6 56.6Q159.2 56.9 160.0 56.9L160.0 56.9Q160.5 56.9 160.9 56.8Q161.3 56.6 161.6 56.3Q161.9 56.0 162.1 55.6L162.1 55.6L163.5 56.0Q163.3 56.6 162.8 57.1Q162.3 57.6 161.6 57.9Q160.9 58.2 160.0 58.2ZM157.3 52.9L157.3 52.9L162.2 52.9Q162.1 52.3 161.9 51.8L161.9 51.8Q161.6 51.2 161.1 50.8Q160.6 50.4 159.8 50.4Q159.0 50.4 158.4 50.8Q157.9 51.2 157.6 51.8L157.6 51.8Q157.3 52.3 157.3 52.9ZM166.5 58L164.9 58L168.0 53.5L165.1 49.3L166.7 49.3L167.8 51.0Q168.2 51.6 168.5 52.2L168.5 52.2Q168.7 52.4 168.8 52.7L168.8 52.7Q168.9 52.4 169.0 52.2L169.0 52.2Q169.3 51.6 169.8 51.0L169.8 51.0L170.9 49.3L172.5 49.3L169.5 53.6L172.6 58L171.0 58L169.7 56.0Q169.3 55.4 169.0 54.8L169.0 54.8Q168.9 54.6 168.7 54.4L168.7 54.4Q168.6 54.6 168.5 54.8L168.5 54.8Q168.2 55.4 167.8 56.0L167.8 56.0L166.5 58ZM176.0 49.3L177.8 49.3L177.8 50.5L176.0 50.5L176.0 55.7Q176.0 56.3 176.2 56.6Q176.5 56.9 177.0 56.9L177.0 56.9Q177.2 56.9 177.4 56.8Q177.6 56.8 177.7 56.8L177.7 56.8L178.0 58.0Q177.8 58.0 177.5 58.1Q177.3 58.1 177.0 58.1L177.0 58.1Q175.9 58.1 175.2 57.5Q174.6 56.9 174.6 55.8L174.6 55.8L174.6 50.5L173.3 50.5L173.3 49.3L174.6 49.3L174.6 47.2L176.0 47.2L176.0 49.3ZM180.7 58.1L180.7 58.1Q180.2 58.1 179.9 57.8Q179.6 57.5 179.6 57.0L179.6 57.0Q179.6 56.6 179.9 56.3Q180.2 56.0 180.7 56.0L180.7 56.0Q181.1 56.0 181.4 56.3Q181.7 56.6 181.7 57.0L181.7 57.0Q181.7 57.5 181.4 57.8Q181.1 58.1 180.7 58.1ZM184.2 58.6L184.2 49.3L185.6 49.3L185.6 58.6Q185.6 59.5 185.3 60.0Q185.0 60.6 184.5 61.0Q183.9 61.3 183.0 61.3L183.0 61.3L182.8 61.3L182.8 60.0L183.0 60.0Q183.6 60.0 183.9 59.6Q184.2 59.3 184.2 58.6L184.2 58.6ZM184.9 47.8L184.9 47.8Q184.5 47.8 184.2 47.6Q183.9 47.3 183.9 46.9L183.9 46.9Q183.9 46.5 184.2 46.2Q184.5 46.0 184.9 46.0L184.9 46.0Q185.3 46.0 185.6 46.2Q185.9 46.5 185.9 46.9L185.9 46.9Q185.9 47.3 185.6 47.6Q185.3 47.8 184.9 47.8ZM191.0 58.2L191.0 58.2Q190.1 58.2 189.4 57.9Q188.7 57.7 188.3 57.1Q187.8 56.6 187.7 55.9L187.7 55.9L189.0 55.6Q189.2 56.3 189.7 56.6Q190.2 57.0 191.0 57.0L191.0 57.0Q191.9 57.0 192.5 56.6Q193.0 56.2 193.0 55.6L193.0 55.6Q193.0 55.2 192.7 54.9Q192.4 54.6 191.7 54.4L191.7 54.4L190.3 54.1Q189.1 53.8 188.5 53.2Q187.9 52.6 187.9 51.7L187.9 51.7Q187.9 51.0 188.4 50.4Q188.8 49.8 189.5 49.5Q190.3 49.2 191.2 49.2L191.2 49.2Q192.1 49.2 192.7 49.4Q193.3 49.7 193.7 50.2Q194.1 50.6 194.3 51.3L194.3 51.3L193.0 51.6Q192.9 51.1 192.4 50.7Q192.0 50.4 191.2 50.4L191.2 50.4Q190.4 50.4 189.9 50.7Q189.4 51.1 189.4 51.6L189.4 51.6Q189.4 52.1 189.7 52.4Q190.1 52.7 190.8 52.9L190.8 52.9L192.2 53.2Q193.3 53.5 193.9 54.1Q194.5 54.6 194.5 55.5L194.5 55.5Q194.5 56.3 194.1 56.9Q193.6 57.5 192.8 57.8Q192.1 58.2 191.0 58.2Z "/></g><defs><clipPath id="satori_bc-id-2"><path x="229" y="29" width="121" height="45" d="M251.5,29 h76 a22.5,22.5 0 0 1 22.5,22.5 v0 a22.5,22.5 0 0 1 -22.5,22.5 h-76 a22.5,22.5 0 0 1 -22.5,-22.5 v0 a22.5,22.5 0 0 1 22.5,-22.5"/></clipPath></defs><mask id="satori_om-id-2"><rect x="230" y="30" width="119" height="43" fill="#fff"/><path width="121" height="45" fill="none" stroke="#000" stroke-width="2" d="M235.59,35.59 A22.5,22.5 0 0 1 251.5,29 h76 a22.5,22.5 0 0 1 22.5,22.5 v0 a22.5,22.5 0 0 1 -22.5,22.5 h-76 a22.5,22.5 0 0 1 -22.5,-22.5 v0 A22.5,22.5 0 0 1 235.59,35.59"/></mask><path x="229" y="29" width="121" height="45" fill="#0F172A" d="M251.5,29 h76 a22.5,22.5 0 0 1 22.5,22.5 v0 a22.5,22.5 0 0 1 -22.5,22.5 h-76 a22.5,22.5 0 0 1 -22.5,-22.5 v0 a22.5,22.5 0 0 1 22.5,-22.5"/><path width="121" height="45" clip-path="url(#satori_bc-id-2)" fill="none" stroke="#1E293B" stroke-width="2" d="M235.59,35.59 A22.5,22.5 0 0 1 251.5,29 h76 a22.5,22.5 0 0 1 22.5,22.5 v0 a22.5,22.5 0 0 1 -22.5,22.5 h-76 a22.5,22.5 0 0 1 -22.5,-22.5 v0 A22.5,22.5 0 0 1 235.59,35.59"/><g  ><path fill="#E2E8F0" d="M252.4 47.7L248.8 47.7L248.8 46.4L257.6 46.4L257.6 47.7L253.9 47.7L253.9 58L252.4 58L252.4 47.7ZM259.4 61.2L259.4 61.2L259.8 59.9L259.9 60.0Q260.4 60.1 260.7 60.0Q261.1 60.0 261.3 59.7Q261.6 59.4 261.8 58.8L261.8 58.8L262.1 58.0L258.8 49.3L260.3 49.3L262.1 54.4Q262.4 55.3 262.6 56.1L262.6 56.1Q262.7 56.4 262.8 56.7L262.8 56.7Q262.9 56.4 263 56.0L263 56.0Q263.2 55.3 263.5 54.4L263.5 54.4L265.4 49.3L266.9 49.3L263.1 59.3Q262.8 60 262.4 60.4Q262.1 60.9 261.6 61.1Q261.1 61.3 260.5 61.3L260.5 61.3Q260.1 61.3 259.8 61.3Q259.5 61.2 259.4 61.2ZM270.0 61.3L268.6 61.3L268.6 49.3L269.9 49.3L269.9 50.7L270.1 50.7Q270.2 50.4 270.5 50.1Q270.8 49.7 271.3 49.4Q271.8 49.2 272.6 49.2L272.6 49.2Q273.7 49.2 274.5 49.7Q275.4 50.3 275.8 51.3Q276.3 52.3 276.3 53.7L276.3 53.7Q276.3 55.0 275.8 56.1Q275.4 57.1 274.5 57.6Q273.7 58.2 272.6 58.2L272.6 58.2Q271.8 58.2 271.3 57.9Q270.8 57.6 270.5 57.3Q270.2 56.9 270.1 56.6L270.1 56.6L270.0 56.6L270.0 61.3ZM272.4 56.9L272.4 56.9Q273.2 56.9 273.8 56.5Q274.3 56.0 274.6 55.3Q274.9 54.6 274.9 53.6L274.9 53.6Q274.9 52.7 274.6 52.0Q274.3 51.3 273.8 50.8Q273.2 50.4 272.4 50.4L272.4 50.4Q271.6 50.4 271.0 50.8Q270.5 51.2 270.2 51.9Q269.9 52.7 269.9 53.6L269.9 53.6Q269.9 54.6 270.2 55.4Q270.5 56.1 271.1 56.5Q271.6 56.9 272.4 56.9ZM282.0 58.2L282.0 58.2Q280.8 58.2 279.8 57.6Q278.9 57.1 278.4 56.1Q277.9 55.0 277.9 53.7Q277.9 52.4 278.4 51.3Q278.9 50.3 279.8 49.7Q280.7 49.2 281.9 49.2L281.9 49.2Q282.6 49.2 283.2 49.4Q283.9 49.6 284.5 50.1Q285.0 50.6 285.3 51.5Q285.7 52.3 285.7 53.5L285.7 53.5L285.7 54.1L279.4 54.1Q279.4 55.0 279.7 55.6L279.7 55.6Q280.0 56.2 280.6 56.6Q281.2 56.9 282.0 56.9L282.0 56.9Q282.5 56.9 283.0 56.8Q283.4 56.6 283.7 56.3Q284 56.0 284.2 55.6L284.2 55.6L285.5 56.0Q285.3 56.6 284.8 57.1Q284.4 57.6 283.6 57.9Q282.9 58.2 282.0 58.2ZM279.4 52.9L279.4 52.9L284.2 52.9Q284.2 52.3 284.0 51.8L284.0 51.8Q283.7 51.2 283.2 50.8Q282.6 50.4 281.9 50.4Q281.1 50.4 280.5 50.8Q279.9 51.2 279.6 51.8L279.6 51.8Q279.4 52.3 279.4 52.9ZM291.6 58.2L291.6 58.2Q290.3 58.2 289.4 57.8Q288.5 57.4 287.9 56.7Q287.4 55.9 287.4 55.0L287.4 55.0L288.9 55.0Q288.9 55.6 289.3 56.0Q289.7 56.5 290.3 56.7Q290.9 56.9 291.6 56.9L291.6 56.9Q292.4 56.9 293.0 56.6Q293.6 56.4 294.0 55.9Q294.4 55.4 294.4 54.8L294.4 54.8Q294.4 54.2 294.0 53.9Q293.7 53.5 293.2 53.3Q292.7 53.1 292.1 52.9L292.1 52.9L290.6 52.5Q289.2 52.1 288.5 51.4Q287.7 50.6 287.7 49.5L287.7 49.5Q287.7 48.5 288.2 47.8Q288.7 47.0 289.6 46.6Q290.6 46.2 291.7 46.2L291.7 46.2Q292.8 46.2 293.7 46.6Q294.6 47.0 295.1 47.7Q295.6 48.4 295.6 49.3L295.6 49.3L294.2 49.3Q294.1 48.4 293.4 48.0Q292.7 47.5 291.6 47.5L291.6 47.5Q290.9 47.5 290.3 47.8Q289.8 48.0 289.4 48.4Q289.1 48.9 289.1 49.4L289.1 49.4Q289.1 50.0 289.5 50.4Q289.9 50.8 290.4 51.0Q290.9 51.2 291.3 51.3L291.3 51.3L292.5 51.6Q293.0 51.7 293.5 52.0Q294.1 52.2 294.6 52.5Q295.1 52.9 295.5 53.5Q295.8 54.0 295.8 54.8L295.8 54.8Q295.8 55.8 295.3 56.5Q294.8 57.3 293.9 57.8Q292.9 58.2 291.6 58.2ZM301.5 58.2L301.5 58.2Q300.3 58.2 299.4 57.6Q298.5 57.1 298.0 56.0Q297.5 55.0 297.5 53.7L297.5 53.7Q297.5 52.3 298.0 51.3Q298.5 50.3 299.4 49.7Q300.3 49.2 301.5 49.2L301.5 49.2Q302.1 49.2 302.7 49.3Q303.3 49.5 303.7 49.8Q304.2 50.1 304.5 50.6Q304.9 51 305.0 51.6L305.0 51.6L303.7 52.0Q303.6 51.6 303.4 51.3Q303.2 51.1 302.9 50.8Q302.6 50.6 302.3 50.5Q301.9 50.4 301.5 50.4L301.5 50.4Q300.6 50.4 300.1 50.9Q299.5 51.3 299.2 52.1Q299.0 52.8 299.0 53.7L299.0 53.7Q299.0 54.5 299.2 55.3Q299.5 56.0 300.1 56.5Q300.6 56.9 301.5 56.9L301.5 56.9Q301.9 56.9 302.3 56.8Q302.7 56.7 303.0 56.5Q303.2 56.3 303.4 56.0Q303.6 55.7 303.7 55.3L303.7 55.3L305.1 55.7Q304.9 56.3 304.6 56.7Q304.2 57.2 303.8 57.5Q303.3 57.9 302.7 58.0Q302.1 58.2 301.5 58.2ZM308.5 58L307.1 58L307.1 49.3L308.4 49.3L308.4 50.6L308.5 50.6Q308.8 49.9 309.4 49.5Q310.0 49.1 310.8 49.1L310.8 49.1Q311.0 49.1 311.2 49.1Q311.4 49.2 311.5 49.2L311.5 49.2L311.5 50.6Q311.5 50.6 311.2 50.5Q311.0 50.5 310.7 50.5L310.7 50.5Q310.0 50.5 309.6 50.8Q309.1 51.0 308.8 51.5Q308.5 51.9 308.5 52.5L308.5 52.5L308.5 58ZM314.5 58L313.1 58L313.1 49.3L314.5 49.3L314.5 58ZM313.8 47.8L313.8 47.8Q313.4 47.8 313.1 47.6Q312.8 47.3 312.8 46.9L312.8 46.9Q312.8 46.5 313.1 46.2Q313.4 46.0 313.8 46.0L313.8 46.0Q314.2 46.0 314.5 46.2Q314.8 46.5 314.8 46.9L314.8 46.9Q314.8 47.3 314.5 47.6Q314.2 47.8 313.8 47.8ZM318.4 61.3L317.0 61.3L317.0 49.3L318.3 49.3L318.3 50.7L318.5 50.7Q318.6 50.4 318.9 50.1Q319.2 49.7 319.7 49.4Q320.2 49.2 321.0 49.2L321.0 49.2Q322.1 49.2 323.0 49.7Q323.8 50.3 324.3 51.3Q324.7 52.3 324.7 53.7L324.7 53.7Q324.7 55.0 324.3 56.1Q323.8 57.1 323.0 57.6Q322.1 58.2 321.0 58.2L321.0 58.2Q320.2 58.2 319.7 57.9Q319.2 57.6 318.9 57.3Q318.6 56.9 318.5 56.6L318.5 56.6L318.4 56.6L318.4 61.3ZM320.8 56.9L320.8 56.9Q321.6 56.9 322.2 56.5Q322.8 56.0 323.0 55.3Q323.3 54.6 323.3 53.6L323.3 53.6Q323.3 52.7 323.0 52.0Q322.8 51.3 322.2 50.8Q321.7 50.4 320.8 50.4L320.8 50.4Q320.0 50.4 319.5 50.8Q318.9 51.2 318.7 51.9Q318.4 52.7 318.4 53.6L318.4 53.6Q318.4 54.6 318.7 55.4Q318.9 56.1 319.5 56.5Q320.0 56.9 320.8 56.9ZM328.4 49.3L330.2 49.3L330.2 50.5L328.4 50.5L328.4 55.7Q328.4 56.3 328.7 56.6Q328.9 56.9 329.5 56.9L329.5 56.9Q329.6 56.9 329.8 56.8Q330 56.8 330.2 56.8L330.2 56.8L330.5 58.0Q330.2 58.0 330.0 58.1Q329.7 58.1 329.4 58.1L329.4 58.1Q328.3 58.1 327.6 57.5Q327.0 56.9 327.0 55.8L327.0 55.8L327.0 50.5L325.7 50.5L325.7 49.3L327.0 49.3L327.0 47.2L328.4 47.2L328.4 49.3Z "/></g><defs><clipPath id="satori_bc-id-3"><path x="364" y="29" width="96" height="45" d="M386.5,29 h51 a22.5,22.5 0 0 1 22.5,22.5 v0 a22.5,22.5 0 0 1 -22.5,22.5 h-51 a22.5,22.5 0 0 1 -22.5,-22.5 v0 a22.5,22.5 0 0 1 22.5,-22.5"/></clipPath></defs><mask id="satori_om-id-3"><rect x="365" y="30" width="94" height="43" fill="#fff"/><path width="96" height="45" fill="none" stroke="#000" stroke-width="2" d="M370.59,35.59 A22.5,22.5 0 0 1 386.5,29 h51 a22.5,22.5 0 0 1 22.5,22.5 v0 a22.5,22.5 0 0 1 -22.5,22.5 h-51 a22.5,22.5 0 0 1 -22.5,-22.5 v0 A22.5,22.5 0 0 1 370.59,35.59"/></mask><path x="364" y="29" width="96" height="45" fill="#0F172A" d="M386.5,29 h51 a22.5,22.5 0 0 1 22.5,22.5 v0 a22.5,22.5 0 0 1 -22.5,22.5 h-51 a22.5,22.5 0 0 1 -22.5,-22.5 v0 a22.5,22.5 0 0 1 22.5,-22.5"/><path width="96" height="45" clip-path="url(#satori_bc-id-3)" fill="none" stroke="#1E293B" stroke-width="2" d="M370.59,35.59 A22.5,22.5 0 0 1 386.5,29 h51 a22.5,22.5 0 0 1 22.5,22.5 v0 a22.5,22.5 0 0 1 -22.5,22.5 h-51 a22.5,22.5 0 0 1 -22.5,-22.5 v0 A22.5,22.5 0 0 1 370.59,35.59"/><g  ><path fill="#E2E8F0" d="M385.9 58L384.4 58L384.4 46.4L386.2 46.4L390.9 53.8Q391.1 54.1 391.3 54.5Q391.6 55 391.9 55.6L391.9 55.6Q392.1 55.9 392.3 56.2L392.3 56.2Q392.2 55.9 392.2 55.5L392.2 55.5Q392.2 54.9 392.2 54.4Q392.2 53.9 392.2 53.5L392.2 53.5L392.2 46.4L393.6 46.4L393.6 58L391.9 58L387.7 51.4Q387.4 50.9 387.1 50.4Q386.8 49.9 386.4 49.3L386.4 49.3Q386.1 48.8 385.8 48.1L385.8 48.1Q385.8 48.7 385.8 49.2L385.8 49.2Q385.9 50.0 385.9 50.5Q385.9 51.0 385.9 51.4L385.9 51.4L385.9 58ZM399.8 58.2L399.8 58.2Q398.7 58.2 397.8 57.6Q396.9 57.1 396.4 56.0Q395.9 55.0 395.9 53.7L395.9 53.7Q395.9 52.3 396.4 51.3Q396.9 50.3 397.8 49.7Q398.7 49.2 399.8 49.2L399.8 49.2Q401.0 49.2 401.9 49.7Q402.8 50.3 403.3 51.3Q403.8 52.3 403.8 53.7L403.8 53.7Q403.8 55.0 403.3 56.0Q402.8 57.1 401.9 57.6Q401.0 58.2 399.8 58.2ZM399.8 56.9L399.8 56.9Q400.7 56.9 401.3 56.5Q401.9 56.0 402.1 55.3Q402.4 54.5 402.4 53.7L402.4 53.7Q402.4 52.8 402.1 52.1Q401.9 51.3 401.3 50.9Q400.7 50.4 399.8 50.4L399.8 50.4Q399.0 50.4 398.4 50.9Q397.8 51.3 397.6 52.1Q397.3 52.8 397.3 53.7L397.3 53.7Q397.3 54.5 397.6 55.3Q397.8 56.0 398.4 56.5Q399.0 56.9 399.8 56.9ZM409.2 58.2L409.2 58.2Q408.1 58.2 407.2 57.6Q406.4 57.1 405.9 56.1Q405.5 55.0 405.5 53.7L405.5 53.7Q405.5 52.3 405.9 51.3Q406.4 50.3 407.2 49.7Q408.1 49.2 409.2 49.2L409.2 49.2Q410.0 49.2 410.5 49.4Q411.0 49.7 411.3 50.1Q411.6 50.4 411.7 50.7L411.7 50.7L411.8 50.7L411.8 46.4L413.2 46.4L413.2 58L411.9 58L411.9 56.6L411.7 56.6Q411.6 56.9 411.3 57.3Q411 57.6 410.5 57.9Q410.0 58.2 409.2 58.2ZM409.4 56.9L409.4 56.9Q410.2 56.9 410.7 56.5Q411.3 56.1 411.5 55.4Q411.8 54.6 411.8 53.6L411.8 53.6Q411.8 52.7 411.5 51.9Q411.3 51.2 410.7 50.8Q410.2 50.4 409.4 50.4L409.4 50.4Q408.5 50.4 408.0 50.8Q407.4 51.3 407.2 52.0Q406.9 52.7 406.9 53.6L406.9 53.6Q406.9 54.6 407.2 55.3Q407.4 56.0 408 56.5Q408.6 56.9 409.4 56.9ZM419.4 58.2L419.4 58.2Q418.1 58.2 417.2 57.6Q416.3 57.1 415.8 56.1Q415.3 55.0 415.3 53.7Q415.3 52.4 415.7 51.3Q416.2 50.3 417.1 49.7Q418 49.2 419.2 49.2L419.2 49.2Q419.9 49.2 420.6 49.4Q421.2 49.6 421.8 50.1Q422.3 50.6 422.7 51.5Q423.0 52.3 423.0 53.5L423.0 53.5L423.0 54.1L416.7 54.1Q416.7 55.0 417.0 55.6L417.0 55.6Q417.4 56.2 418.0 56.6Q418.6 56.9 419.4 56.9L419.4 56.9Q419.9 56.9 420.3 56.8Q420.7 56.6 421.0 56.3Q421.3 56.0 421.5 55.6L421.5 55.6L422.9 56.0Q422.6 56.6 422.2 57.1Q421.7 57.6 421.0 57.9Q420.3 58.2 419.4 58.2ZM416.7 52.9L416.7 52.9L421.6 52.9Q421.5 52.3 421.3 51.8L421.3 51.8Q421.0 51.2 420.5 50.8Q420.0 50.4 419.2 50.4Q418.4 50.4 417.8 50.8Q417.3 51.2 417.0 51.8L417.0 51.8Q416.7 52.3 416.7 52.9ZM426.1 58.1L426.1 58.1Q425.6 58.1 425.3 57.8Q425.0 57.5 425.0 57.0L425.0 57.0Q425.0 56.6 425.3 56.3Q425.6 56.0 426.1 56.0L426.1 56.0Q426.5 56.0 426.8 56.3Q427.1 56.6 427.1 57.0L427.1 57.0Q427.1 57.5 426.8 57.8Q426.5 58.1 426.1 58.1ZM429.6 58.6L429.6 49.3L431.0 49.3L431.0 58.6Q431.0 59.5 430.7 60.0Q430.5 60.6 429.9 61.0Q429.3 61.3 428.5 61.3L428.5 61.3L428.2 61.3L428.2 60.0L428.4 60.0Q429.0 60.0 429.3 59.6Q429.6 59.3 429.6 58.6L429.6 58.6ZM430.3 47.8L430.3 47.8Q429.9 47.8 429.6 47.6Q429.3 47.3 429.3 46.9L429.3 46.9Q429.3 46.5 429.6 46.2Q429.9 46.0 430.3 46.0L430.3 46.0Q430.7 46.0 431.0 46.2Q431.3 46.5 431.3 46.9L431.3 46.9Q431.3 47.3 431.0 47.6Q430.7 47.8 430.3 47.8ZM436.5 58.2L436.5 58.2Q435.6 58.2 434.9 57.9Q434.2 57.7 433.7 57.1Q433.3 56.6 433.1 55.9L433.1 55.9L434.4 55.6Q434.6 56.3 435.1 56.6Q435.7 57.0 436.4 57.0L436.4 57.0Q437.4 57.0 437.9 56.6Q438.4 56.2 438.4 55.6L438.4 55.6Q438.4 55.2 438.1 54.9Q437.8 54.6 437.2 54.4L437.2 54.4L435.7 54.1Q434.5 53.8 433.9 53.2Q433.4 52.6 433.4 51.7L433.4 51.7Q433.4 51.0 433.8 50.4Q434.2 49.8 434.9 49.5Q435.7 49.2 436.6 49.2L436.6 49.2Q437.5 49.2 438.1 49.4Q438.8 49.7 439.2 50.2Q439.5 50.6 439.7 51.3L439.7 51.3L438.5 51.6Q438.3 51.1 437.9 50.7Q437.5 50.4 436.6 50.4L436.6 50.4Q435.8 50.4 435.3 50.7Q434.8 51.1 434.8 51.6L434.8 51.6Q434.8 52.1 435.1 52.4Q435.5 52.7 436.3 52.9L436.3 52.9L437.6 53.2Q438.8 53.5 439.3 54.1Q439.9 54.6 439.9 55.5L439.9 55.5Q439.9 56.3 439.5 56.9Q439.0 57.5 438.3 57.8Q437.5 58.2 436.5 58.2Z "/></g><defs><clipPath id="satori_bc-id-4"><path x="474" y="29" width="99" height="45" d="M496.5,29 h54 a22.5,22.5 0 0 1 22.5,22.5 v0 a22.5,22.5 0 0 1 -22.5,22.5 h-54 a22.5,22.5 0 0 1 -22.5,-22.5 v0 a22.5,22.5 0 0 1 22.5,-22.5"/></clipPath></defs><mask id="satori_om-id-4"><rect x="475" y="30" width="97" height="43" fill="#fff"/><path width="99" height="45" fill="none" stroke="#000" stroke-width="2" d="M480.59,35.59 A22.5,22.5 0 0 1 496.5,29 h54 a22.5,22.5 0 0 1 22.5,22.5 v0 a22.5,22.5 0 0 1 -22.5,22.5 h-54 a22.5,22.5 0 0 1 -22.5,-22.5 v0 A22.5,22.5 0 0 1 480.59,35.59"/></mask><path x="474" y="29" width="99" height="45" fill="#0F172A" d="M496.5,29 h54 a22.5,22.5 0 0 1 22.5,22.5 v0 a22.5,22.5 0 0 1 -22.5,22.5 h-54 a22.5,22.5 0 0 1 -22.5,-22.5 v0 a22.5,22.5 0 0 1 22.5,-22.5"/><path width="99" height="45" clip-path="url(#satori_bc-id-4)" fill="none" stroke="#1E293B" stroke-width="2" d="M480.59,35.59 A22.5,22.5 0 0 1 496.5,29 h54 a22.5,22.5 0 0 1 22.5,22.5 v0 a22.5,22.5 0 0 1 -22.5,22.5 h-54 a22.5,22.5 0 0 1 -22.5,-22.5 v0 A22.5,22.5 0 0 1 480.59,35.59"/><g  ><path fill="#E2E8F0" d="M501.6 58L494.4 58L494.4 46.4L501.5 46.4L501.5 47.7L495.9 47.7L495.9 51.5L501.1 51.5L501.1 52.8L495.9 52.8L495.9 56.7L501.6 56.7L501.6 58ZM504.8 58L503.1 58L506.2 53.5L503.3 49.3L504.9 49.3L506.0 51.0Q506.5 51.6 506.8 52.2L506.8 52.2Q506.9 52.4 507.0 52.7L507.0 52.7Q507.2 52.4 507.3 52.2L507.3 52.2Q507.6 51.6 508.0 51.0L508.0 51.0L509.1 49.3L510.7 49.3L507.8 53.6L510.8 58L509.2 58L507.9 56.0Q507.5 55.4 507.2 54.8L507.2 54.8Q507.1 54.6 507.0 54.4L507.0 54.4Q506.9 54.6 506.7 54.8L506.7 54.8Q506.5 55.4 506.0 56.0L506.0 56.0L504.8 58ZM514.0 61.3L512.6 61.3L512.6 49.3L513.9 49.3L513.9 50.7L514.1 50.7Q514.3 50.4 514.5 50.1Q514.8 49.7 515.3 49.4Q515.8 49.2 516.6 49.2L516.6 49.2Q517.7 49.2 518.6 49.7Q519.4 50.3 519.9 51.3Q520.3 52.3 520.3 53.7L520.3 53.7Q520.3 55.0 519.9 56.1Q519.4 57.1 518.6 57.6Q517.7 58.2 516.6 58.2L516.6 58.2Q515.8 58.2 515.3 57.9Q514.8 57.6 514.5 57.3Q514.3 56.9 514.1 56.6L514.1 56.6L514.0 56.6L514.0 61.3ZM516.4 56.9L516.4 56.9Q517.3 56.9 517.8 56.5Q518.4 56.0 518.6 55.3Q518.9 54.6 518.9 53.6L518.9 53.6Q518.9 52.7 518.6 52.0Q518.4 51.3 517.8 50.8Q517.3 50.4 516.4 50.4L516.4 50.4Q515.6 50.4 515.1 50.8Q514.5 51.2 514.3 51.9Q514.0 52.7 514.0 53.6L514.0 53.6Q514.0 54.6 514.3 55.4Q514.5 56.1 515.1 56.5Q515.6 56.9 516.4 56.9ZM523.8 58L522.4 58L522.4 49.3L523.7 49.3L523.7 50.6L523.8 50.6Q524.1 49.9 524.7 49.5Q525.3 49.1 526.1 49.1L526.1 49.1Q526.3 49.1 526.5 49.1Q526.7 49.2 526.8 49.2L526.8 49.2L526.8 50.6Q526.8 50.6 526.5 50.5Q526.3 50.5 526.0 50.5L526.0 50.5Q525.3 50.5 524.8 50.8Q524.4 51.0 524.1 51.5Q523.8 51.9 523.8 52.5L523.8 52.5L523.8 58ZM532.1 58.2L532.1 58.2Q530.8 58.2 529.9 57.6Q529.0 57.1 528.5 56.1Q528.0 55.0 528.0 53.7Q528.0 52.4 528.5 51.3Q529.0 50.3 529.8 49.7Q530.7 49.2 531.9 49.2L531.9 49.2Q532.6 49.2 533.3 49.4Q534.0 49.6 534.5 50.1Q535.1 50.6 535.4 51.5Q535.7 52.3 535.7 53.5L535.7 53.5L535.7 54.1L529.4 54.1Q529.4 55.0 529.7 55.6L529.7 55.6Q530.1 56.2 530.7 56.6Q531.3 56.9 532.1 56.9L532.1 56.9Q532.6 56.9 533.0 56.8Q533.4 56.6 533.8 56.3Q534.1 56.0 534.2 55.6L534.2 55.6L535.6 56.0Q535.4 56.6 534.9 57.1Q534.4 57.6 533.7 57.9Q533.0 58.2 532.1 58.2ZM529.4 52.9L529.4 52.9L534.3 52.9Q534.2 52.3 534.0 51.8L534.0 51.8Q533.8 51.2 533.2 50.8Q532.7 50.4 531.9 50.4Q531.1 50.4 530.6 50.8Q530 51.2 529.7 51.8L529.7 51.8Q529.5 52.3 529.4 52.9ZM540.7 58.2L540.7 58.2Q539.8 58.2 539.1 57.9Q538.4 57.7 538.0 57.1Q537.5 56.6 537.3 55.9L537.3 55.9L538.7 55.6Q538.9 56.3 539.4 56.6Q539.9 57.0 540.7 57.0L540.7 57.0Q541.6 57.0 542.1 56.6Q542.7 56.2 542.7 55.6L542.7 55.6Q542.7 55.2 542.4 54.9Q542.1 54.6 541.4 54.4L541.4 54.4L540.0 54.1Q538.8 53.8 538.2 53.2Q537.6 52.6 537.6 51.7L537.6 51.7Q537.6 51.0 538.0 50.4Q538.5 49.8 539.2 49.5Q539.9 49.2 540.8 49.2L540.8 49.2Q541.7 49.2 542.4 49.4Q543 49.7 543.4 50.2Q543.8 50.6 544.0 51.3L544.0 51.3L542.7 51.6Q542.5 51.1 542.1 50.7Q541.7 50.4 540.9 50.4L540.9 50.4Q540.1 50.4 539.6 50.7Q539.0 51.1 539.0 51.6L539.0 51.6Q539.0 52.1 539.4 52.4Q539.7 52.7 540.5 52.9L540.5 52.9L541.8 53.2Q543.0 53.5 543.6 54.1Q544.1 54.6 544.1 55.5L544.1 55.5Q544.1 56.3 543.7 56.9Q543.3 57.5 542.5 57.8Q541.7 58.2 540.7 58.2ZM549.1 58.2L549.1 58.2Q548.3 58.2 547.6 57.9Q546.9 57.7 546.4 57.1Q545.9 56.6 545.8 55.9L545.8 55.9L547.1 55.6Q547.3 56.3 547.8 56.6Q548.4 57.0 549.1 57.0L549.1 57.0Q550.0 57.0 550.6 56.6Q551.1 56.2 551.1 55.6L551.1 55.6Q551.1 55.2 550.8 54.9Q550.5 54.6 549.9 54.4L549.9 54.4L548.4 54.1Q547.2 53.8 546.6 53.2Q546.1 52.6 546.1 51.7L546.1 51.7Q546.1 51.0 546.5 50.4Q546.9 49.8 547.6 49.5Q548.4 49.2 549.3 49.2L549.3 49.2Q550.2 49.2 550.8 49.4Q551.4 49.7 551.8 50.2Q552.2 50.6 552.4 51.3L552.4 51.3L551.2 51.6Q551.0 51.1 550.6 50.7Q550.1 50.4 549.3 50.4L549.3 50.4Q548.5 50.4 548.0 50.7Q547.5 51.1 547.5 51.6L547.5 51.6Q547.5 52.1 547.8 52.4Q548.2 52.7 548.9 52.9L548.9 52.9L550.3 53.2Q551.5 53.5 552.0 54.1Q552.6 54.6 552.6 55.5L552.6 55.5Q552.6 56.3 552.2 56.9Q551.7 57.5 550.9 57.8Q550.2 58.2 549.1 58.2Z "/></g><defs><clipPath id="satori_bc-id-5"><path x="587" y="29" width="113" height="45" d="M609.5,29 h68 a22.5,22.5 0 0 1 22.5,22.5 v0 a22.5,22.5 0 0 1 -22.5,22.5 h-68 a22.5,22.5 0 0 1 -22.5,-22.5 v0 a22.5,22.5 0 0 1 22.5,-22.5"/></clipPath></defs><mask id="satori_om-id-5"><rect x="588" y="30" width="111" height="43" fill="#fff"/><path width="113" height="45" fill="none" stroke="#000" stroke-width="2" d="M593.59,35.59 A22.5,22.5 0 0 1 609.5,29 h68 a22.5,22.5 0 0 1 22.5,22.5 v0 a22.5,22.5 0 0 1 -22.5,22.5 h-68 a22.5,22.5 0 0 1 -22.5,-22.5 v0 A22.5,22.5 0 0 1 593.59,35.59"/></mask><path x="587" y="29" width="113" height="45" fill="#0F172A" d="M609.5,29 h68 a22.5,22.5 0 0 1 22.5,22.5 v0 a22.5,22.5 0 0 1 -22.5,22.5 h-68 a22.5,22.5 0 0 1 -22.5,-22.5 v0 a22.5,22.5 0 0 1 22.5,-22.5"/><path width="113" height="45" clip-path="url(#satori_bc-id-5)" fill="none" stroke="#1E293B" stroke-width="2" d="M593.59,35.59 A22.5,22.5 0 0 1 609.5,29 h68 a22.5,22.5 0 0 1 22.5,22.5 v0 a22.5,22.5 0 0 1 -22.5,22.5 h-68 a22.5,22.5 0 0 1 -22.5,-22.5 v0 A22.5,22.5 0 0 1 593.59,35.59"/><g  ><path fill="#E2E8F0" d="M608.8 58L607.4 58L607.4 46.4L609.5 46.4L612.4 53.7Q612.5 54.0 612.6 54.3Q612.7 54.7 612.9 55.2Q613.0 55.6 613.2 56.1L613.2 56.1Q613.2 56.2 613.2 56.4L613.2 56.4Q613.3 56.2 613.3 56.1L613.3 56.1Q613.4 55.7 613.6 55.2Q613.7 54.8 613.9 54.4Q614 54.0 614.1 53.7L614.1 53.7L616.9 46.4L619.0 46.4L619.0 58L617.6 58L617.6 51.4Q617.6 51.0 617.6 50.5Q617.6 50.1 617.6 49.6Q617.6 49.1 617.6 48.5L617.6 48.5Q617.6 48.2 617.6 47.9L617.6 47.9Q617.5 48.3 617.4 48.6L617.4 48.6Q617.2 49.2 617.1 49.7Q616.9 50.2 616.7 50.6Q616.6 51.1 616.5 51.4L616.5 51.4L613.9 58L612.6 58L609.9 51.4Q609.8 51.1 609.7 50.7Q609.5 50.2 609.4 49.7Q609.2 49.2 609.0 48.6L609.0 48.6Q608.9 48.3 608.8 48.0L608.8 48.0Q608.8 48.2 608.8 48.5L608.8 48.5Q608.8 49.0 608.8 49.5Q608.8 50.0 608.8 50.5Q608.8 51.0 608.8 51.4L608.8 51.4L608.8 58ZM625.2 58.2L625.2 58.2Q624.1 58.2 623.2 57.6Q622.3 57.1 621.8 56.0Q621.3 55.0 621.3 53.7L621.3 53.7Q621.3 52.3 621.8 51.3Q622.3 50.3 623.2 49.7Q624.1 49.2 625.2 49.2L625.2 49.2Q626.4 49.2 627.3 49.7Q628.2 50.3 628.7 51.3Q629.2 52.3 629.2 53.7L629.2 53.7Q629.2 55.0 628.7 56.0Q628.2 57.1 627.3 57.6Q626.4 58.2 625.2 58.2ZM625.2 56.9L625.2 56.9Q626.1 56.9 626.7 56.5Q627.3 56.0 627.5 55.3Q627.8 54.5 627.8 53.7L627.8 53.7Q627.8 52.8 627.5 52.1Q627.3 51.3 626.7 50.9Q626.1 50.4 625.2 50.4L625.2 50.4Q624.4 50.4 623.8 50.9Q623.2 51.3 623.0 52.1Q622.7 52.8 622.7 53.7L622.7 53.7Q622.7 54.5 623.0 55.3Q623.2 56.0 623.8 56.5Q624.4 56.9 625.2 56.9ZM632.7 52.8L632.7 52.8L632.7 58L631.3 58L631.3 49.3L632.6 49.3L632.6 50.9Q633.0 50.1 633.6 49.7L633.6 49.7Q634.3 49.2 635.3 49.2L635.3 49.2Q636.2 49.2 636.9 49.5Q637.5 49.9 637.9 50.6Q638.3 51.3 638.3 52.5L638.3 52.5L638.3 58L636.9 58L636.9 52.6Q636.9 51.6 636.3 51.0Q635.8 50.4 634.9 50.4L634.9 50.4Q634.3 50.4 633.8 50.7Q633.3 51.0 633.0 51.5Q632.7 52.0 632.7 52.8ZM644.3 61.5L644.3 61.5Q643.3 61.5 642.6 61.2Q641.9 61.0 641.4 60.6Q641.0 60.1 640.7 59.7L640.7 59.7L641.8 58.9Q642.0 59.2 642.3 59.5Q642.6 59.8 643.0 60.0Q643.5 60.2 644.3 60.2L644.3 60.2Q645.3 60.2 646.0 59.7Q646.7 59.2 646.7 58.1L646.7 58.1L646.7 56.4L646.5 56.4Q646.4 56.6 646.1 57.0Q645.9 57.3 645.3 57.6Q644.8 57.9 644 57.9L644 57.9Q643.0 57.9 642.1 57.4Q641.3 56.9 640.8 55.9Q640.3 55.0 640.3 53.6L640.3 53.6Q640.3 52.2 640.8 51.2Q641.3 50.3 642.1 49.7Q642.9 49.2 644.0 49.2L644.0 49.2Q644.9 49.2 645.4 49.4Q645.9 49.7 646.2 50.1Q646.4 50.4 646.6 50.7L646.6 50.7L646.7 50.7L646.7 49.3L648.1 49.3L648.1 58.2Q648.1 59.4 647.6 60.1Q647.1 60.8 646.2 61.1Q645.3 61.5 644.3 61.5ZM644.2 56.6L644.2 56.6Q645.0 56.6 645.6 56.2Q646.1 55.9 646.4 55.2Q646.7 54.5 646.7 53.6L646.7 53.6Q646.7 52.6 646.4 51.9Q646.1 51.2 645.6 50.8Q645.0 50.4 644.2 50.4L644.2 50.4Q643.4 50.4 642.9 50.8Q642.3 51.3 642.0 52.0Q641.7 52.7 641.7 53.6L641.7 53.6Q641.7 54.5 642.0 55.1Q642.3 55.8 642.9 56.2Q643.4 56.6 644.2 56.6ZM654.1 58.2L654.1 58.2Q652.9 58.2 652.0 57.6Q651.1 57.1 650.6 56.0Q650.1 55.0 650.1 53.7L650.1 53.7Q650.1 52.3 650.6 51.3Q651.1 50.3 652.0 49.7Q652.9 49.2 654.1 49.2L654.1 49.2Q655.3 49.2 656.2 49.7Q657.1 50.3 657.6 51.3Q658.1 52.3 658.1 53.7L658.1 53.7Q658.1 55.0 657.6 56.0Q657.1 57.1 656.2 57.6Q655.3 58.2 654.1 58.2ZM654.1 56.9L654.1 56.9Q655.0 56.9 655.6 56.5Q656.1 56.0 656.4 55.3Q656.7 54.5 656.7 53.7L656.7 53.7Q656.7 52.8 656.4 52.1Q656.1 51.3 655.6 50.9Q655.0 50.4 654.1 50.4L654.1 50.4Q653.2 50.4 652.7 50.9Q652.1 51.3 651.8 52.1Q651.6 52.8 651.6 53.7L651.6 53.7Q651.6 54.5 651.8 55.3Q652.1 56.0 652.7 56.5Q653.2 56.9 654.1 56.9ZM663.9 58L663.9 58L660.3 58L660.3 46.4L664.1 46.4Q665.8 46.4 667.0 47.1Q668.2 47.8 668.9 49.1Q669.5 50.4 669.5 52.2L669.5 52.2Q669.5 54.0 668.9 55.3Q668.2 56.6 667.0 57.3Q665.7 58 663.9 58ZM661.8 47.7L661.8 56.7L663.9 56.7Q665.3 56.7 666.2 56.1Q667.1 55.6 667.6 54.6Q668.1 53.6 668.1 52.2L668.1 52.2Q668.1 50.8 667.6 49.8Q667.1 48.8 666.2 48.2Q665.3 47.7 664.0 47.7L664.0 47.7L661.8 47.7ZM676.1 58L671.9 58L671.9 46.4L676.0 46.4Q677.2 46.4 678.0 46.8Q678.8 47.2 679.2 47.9Q679.6 48.6 679.6 49.4L679.6 49.4Q679.6 50.2 679.3 50.7Q679.0 51.2 678.6 51.5Q678.2 51.8 677.7 51.9L677.7 51.9L677.7 52Q678.2 52.0 678.7 52.4Q679.3 52.7 679.7 53.4Q680.0 54.0 680.0 54.9L680.0 54.9Q680.0 55.8 679.6 56.5Q679.2 57.2 678.4 57.6Q677.5 58 676.1 58L676.1 58ZM673.3 52.7L673.3 56.7L676.1 56.7Q677.4 56.7 678.0 56.2Q678.6 55.6 678.6 54.9L678.6 54.9Q678.6 54.3 678.3 53.8Q678.0 53.3 677.4 53.0Q676.9 52.7 676.2 52.7L676.2 52.7L673.3 52.7ZM673.3 47.7L673.3 51.5L675.9 51.5Q676.5 51.5 677.0 51.2Q677.5 51.0 677.8 50.5Q678.1 50.1 678.1 49.5L678.1 49.5Q678.1 48.7 677.6 48.2Q677.1 47.7 676.0 47.7L676.0 47.7L673.3 47.7Z "/></g><defs><clipPath id="satori_bc-id-6"><path x="714" y="29" width="129" height="45" d="M736.5,29 h84 a22.5,22.5 0 0 1 22.5,22.5 v0 a22.5,22.5 0 0 1 -22.5,22.5 h-84 a22.5,22.5 0 0 1 -22.5,-22.5 v0 a22.5,22.5 0 0 1 22.5,-22.5"/></clipPath></defs><mask id="satori_om-id-6"><rect x="715" y="30" width="127" height="43" fill="#fff"/><path width="129" height="45" fill="none" stroke="#000" stroke-width="2" d="M720.59,35.59 A22.5,22.5 0 0 1 736.5,29 h84 a22.5,22.5 0 0 1 22.5,22.5 v0 a22.5,22.5 0 0 1 -22.5,22.5 h-84 a22.5,22.5 0 0 1 -22.5,-22.5 v0 A22.5,22.5 0 0 1 720.59,35.59"/></mask><path x="714" y="29" width="129" height="45" fill="#0F172A" d="M736.5,29 h84 a22.5,22.5 0 0 1 22.5,22.5 v0 a22.5,22.5 0 0 1 -22.5,22.5 h-84 a22.5,22.5 0 0 1 -22.5,-22.5 v0 a22.5,22.5 0 0 1 22.5,-22.5"/><path width="129" height="45" clip-path="url(#satori_bc-id-6)" fill="none" stroke="#1E293B" stroke-width="2" d="M720.59,35.59 A22.5,22.5 0 0 1 736.5,29 h84 a22.5,22.5 0 0 1 22.5,22.5 v0 a22.5,22.5 0 0 1 -22.5,22.5 h-84 a22.5,22.5 0 0 1 -22.5,-22.5 v0 A22.5,22.5 0 0 1 720.59,35.59"/><g  ><path fill="#E2E8F0" d="M735.9 58L734.4 58L734.4 46.4L738.4 46.4Q739.8 46.4 740.6 46.9Q741.5 47.4 741.9 48.2Q742.4 49.0 742.4 50.1Q742.4 51.1 741.9 51.9Q741.5 52.8 740.6 53.3Q739.8 53.8 738.4 53.8L738.4 53.8L735.9 53.8L735.9 58ZM735.9 47.7L735.9 52.5L738.3 52.5Q739.3 52.5 739.8 52.2Q740.4 51.9 740.6 51.3Q740.9 50.8 740.9 50.1Q740.9 49.4 740.6 48.8Q740.4 48.3 739.8 48.0Q739.2 47.7 738.3 47.7L738.3 47.7L735.9 47.7ZM748.0 58.2L748.0 58.2Q746.8 58.2 745.9 57.6Q745.0 57.1 744.5 56.0Q744.0 55.0 744.0 53.7L744.0 53.7Q744.0 52.3 744.5 51.3Q745.0 50.3 745.9 49.7Q746.8 49.2 748.0 49.2L748.0 49.2Q749.2 49.2 750.1 49.7Q751 50.3 751.5 51.3Q752 52.3 752 53.7L752 53.7Q752 55.0 751.5 56.0Q751 57.1 750.1 57.6Q749.2 58.2 748.0 58.2ZM748.0 56.9L748.0 56.9Q748.9 56.9 749.5 56.5Q750.0 56.0 750.3 55.3Q750.6 54.5 750.6 53.7L750.6 53.7Q750.6 52.8 750.3 52.1Q750.0 51.3 749.5 50.9Q748.9 50.4 748.0 50.4L748.0 50.4Q747.1 50.4 746.6 50.9Q746.0 51.3 745.7 52.1Q745.5 52.8 745.5 53.7L745.5 53.7Q745.5 54.5 745.7 55.3Q746.0 56.0 746.6 56.5Q747.1 56.9 748.0 56.9ZM757.0 58.2L757.0 58.2Q756.1 58.2 755.4 57.9Q754.7 57.7 754.3 57.1Q753.8 56.6 753.7 55.9L753.7 55.9L755.0 55.6Q755.2 56.3 755.7 56.6Q756.2 57.0 757 57.0L757 57.0Q757.9 57.0 758.5 56.6Q759 56.2 759 55.6L759 55.6Q759 55.2 758.7 54.9Q758.4 54.6 757.7 54.4L757.7 54.4L756.3 54.1Q755.1 53.8 754.5 53.2Q753.9 52.6 753.9 51.7L753.9 51.7Q753.9 51.0 754.3 50.4Q754.8 49.8 755.5 49.5Q756.2 49.2 757.2 49.2L757.2 49.2Q758.1 49.2 758.7 49.4Q759.3 49.7 759.7 50.2Q760.1 50.6 760.3 51.3L760.3 51.3L759.0 51.6Q758.8 51.1 758.4 50.7Q758.0 50.4 757.2 50.4L757.2 50.4Q756.4 50.4 755.9 50.7Q755.3 51.1 755.3 51.6L755.3 51.6Q755.3 52.1 755.7 52.4Q756.0 52.7 756.8 52.9L756.8 52.9L758.1 53.2Q759.3 53.5 759.9 54.1Q760.5 54.6 760.5 55.5L760.5 55.5Q760.5 56.3 760.0 56.9Q759.6 57.5 758.8 57.8Q758.0 58.2 757.0 58.2ZM764.1 49.3L765.9 49.3L765.9 50.5L764.1 50.5L764.1 55.7Q764.1 56.3 764.4 56.6Q764.6 56.9 765.2 56.9L765.2 56.9Q765.3 56.9 765.5 56.8Q765.7 56.8 765.9 56.8L765.9 56.8L766.2 58.0Q766.0 58.0 765.7 58.1Q765.4 58.1 765.1 58.1L765.1 58.1Q764.0 58.1 763.4 57.5Q762.7 56.9 762.7 55.8L762.7 55.8L762.7 50.5L761.4 50.5L761.4 49.3L762.7 49.3L762.7 47.2L764.1 47.2L764.1 49.3ZM771.3 61.5L771.3 61.5Q770.3 61.5 769.6 61.2Q768.9 61.0 768.4 60.6Q767.9 60.1 767.7 59.7L767.7 59.7L768.8 58.9Q769 59.2 769.3 59.5Q769.6 59.8 770.0 60.0Q770.5 60.2 771.3 60.2L771.3 60.2Q772.3 60.2 773.0 59.7Q773.7 59.2 773.7 58.1L773.7 58.1L773.7 56.4L773.5 56.4Q773.4 56.6 773.1 57.0Q772.8 57.3 772.3 57.6Q771.8 57.9 771.0 57.9L771.0 57.9Q769.9 57.9 769.1 57.4Q768.3 56.9 767.8 55.9Q767.3 55.0 767.3 53.6L767.3 53.6Q767.3 52.2 767.8 51.2Q768.3 50.3 769.1 49.7Q769.9 49.2 771.0 49.2L771.0 49.2Q771.9 49.2 772.4 49.4Q772.9 49.7 773.1 50.1Q773.4 50.4 773.6 50.7L773.6 50.7L773.7 50.7L773.7 49.3L775.1 49.3L775.1 58.2Q775.1 59.4 774.6 60.1Q774.1 60.8 773.2 61.1Q772.3 61.5 771.3 61.5ZM771.2 56.6L771.2 56.6Q772.0 56.6 772.6 56.2Q773.1 55.9 773.4 55.2Q773.7 54.5 773.7 53.6L773.7 53.6Q773.7 52.6 773.4 51.9Q773.1 51.2 772.6 50.8Q772.0 50.4 771.2 50.4L771.2 50.4Q770.4 50.4 769.8 50.8Q769.3 51.3 769.0 52.0Q768.7 52.7 768.7 53.6L768.7 53.6Q768.7 54.5 769.0 55.1Q769.3 55.8 769.9 56.2Q770.4 56.6 771.2 56.6ZM778.9 58L777.5 58L777.5 49.3L778.9 49.3L778.9 50.6L779.0 50.6Q779.2 49.9 779.9 49.5Q780.5 49.1 781.3 49.1L781.3 49.1Q781.4 49.1 781.6 49.1Q781.8 49.2 782.0 49.2L782.0 49.2L782.0 50.6Q781.9 50.6 781.7 50.5Q781.4 50.5 781.1 50.5L781.1 50.5Q780.5 50.5 780.0 50.8Q779.5 51.0 779.2 51.5Q778.9 51.9 778.9 52.5L778.9 52.5L778.9 58ZM787.2 58.2L787.2 58.2Q786.0 58.2 785.1 57.6Q784.1 57.1 783.6 56.1Q783.1 55.0 783.1 53.7Q783.1 52.4 783.6 51.3Q784.1 50.3 785.0 49.7Q785.9 49.2 787.1 49.2L787.1 49.2Q787.8 49.2 788.4 49.4Q789.1 49.6 789.7 50.1Q790.2 50.6 790.5 51.5Q790.9 52.3 790.9 53.5L790.9 53.5L790.9 54.1L784.6 54.1Q784.6 55.0 784.9 55.6L784.9 55.6Q785.2 56.2 785.8 56.6Q786.4 56.9 787.2 56.9L787.2 56.9Q787.8 56.9 788.2 56.8Q788.6 56.6 788.9 56.3Q789.2 56.0 789.4 55.6L789.4 55.6L790.7 56.0Q790.5 56.6 790.0 57.1Q789.6 57.6 788.8 57.9Q788.1 58.2 787.2 58.2ZM784.6 52.9L784.6 52.9L789.4 52.9Q789.4 52.3 789.2 51.8L789.2 51.8Q788.9 51.2 788.4 50.8Q787.9 50.4 787.1 50.4Q786.3 50.4 785.7 50.8Q785.2 51.2 784.9 51.8L784.9 51.8Q784.6 52.3 784.6 52.9ZM796.8 58.2L796.8 58.2Q795.5 58.2 794.6 57.8Q793.7 57.4 793.2 56.7Q792.6 55.9 792.6 55.0L792.6 55.0L794.1 55.0Q794.1 55.6 794.5 56.0Q794.9 56.5 795.5 56.7Q796.1 56.9 796.8 56.9L796.8 56.9Q797.6 56.9 798.2 56.6Q798.8 56.4 799.2 55.9Q799.6 55.4 799.6 54.8L799.6 54.8Q799.6 54.2 799.3 53.9Q798.9 53.5 798.4 53.3Q797.9 53.1 797.3 52.9L797.3 52.9L795.9 52.5Q794.5 52.1 793.7 51.4Q792.9 50.6 792.9 49.5L792.9 49.5Q792.9 48.5 793.4 47.8Q794.0 47.0 794.9 46.6Q795.8 46.2 796.9 46.2L796.9 46.2Q798.0 46.2 798.9 46.6Q799.8 47.0 800.3 47.7Q800.8 48.4 800.9 49.3L800.9 49.3L799.4 49.3Q799.3 48.4 798.6 48.0Q797.9 47.5 796.8 47.5L796.8 47.5Q796.1 47.5 795.5 47.8Q795.0 48.0 794.6 48.4Q794.3 48.9 794.3 49.4L794.3 49.4Q794.3 50.0 794.7 50.4Q795.1 50.8 795.6 51.0Q796.1 51.2 796.6 51.3L796.6 51.3L797.7 51.6Q798.2 51.7 798.8 52.0Q799.3 52.2 799.8 52.5Q800.4 52.9 800.7 53.5Q801.0 54.0 801.0 54.8L801.0 54.8Q801.0 55.8 800.5 56.5Q800.0 57.3 799.1 57.8Q798.1 58.2 796.8 58.2ZM808.0 58.2L808.0 58.2Q806.6 58.2 805.4 57.4Q804.2 56.7 803.5 55.4Q802.9 54.0 802.9 52.2L802.9 52.2Q802.9 50.3 803.5 49.0Q804.2 47.7 805.4 46.9Q806.6 46.2 808.0 46.2Q809.5 46.2 810.7 46.9Q811.9 47.7 812.5 49.0Q813.2 50.3 813.2 52.2L813.2 52.2Q813.2 54.0 812.5 55.4L812.5 55.4Q812.0 56.4 811.2 57.1L811.2 57.1L812.7 59.1L811.1 59.1L810.1 57.7Q809.2 58.2 808.0 58.2ZM809.3 56.6L807.6 54.4L809.1 54.4L810.3 56.0Q810.9 55.5 811.3 54.7L811.3 54.7Q811.8 53.7 811.8 52.2L811.8 52.2Q811.8 50.7 811.3 49.7Q810.8 48.6 809.9 48.1Q809.1 47.6 808.0 47.6L808.0 47.6Q807 47.6 806.2 48.1Q805.3 48.6 804.8 49.7Q804.3 50.7 804.3 52.2L804.3 52.2Q804.3 53.7 804.8 54.7Q805.3 55.7 806.2 56.3Q807 56.8 808.0 56.8L808.0 56.8Q808.7 56.8 809.3 56.6L809.3 56.6ZM822.4 58L815.6 58L815.6 46.4L817.0 46.4L817.0 56.7L822.4 56.7L822.4 58Z "/></g><defs><clipPath id="satori_bc-id-7"><path x="29" y="88" width="93" height="45" d="M51.5,88 h48 a22.5,22.5 0 0 1 22.5,22.5 v0 a22.5,22.5 0 0 1 -22.5,22.5 h-48 a22.5,22.5 0 0 1 -22.5,-22.5 v0 a22.5,22.5 0 0 1 22.5,-22.5"/></clipPath></defs><mask id="satori_om-id-7"><rect x="30" y="89" width="91" height="43" fill="#fff"/><path width="93" height="45" fill="none" stroke="#000" stroke-width="2" d="M35.59,94.59 A22.5,22.5 0 0 1 51.5,88 h48 a22.5,22.5 0 0 1 22.5,22.5 v0 a22.5,22.5 0 0 1 -22.5,22.5 h-48 a22.5,22.5 0 0 1 -22.5,-22.5 v0 A22.5,22.5 0 0 1 35.59,94.59"/></mask><path x="29" y="88" width="93" height="45" fill="#0F172A" d="M51.5,88 h48 a22.5,22.5 0 0 1 22.5,22.5 v0 a22.5,22.5 0 0 1 -22.5,22.5 h-48 a22.5,22.5 0 0 1 -22.5,-22.5 v0 a22.5,22.5 0 0 1 22.5,-22.5"/><path width="93" height="45" clip-path="url(#satori_bc-id-7)" fill="none" stroke="#1E293B" stroke-width="2" d="M35.59,94.59 A22.5,22.5 0 0 1 51.5,88 h48 a22.5,22.5 0 0 1 22.5,22.5 v0 a22.5,22.5 0 0 1 -22.5,22.5 h-48 a22.5,22.5 0 0 1 -22.5,-22.5 v0 A22.5,22.5 0 0 1 35.59,94.59"/><g  ><path fill="#E2E8F0" d="M53.0 117L53.0 117L49.4 117L49.4 105.4L53.2 105.4Q54.9 105.4 56.1 106.1Q57.3 106.8 57.9 108.1Q58.6 109.4 58.6 111.2L58.6 111.2Q58.6 113.0 57.9 114.3Q57.3 115.6 56.1 116.3Q54.8 117 53.0 117ZM50.9 106.7L50.9 115.7L52.9 115.7Q54.4 115.7 55.3 115.1Q56.2 114.6 56.7 113.6Q57.2 112.6 57.2 111.2L57.2 111.2Q57.2 109.8 56.7 108.8Q56.2 107.8 55.3 107.2Q54.4 106.7 53.1 106.7L53.1 106.7L50.9 106.7ZM64.3 117.2L64.3 117.2Q63.1 117.2 62.3 116.6Q61.4 116.1 60.9 115.0Q60.4 114.0 60.4 112.7L60.4 112.7Q60.4 111.3 60.9 110.3Q61.4 109.3 62.3 108.7Q63.1 108.2 64.3 108.2L64.3 108.2Q65.5 108.2 66.4 108.7Q67.3 109.3 67.8 110.3Q68.3 111.3 68.3 112.7L68.3 112.7Q68.3 114.0 67.8 115.0Q67.3 116.1 66.4 116.6Q65.5 117.2 64.3 117.2ZM64.3 115.9L64.3 115.9Q65.2 115.9 65.8 115.5Q66.4 115.0 66.6 114.3Q66.9 113.5 66.9 112.7L66.9 112.7Q66.9 111.8 66.6 111.1Q66.4 110.3 65.8 109.9Q65.2 109.4 64.3 109.4L64.3 109.4Q63.5 109.4 62.9 109.9Q62.3 110.3 62.1 111.1Q61.8 111.8 61.8 112.7L61.8 112.7Q61.8 113.5 62.1 114.3Q62.3 115.0 62.9 115.5Q63.5 115.9 64.3 115.9ZM73.9 117.2L73.9 117.2Q72.7 117.2 71.8 116.6Q71.0 116.1 70.5 115.0Q70.0 114.0 70.0 112.7L70.0 112.7Q70.0 111.3 70.5 110.3Q71.0 109.3 71.8 108.7Q72.7 108.2 73.9 108.2L73.9 108.2Q74.6 108.2 75.1 108.3Q75.7 108.5 76.2 108.8Q76.6 109.1 77.0 109.6Q77.3 110 77.5 110.6L77.5 110.6L76.1 111.0Q76.0 110.6 75.8 110.3Q75.6 110.1 75.4 109.8Q75.1 109.6 74.7 109.5Q74.4 109.4 73.9 109.4L73.9 109.4Q73.1 109.4 72.5 109.9Q71.9 110.3 71.7 111.1Q71.4 111.8 71.4 112.7L71.4 112.7Q71.4 113.5 71.7 114.3Q71.9 115.0 72.5 115.5Q73.1 115.9 73.9 115.9L73.9 115.9Q74.4 115.9 74.7 115.8Q75.1 115.7 75.4 115.5Q75.7 115.3 75.9 115.0Q76.1 114.7 76.2 114.3L76.2 114.3L77.5 114.7Q77.3 115.3 77.0 115.7Q76.6 116.2 76.2 116.5Q75.7 116.9 75.1 117.0Q74.6 117.2 73.9 117.2ZM80.9 117L79.5 117L79.5 105.4L80.9 105.4L80.9 112.1L81.1 112.1L84.8 108.3L86.6 108.3L82.9 112.0L86.8 117L85.0 117L81.8 112.9L80.9 113.8L80.9 117ZM92.0 117.2L92.0 117.2Q90.7 117.2 89.8 116.6Q88.9 116.1 88.4 115.1Q87.9 114.0 87.9 112.7Q87.9 111.4 88.4 110.3Q88.8 109.3 89.7 108.7Q90.6 108.2 91.8 108.2L91.8 108.2Q92.5 108.2 93.2 108.4Q93.9 108.6 94.4 109.1Q95.0 109.6 95.3 110.5Q95.6 111.3 95.6 112.5L95.6 112.5L95.6 113.1L89.3 113.1Q89.3 114.0 89.6 114.6L89.6 114.6Q90.0 115.2 90.6 115.6Q91.2 115.9 92.0 115.9L92.0 115.9Q92.5 115.9 92.9 115.8Q93.3 115.6 93.6 115.3Q93.9 115.0 94.1 114.6L94.1 114.6L95.5 115.0Q95.3 115.6 94.8 116.1Q94.3 116.6 93.6 116.9Q92.9 117.2 92.0 117.2ZM89.3 111.9L89.3 111.9L94.2 111.9Q94.1 111.3 93.9 110.8L93.9 110.8Q93.7 110.2 93.1 109.8Q92.6 109.4 91.8 109.4Q91.0 109.4 90.5 109.8Q89.9 110.2 89.6 110.8L89.6 110.8Q89.3 111.3 89.3 111.9ZM99.0 117L97.6 117L97.6 108.3L99.0 108.3L99.0 109.6L99.1 109.6Q99.3 108.9 99.9 108.5Q100.6 108.1 101.3 108.1L101.3 108.1Q101.5 108.1 101.7 108.1Q101.9 108.2 102.1 108.2L102.1 108.2L102.1 109.6Q102.0 109.6 101.7 109.5Q101.5 109.5 101.2 109.5L101.2 109.5Q100.6 109.5 100.1 109.8Q99.6 110.0 99.3 110.5Q99.0 110.9 99.0 111.5L99.0 111.5L99.0 117Z "/></g><defs><clipPath id="satori_bc-id-8"><path x="136" y="88" width="126" height="45" d="M158.5,88 h81 a22.5,22.5 0 0 1 22.5,22.5 v0 a22.5,22.5 0 0 1 -22.5,22.5 h-81 a22.5,22.5 0 0 1 -22.5,-22.5 v0 a22.5,22.5 0 0 1 22.5,-22.5"/></clipPath></defs><mask id="satori_om-id-8"><rect x="137" y="89" width="124" height="43" fill="#fff"/><path width="126" height="45" fill="none" stroke="#000" stroke-width="2" d="M142.59,94.59 A22.5,22.5 0 0 1 158.5,88 h81 a22.5,22.5 0 0 1 22.5,22.5 v0 a22.5,22.5 0 0 1 -22.5,22.5 h-81 a22.5,22.5 0 0 1 -22.5,-22.5 v0 A22.5,22.5 0 0 1 142.59,94.59"/></mask><path x="136" y="88" width="126" height="45" fill="#0F172A" d="M158.5,88 h81 a22.5,22.5 0 0 1 22.5,22.5 v0 a22.5,22.5 0 0 1 -22.5,22.5 h-81 a22.5,22.5 0 0 1 -22.5,-22.5 v0 a22.5,22.5 0 0 1 22.5,-22.5"/><path width="126" height="45" clip-path="url(#satori_bc-id-8)" fill="none" stroke="#1E293B" stroke-width="2" d="M142.59,94.59 A22.5,22.5 0 0 1 158.5,88 h81 a22.5,22.5 0 0 1 22.5,22.5 v0 a22.5,22.5 0 0 1 -22.5,22.5 h-81 a22.5,22.5 0 0 1 -22.5,-22.5 v0 A22.5,22.5 0 0 1 142.59,94.59"/><g  ><path fill="#E2E8F0" d="M157.9 117L156.4 117L156.4 105.4L157.9 105.4L157.9 109.3L157.9 111.5Q158.0 111.3 158.2 111.0L158.2 111.0Q158.6 110.5 159.0 110.1Q159.4 109.6 159.9 109.1L159.9 109.1L163.4 105.4L165.3 105.4L160.6 110.4L165.3 117L163.5 117L159.6 111.4L157.9 113.2L157.9 117ZM169.9 117.1L169.9 117.1Q169.1 117.1 168.4 116.7Q167.7 116.4 167.4 115.6Q167.0 114.9 167.0 113.8L167.0 113.8L167.0 108.3L168.4 108.3L168.4 113.7Q168.4 114.7 168.9 115.3Q169.5 115.8 170.4 115.8L170.4 115.8Q171.0 115.8 171.5 115.6Q172.0 115.3 172.3 114.8Q172.6 114.2 172.6 113.5L172.6 113.5L172.6 108.3L174.0 108.3L174.0 117L172.6 117L172.6 115.4Q172.2 116.2 171.7 116.6L171.7 116.6Q170.9 117.1 169.9 117.1ZM180.5 117.2L180.5 117.2Q179.7 117.2 179.2 116.9Q178.7 116.6 178.4 116.3Q178.1 115.9 178.0 115.6L178.0 115.6L177.8 115.6L177.8 117L176.4 117L176.4 105.4L177.9 105.4L177.9 109.7L178.0 109.7Q178.1 109.4 178.4 109.1Q178.6 108.7 179.1 108.4Q179.6 108.2 180.5 108.2L180.5 108.2Q181.6 108.2 182.4 108.7Q183.3 109.3 183.7 110.3Q184.2 111.3 184.2 112.7L184.2 112.7Q184.2 114.0 183.7 115.1Q183.3 116.1 182.4 116.6Q181.6 117.2 180.5 117.2ZM180.3 115.9L180.3 115.9Q181.1 115.9 181.7 115.5Q182.2 115.0 182.5 114.3Q182.8 113.6 182.8 112.6L182.8 112.6Q182.8 111.7 182.5 111.0Q182.2 110.3 181.7 109.8Q181.1 109.4 180.3 109.4L180.3 109.4Q179.5 109.4 178.9 109.8Q178.4 110.2 178.1 110.9Q177.8 111.7 177.8 112.6L177.8 112.6Q177.8 113.6 178.1 114.4Q178.4 115.1 178.9 115.5Q179.5 115.9 180.3 115.9ZM189.9 117.2L189.9 117.2Q188.6 117.2 187.7 116.6Q186.8 116.1 186.3 115.1Q185.8 114.0 185.8 112.7Q185.8 111.4 186.3 110.3Q186.8 109.3 187.7 108.7Q188.6 108.2 189.8 108.2L189.8 108.2Q190.4 108.2 191.1 108.4Q191.8 108.6 192.3 109.1Q192.9 109.6 193.2 110.5Q193.6 111.3 193.6 112.5L193.6 112.5L193.6 113.1L187.2 113.1Q187.3 114.0 187.6 114.6L187.6 114.6Q187.9 115.2 188.5 115.6Q189.1 115.9 189.9 115.9L189.9 115.9Q190.4 115.9 190.9 115.8Q191.3 115.6 191.6 115.3Q191.9 115.0 192.1 114.6L192.1 114.6L193.4 115.0Q193.2 115.6 192.7 116.1Q192.2 116.6 191.5 116.9Q190.8 117.2 189.9 117.2ZM187.3 111.9L187.3 111.9L192.1 111.9Q192.1 111.3 191.9 110.8L191.9 110.8Q191.6 110.2 191.1 109.8Q190.5 109.4 189.8 109.4Q189.0 109.4 188.4 109.8Q187.8 110.2 187.5 110.8L187.5 110.8Q187.3 111.3 187.3 111.9ZM197.0 117L195.6 117L195.6 108.3L196.9 108.3L196.9 109.6L197.0 109.6Q197.3 108.9 197.9 108.5Q198.5 108.1 199.3 108.1L199.3 108.1Q199.4 108.1 199.7 108.1Q199.9 108.2 200 108.2L200 108.2L200 109.6Q199.9 109.6 199.7 109.5Q199.4 109.5 199.2 109.5L199.2 109.5Q198.5 109.5 198.0 109.8Q197.5 110.0 197.3 110.5Q197.0 110.9 197.0 111.5L197.0 111.5L197.0 117ZM203 111.8L203 111.8L203 117L201.6 117L201.6 108.3L202.9 108.3L203.0 109.9Q203.3 109.1 203.9 108.7L203.9 108.7Q204.6 108.2 205.6 108.2L205.6 108.2Q206.5 108.2 207.2 108.5Q207.8 108.9 208.2 109.6Q208.6 110.3 208.6 111.5L208.6 111.5L208.6 117L207.2 117L207.2 111.6Q207.2 110.6 206.6 110.0Q206.1 109.4 205.2 109.4L205.2 109.4Q204.6 109.4 204.1 109.7Q203.6 110.0 203.3 110.5Q203 111.0 203 111.8ZM214.7 117.2L214.7 117.2Q213.5 117.2 212.5 116.6Q211.6 116.1 211.1 115.1Q210.6 114.0 210.6 112.7Q210.6 111.4 211.1 110.3Q211.6 109.3 212.5 108.7Q213.4 108.2 214.6 108.2L214.6 108.2Q215.3 108.2 215.9 108.4Q216.6 108.6 217.2 109.1Q217.7 109.6 218.0 110.5Q218.4 111.3 218.4 112.5L218.4 112.5L218.4 113.1L212.0 113.1Q212.1 114.0 212.4 114.6L212.4 114.6Q212.7 115.2 213.3 115.6Q213.9 115.9 214.7 115.9L214.7 115.9Q215.2 115.9 215.7 115.8Q216.1 115.6 216.4 115.3Q216.7 115.0 216.9 114.6L216.9 114.6L218.2 115.0Q218.0 115.6 217.5 116.1Q217.0 116.6 216.3 116.9Q215.6 117.2 214.7 117.2ZM212.1 111.9L212.1 111.9L216.9 111.9Q216.9 111.3 216.7 110.8L216.7 110.8Q216.4 110.2 215.9 109.8Q215.3 109.4 214.6 109.4Q213.8 109.4 213.2 109.8Q212.6 110.2 212.3 110.8L212.3 110.8Q212.1 111.3 212.1 111.9ZM222.0 108.3L223.8 108.3L223.8 109.5L222.0 109.5L222.0 114.7Q222.0 115.3 222.3 115.6Q222.5 115.9 223.0 115.9L223.0 115.9Q223.2 115.9 223.4 115.8Q223.6 115.8 223.8 115.8L223.8 115.8L224.1 117.0Q223.8 117.0 223.6 117.1Q223.3 117.1 223.0 117.1L223.0 117.1Q221.9 117.1 221.2 116.5Q220.6 115.9 220.6 114.8L220.6 114.8L220.6 109.5L219.3 109.5L219.3 108.3L220.6 108.3L220.6 106.2L222.0 106.2L222.0 108.3ZM229.3 117.2L229.3 117.2Q228.0 117.2 227.1 116.6Q226.2 116.1 225.7 115.1Q225.2 114.0 225.2 112.7Q225.2 111.4 225.7 110.3Q226.2 109.3 227.0 108.7Q227.9 108.2 229.1 108.2L229.1 108.2Q229.8 108.2 230.5 108.4Q231.2 108.6 231.7 109.1Q232.3 109.6 232.6 110.5Q232.9 111.3 232.9 112.5L232.9 112.5L232.9 113.1L226.6 113.1Q226.6 114.0 226.9 114.6L226.9 114.6Q227.3 115.2 227.9 115.6Q228.5 115.9 229.3 115.9L229.3 115.9Q229.8 115.9 230.2 115.8Q230.6 115.6 231.0 115.3Q231.3 115.0 231.4 114.6L231.4 114.6L232.8 115.0Q232.6 115.6 232.1 116.1Q231.6 116.6 230.9 116.9Q230.2 117.2 229.3 117.2ZM226.6 111.9L226.6 111.9L231.5 111.9Q231.4 111.3 231.2 110.8L231.2 110.8Q231.0 110.2 230.4 109.8Q229.9 109.4 229.1 109.4Q228.3 109.4 227.8 109.8Q227.2 110.2 226.9 110.8L226.9 110.8Q226.7 111.3 226.6 111.9ZM237.9 117.2L237.9 117.2Q237.0 117.2 236.3 116.9Q235.6 116.7 235.2 116.1Q234.7 115.6 234.5 114.9L234.5 114.9L235.9 114.6Q236.1 115.3 236.6 115.6Q237.1 116.0 237.9 116.0L237.9 116.0Q238.8 116.0 239.3 115.6Q239.9 115.2 239.9 114.6L239.9 114.6Q239.9 114.2 239.6 113.9Q239.3 113.6 238.6 113.4L238.6 113.4L237.2 113.1Q236.0 112.8 235.4 112.2Q234.8 111.6 234.8 110.7L234.8 110.7Q234.8 110.0 235.2 109.4Q235.7 108.8 236.4 108.5Q237.1 108.2 238.0 108.2L238.0 108.2Q238.9 108.2 239.6 108.4Q240.2 108.7 240.6 109.2Q241.0 109.6 241.2 110.3L241.2 110.3L239.9 110.6Q239.7 110.1 239.3 109.7Q238.9 109.4 238.1 109.4L238.1 109.4Q237.3 109.4 236.8 109.7Q236.2 110.1 236.2 110.6L236.2 110.6Q236.2 111.1 236.6 111.4Q236.9 111.7 237.7 111.9L237.7 111.9L239.0 112.2Q240.2 112.5 240.8 113.1Q241.4 113.6 241.4 114.5L241.4 114.5Q241.4 115.3 240.9 115.9Q240.5 116.5 239.7 116.8Q238.9 117.2 237.9 117.2Z "/></g><defs><clipPath id="satori_bc-id-9"><path x="276" y="88" width="76" height="45" d="M298.5,88 h31 a22.5,22.5 0 0 1 22.5,22.5 v0 a22.5,22.5 0 0 1 -22.5,22.5 h-31 a22.5,22.5 0 0 1 -22.5,-22.5 v0 a22.5,22.5 0 0 1 22.5,-22.5"/></clipPath></defs><mask id="satori_om-id-9"><rect x="277" y="89" width="74" height="43" fill="#fff"/><path width="76" height="45" fill="none" stroke="#000" stroke-width="2" d="M282.59,94.59 A22.5,22.5 0 0 1 298.5,88 h31 a22.5,22.5 0 0 1 22.5,22.5 v0 a22.5,22.5 0 0 1 -22.5,22.5 h-31 a22.5,22.5 0 0 1 -22.5,-22.5 v0 A22.5,22.5 0 0 1 282.59,94.59"/></mask><path x="276" y="88" width="76" height="45" fill="#0F172A" d="M298.5,88 h31 a22.5,22.5 0 0 1 22.5,22.5 v0 a22.5,22.5 0 0 1 -22.5,22.5 h-31 a22.5,22.5 0 0 1 -22.5,-22.5 v0 a22.5,22.5 0 0 1 22.5,-22.5"/><path width="76" height="45" clip-path="url(#satori_bc-id-9)" fill="none" stroke="#1E293B" stroke-width="2" d="M282.59,94.59 A22.5,22.5 0 0 1 298.5,88 h31 a22.5,22.5 0 0 1 22.5,22.5 v0 a22.5,22.5 0 0 1 -22.5,22.5 h-31 a22.5,22.5 0 0 1 -22.5,-22.5 v0 A22.5,22.5 0 0 1 282.59,94.59"/><g  ><path fill="#E2E8F0" d="M297.0 117L295.4 117L299.6 105.4L301.4 105.4L305.6 117L304.1 117L302.9 113.8L298.1 113.8L297.0 117ZM298.6 112.5L302.4 112.5L301.6 110.1Q301.4 109.5 301.1 108.5L301.1 108.5Q300.8 107.7 300.5 106.5L300.5 106.5Q300.1 107.7 299.9 108.5L299.9 108.5Q299.6 109.5 299.4 110.1L299.4 110.1L298.6 112.5ZM311.4 117L309.6 117L306.4 105.4L308.0 105.4L309.8 112.5Q310.0 113.1 310.1 113.7Q310.2 114.3 310.3 114.9L310.3 114.9Q310.4 115.2 310.5 115.6L310.5 115.6Q310.6 115.2 310.6 114.9L310.6 114.9Q310.8 114.3 310.9 113.7Q311.0 113.1 311.2 112.5L311.2 112.5L313.1 105.4L314.8 105.4L316.6 112.5Q316.8 113.1 316.9 113.7Q317.1 114.3 317.2 114.9L317.2 114.9Q317.3 115.2 317.3 115.6L317.3 115.6Q317.4 115.2 317.5 114.9L317.5 114.9Q317.6 114.3 317.8 113.7Q317.9 113.1 318.0 112.5L318.0 112.5L319.9 105.4L321.4 105.4L318.2 117L316.5 117L314.5 109.6Q314.3 108.9 314.1 108.1L314.1 108.1Q314.0 107.6 313.9 107.0L313.9 107.0Q313.8 107.5 313.7 108.0L313.7 108.0Q313.6 108.8 313.3 109.6L313.3 109.6L311.4 117ZM326.9 117.2L326.9 117.2Q325.7 117.2 324.8 116.8Q323.8 116.4 323.3 115.7Q322.8 114.9 322.7 114.0L322.7 114.0L324.2 114.0Q324.3 114.6 324.7 115.0Q325.1 115.5 325.7 115.7Q326.3 115.9 326.9 115.9L326.9 115.9Q327.7 115.9 328.4 115.6Q329.0 115.4 329.4 114.9Q329.7 114.4 329.7 113.8L329.7 113.8Q329.7 113.2 329.4 112.9Q329.1 112.5 328.6 112.3Q328.0 112.1 327.4 111.9L327.4 111.9L326.0 111.5Q324.6 111.1 323.8 110.4Q323.0 109.6 323.0 108.5L323.0 108.5Q323.0 107.5 323.6 106.8Q324.1 106.0 325.0 105.6Q325.9 105.2 327.0 105.2L327.0 105.2Q328.2 105.2 329.1 105.6Q330.0 106.0 330.5 106.7Q331.0 107.4 331.0 108.3L331.0 108.3L329.6 108.3Q329.5 107.4 328.7 107.0Q328.0 106.5 327.0 106.5L327.0 106.5Q326.2 106.5 325.7 106.8Q325.1 107.0 324.8 107.4Q324.5 107.9 324.5 108.4L324.5 108.4Q324.5 109.0 324.9 109.4Q325.2 109.8 325.8 110.0Q326.3 110.2 326.7 110.3L326.7 110.3L327.9 110.6Q328.3 110.7 328.9 111.0Q329.5 111.2 330.0 111.5Q330.5 111.9 330.8 112.5Q331.2 113.0 331.2 113.8L331.2 113.8Q331.2 114.8 330.7 115.5Q330.2 116.3 329.2 116.8Q328.3 117.2 326.9 117.2Z "/></g><defs><clipPath id="satori_bc-id-10"><path x="366" y="88" width="72" height="45" d="M388.5,88 h27 a22.5,22.5 0 0 1 22.5,22.5 v0 a22.5,22.5 0 0 1 -22.5,22.5 h-27 a22.5,22.5 0 0 1 -22.5,-22.5 v0 a22.5,22.5 0 0 1 22.5,-22.5"/></clipPath></defs><mask id="satori_om-id-10"><rect x="367" y="89" width="70" height="43" fill="#fff"/><path width="72" height="45" fill="none" stroke="#000" stroke-width="2" d="M372.59,94.59 A22.5,22.5 0 0 1 388.5,88 h27 a22.5,22.5 0 0 1 22.5,22.5 v0 a22.5,22.5 0 0 1 -22.5,22.5 h-27 a22.5,22.5 0 0 1 -22.5,-22.5 v0 A22.5,22.5 0 0 1 372.59,94.59"/></mask><path x="366" y="88" width="72" height="45" fill="#0F172A" d="M388.5,88 h27 a22.5,22.5 0 0 1 22.5,22.5 v0 a22.5,22.5 0 0 1 -22.5,22.5 h-27 a22.5,22.5 0 0 1 -22.5,-22.5 v0 a22.5,22.5 0 0 1 22.5,-22.5"/><path width="72" height="45" clip-path="url(#satori_bc-id-10)" fill="none" stroke="#1E293B" stroke-width="2" d="M372.59,94.59 A22.5,22.5 0 0 1 388.5,88 h27 a22.5,22.5 0 0 1 22.5,22.5 v0 a22.5,22.5 0 0 1 -22.5,22.5 h-27 a22.5,22.5 0 0 1 -22.5,-22.5 v0 A22.5,22.5 0 0 1 372.59,94.59"/><g  ><path fill="#E2E8F0" d="M387.9 117L386.4 117L386.4 105.4L390.4 105.4Q391.8 105.4 392.6 105.8Q393.5 106.3 393.9 107.1Q394.4 107.9 394.4 109.0Q394.4 110.0 393.9 110.8Q393.5 111.6 392.6 112.0L392.6 112.0Q392.4 112.1 392.2 112.2L392.2 112.2L394.8 117L393.1 117L390.7 112.5Q390.5 112.5 390.4 112.5L390.4 112.5L387.9 112.5L387.9 117ZM387.9 106.7L387.9 111.2L390.3 111.2Q391.3 111.2 391.8 110.9Q392.4 110.6 392.6 110.1Q392.9 109.6 392.9 109.0L392.9 109.0Q392.9 108.3 392.6 107.7Q392.4 107.2 391.8 106.9Q391.2 106.7 390.3 106.7L390.3 106.7L387.9 106.7ZM399.5 117.1L399.5 117.1Q398.6 117.1 397.9 116.7Q397.3 116.4 396.9 115.6Q396.5 114.9 396.5 113.8L396.5 113.8L396.5 108.3L397.9 108.3L397.9 113.7Q397.9 114.7 398.5 115.3Q399 115.8 399.9 115.8L399.9 115.8Q400.5 115.8 401.0 115.6Q401.5 115.3 401.8 114.8Q402.1 114.2 402.1 113.5L402.1 113.5L402.1 108.3L403.5 108.3L403.5 117L402.2 117L402.2 115.4Q401.8 116.2 401.2 116.6L401.2 116.6Q400.5 117.1 399.5 117.1ZM409.0 117.2L409.0 117.2Q408.1 117.2 407.4 116.9Q406.7 116.7 406.2 116.1Q405.8 115.6 405.6 114.9L405.6 114.9L406.9 114.6Q407.1 115.3 407.6 115.6Q408.2 116.0 408.9 116.0L408.9 116.0Q409.9 116.0 410.4 115.6Q410.9 115.2 410.9 114.6L410.9 114.6Q410.9 114.2 410.6 113.9Q410.3 113.6 409.7 113.4L409.7 113.4L408.2 113.1Q407.0 112.8 406.4 112.2Q405.9 111.6 405.9 110.7L405.9 110.7Q405.9 110.0 406.3 109.4Q406.7 108.8 407.4 108.5Q408.2 108.2 409.1 108.2L409.1 108.2Q410 108.2 410.6 108.4Q411.3 108.7 411.7 109.2Q412.0 109.6 412.2 110.3L412.2 110.3L411.0 110.6Q410.8 110.1 410.4 109.7Q410.0 109.4 409.1 109.4L409.1 109.4Q408.3 109.4 407.8 109.7Q407.3 110.1 407.3 110.6L407.3 110.6Q407.3 111.1 407.6 111.4Q408.0 111.7 408.8 111.9L408.8 111.9L410.1 112.2Q411.3 112.5 411.8 113.1Q412.4 113.6 412.4 114.5L412.4 114.5Q412.4 115.3 412.0 115.9Q411.5 116.5 410.8 116.8Q410.0 117.2 409.0 117.2ZM416.1 108.3L417.9 108.3L417.9 109.5L416.1 109.5L416.1 114.7Q416.1 115.3 416.3 115.6Q416.6 115.9 417.1 115.9L417.1 115.9Q417.2 115.9 417.4 115.8Q417.7 115.8 417.8 115.8L417.8 115.8L418.1 117.0Q417.9 117.0 417.6 117.1Q417.3 117.1 417.1 117.1L417.1 117.1Q415.9 117.1 415.3 116.5Q414.7 115.9 414.7 114.8L414.7 114.8L414.7 109.5L413.4 109.5L413.4 108.3L414.7 108.3L414.7 106.2L416.1 106.2L416.1 108.3Z "/></g><defs><clipPath id="satori_bc-id-11"><path x="452" y="88" width="90" height="45" d="M474.5,88 h45 a22.5,22.5 0 0 1 22.5,22.5 v0 a22.5,22.5 0 0 1 -22.5,22.5 h-45 a22.5,22.5 0 0 1 -22.5,-22.5 v0 a22.5,22.5 0 0 1 22.5,-22.5"/></clipPath></defs><mask id="satori_om-id-11"><rect x="453" y="89" width="88" height="43" fill="#fff"/><path width="90" height="45" fill="none" stroke="#000" stroke-width="2" d="M458.59,94.59 A22.5,22.5 0 0 1 474.5,88 h45 a22.5,22.5 0 0 1 22.5,22.5 v0 a22.5,22.5 0 0 1 -22.5,22.5 h-45 a22.5,22.5 0 0 1 -22.5,-22.5 v0 A22.5,22.5 0 0 1 458.59,94.59"/></mask><path x="452" y="88" width="90" height="45" fill="#0F172A" d="M474.5,88 h45 a22.5,22.5 0 0 1 22.5,22.5 v0 a22.5,22.5 0 0 1 -22.5,22.5 h-45 a22.5,22.5 0 0 1 -22.5,-22.5 v0 a22.5,22.5 0 0 1 22.5,-22.5"/><path width="90" height="45" clip-path="url(#satori_bc-id-11)" fill="none" stroke="#1E293B" stroke-width="2" d="M458.59,94.59 A22.5,22.5 0 0 1 474.5,88 h45 a22.5,22.5 0 0 1 22.5,22.5 v0 a22.5,22.5 0 0 1 -22.5,22.5 h-45 a22.5,22.5 0 0 1 -22.5,-22.5 v0 A22.5,22.5 0 0 1 458.59,94.59"/><g  ><path fill="#E2E8F0" d="M476.1 117.2L476.1 117.2Q474.9 117.2 473.9 116.8Q473.0 116.4 472.5 115.7Q472.0 114.9 471.9 114.0L471.9 114.0L473.4 114.0Q473.5 114.6 473.9 115.0Q474.3 115.5 474.9 115.7Q475.5 115.9 476.1 115.9L476.1 115.9Q476.9 115.9 477.6 115.6Q478.2 115.4 478.5 114.9Q478.9 114.4 478.9 113.8L478.9 113.8Q478.9 113.2 478.6 112.9Q478.3 112.5 477.8 112.3Q477.2 112.1 476.6 111.9L476.6 111.9L475.2 111.5Q473.8 111.1 473.0 110.4Q472.2 109.6 472.2 108.5L472.2 108.5Q472.2 107.5 472.8 106.8Q473.3 106.0 474.2 105.6Q475.1 105.2 476.2 105.2L476.2 105.2Q477.4 105.2 478.3 105.6Q479.1 106.0 479.7 106.7Q480.2 107.4 480.2 108.3L480.2 108.3L478.8 108.3Q478.6 107.4 477.9 107.0Q477.2 106.5 476.2 106.5L476.2 106.5Q475.4 106.5 474.9 106.8Q474.3 107.0 474.0 107.4Q473.7 107.9 473.7 108.4L473.7 108.4Q473.7 109.0 474.1 109.4Q474.4 109.8 475.0 110.0Q475.5 110.2 475.9 110.3L475.9 110.3L477.1 110.6Q477.5 110.7 478.1 111.0Q478.7 111.2 479.2 111.5Q479.7 111.9 480.0 112.5Q480.4 113.0 480.4 113.8L480.4 113.8Q480.4 114.8 479.9 115.5Q479.4 116.3 478.4 116.8Q477.5 117.2 476.1 117.2ZM486.1 117.2L486.1 117.2Q484.9 117.2 484.0 116.6Q483.1 116.1 482.6 115.0Q482.1 114.0 482.1 112.7L482.1 112.7Q482.1 111.3 482.6 110.3Q483.1 109.3 484.0 108.7Q484.9 108.2 486.1 108.2L486.1 108.2Q487.3 108.2 488.1 108.7Q489.0 109.3 489.5 110.3Q490.0 111.3 490.0 112.7L490.0 112.7Q490.0 114.0 489.5 115.0Q489.0 116.1 488.1 116.6Q487.3 117.2 486.1 117.2ZM486.1 115.9L486.1 115.9Q486.9 115.9 487.5 115.5Q488.1 115.0 488.4 114.3Q488.6 113.5 488.6 112.7L488.6 112.7Q488.6 111.8 488.4 111.1Q488.1 110.3 487.5 109.9Q486.9 109.4 486.1 109.4L486.1 109.4Q485.2 109.4 484.6 109.9Q484.1 110.3 483.8 111.1Q483.5 111.8 483.5 112.7L483.5 112.7Q483.5 113.5 483.8 114.3Q484.1 115.0 484.6 115.5Q485.2 115.9 486.1 115.9ZM492.1 105.4L493.5 105.4L493.5 117L492.1 117L492.1 105.4ZM498.4 117.2L498.4 117.2Q497.6 117.2 496.9 116.9Q496.2 116.6 495.8 116.0Q495.4 115.4 495.4 114.5L495.4 114.5Q495.4 113.8 495.7 113.3Q496.0 112.8 496.5 112.6Q497.0 112.3 497.6 112.2Q498.2 112.0 498.8 111.9L498.8 111.9Q499.6 111.8 500.1 111.8Q500.6 111.7 500.8 111.6Q501.1 111.5 501.1 111.1L501.1 111.1L501.1 111.1Q501.1 110.6 500.9 110.2Q500.7 109.8 500.3 109.6Q499.9 109.4 499.3 109.4L499.3 109.4Q498.6 109.4 498.2 109.6Q497.7 109.8 497.5 110.1Q497.2 110.4 497.0 110.7L497.0 110.7L495.7 110.2Q496.0 109.4 496.6 109.0Q497.2 108.5 497.9 108.3Q498.5 108.2 499.2 108.2L499.2 108.2Q499.6 108.2 500.2 108.3Q500.8 108.4 501.3 108.7Q501.8 109.0 502.1 109.6Q502.5 110.2 502.5 111.2L502.5 111.2L502.5 117L501.1 117L501.1 115.8L501.0 115.8Q500.9 116.1 500.5 116.4Q500.2 116.8 499.7 117.0Q499.2 117.2 498.4 117.2ZM498.7 116.0L498.7 116.0Q499.4 116.0 500.0 115.7Q500.5 115.4 500.8 114.9Q501.1 114.4 501.1 113.8L501.1 113.8L501.1 112.6Q501.0 112.7 500.7 112.8Q500.4 112.9 500.0 113.0Q499.7 113.0 499.3 113.1Q499.0 113.1 498.8 113.1L498.8 113.1Q498.3 113.2 497.8 113.3Q497.4 113.5 497.1 113.8Q496.9 114.1 496.9 114.6L496.9 114.6Q496.9 115.0 497.1 115.3Q497.3 115.6 497.7 115.8Q498.1 116.0 498.7 116.0ZM506.4 111.8L506.4 111.8L506.4 117L505.0 117L505.0 108.3L506.3 108.3L506.3 109.9Q506.7 109.1 507.3 108.7L507.3 108.7Q508.0 108.2 509.0 108.2L509.0 108.2Q509.9 108.2 510.5 108.5Q511.2 108.9 511.6 109.6Q511.9 110.3 511.9 111.5L511.9 111.5L511.9 117L510.5 117L510.5 111.6Q510.5 110.6 510.0 110.0Q509.5 109.4 508.6 109.4L508.6 109.4Q507.9 109.4 507.4 109.7Q506.9 110.0 506.6 110.5Q506.4 111.0 506.4 111.8ZM516.9 117.2L516.9 117.2Q516.0 117.2 515.3 116.9Q514.7 116.6 514.3 116.0Q513.9 115.4 513.9 114.5L513.9 114.5Q513.9 113.8 514.2 113.3Q514.5 112.8 515.0 112.6Q515.5 112.3 516.1 112.2Q516.7 112.0 517.3 111.9L517.3 111.9Q518.1 111.8 518.5 111.8Q519.0 111.7 519.3 111.6Q519.5 111.5 519.5 111.1L519.5 111.1L519.5 111.1Q519.5 110.6 519.3 110.2Q519.1 109.8 518.7 109.6Q518.3 109.4 517.7 109.4L517.7 109.4Q517.1 109.4 516.6 109.6Q516.2 109.8 515.9 110.1Q515.6 110.4 515.5 110.7L515.5 110.7L514.1 110.2Q514.5 109.4 515.0 109.0Q515.6 108.5 516.3 108.3Q517.0 108.2 517.6 108.2L517.6 108.2Q518.1 108.2 518.6 108.3Q519.2 108.4 519.7 108.7Q520.2 109.0 520.6 109.6Q520.9 110.2 520.9 111.2L520.9 111.2L520.9 117L519.5 117L519.5 115.8L519.4 115.8Q519.3 116.1 519.0 116.4Q518.6 116.8 518.1 117.0Q517.6 117.2 516.9 117.2ZM517.1 116.0L517.1 116.0Q517.9 116.0 518.4 115.7Q519.0 115.4 519.2 114.9Q519.5 114.4 519.5 113.8L519.5 113.8L519.5 112.6Q519.4 112.7 519.1 112.8Q518.9 112.9 518.5 113.0Q518.1 113.0 517.8 113.1Q517.4 113.1 517.2 113.1L517.2 113.1Q516.7 113.2 516.3 113.3Q515.8 113.5 515.6 113.8Q515.3 114.1 515.3 114.6L515.3 114.6Q515.3 115.0 515.5 115.3Q515.8 115.6 516.2 115.8Q516.6 116.0 517.1 116.0Z "/></g><defs><clipPath id="satori_bc-id-12"><path x="556" y="88" width="81" height="45" d="M578.5,88 h36 a22.5,22.5 0 0 1 22.5,22.5 v0 a22.5,22.5 0 0 1 -22.5,22.5 h-36 a22.5,22.5 0 0 1 -22.5,-22.5 v0 a22.5,22.5 0 0 1 22.5,-22.5"/></clipPath></defs><mask id="satori_om-id-12"><rect x="557" y="89" width="79" height="43" fill="#fff"/><path width="81" height="45" fill="none" stroke="#000" stroke-width="2" d="M562.59,94.59 A22.5,22.5 0 0 1 578.5,88 h36 a22.5,22.5 0 0 1 22.5,22.5 v0 a22.5,22.5 0 0 1 -22.5,22.5 h-36 a22.5,22.5 0 0 1 -22.5,-22.5 v0 A22.5,22.5 0 0 1 562.59,94.59"/></mask><path x="556" y="88" width="81" height="45" fill="#0F172A" d="M578.5,88 h36 a22.5,22.5 0 0 1 22.5,22.5 v0 a22.5,22.5 0 0 1 -22.5,22.5 h-36 a22.5,22.5 0 0 1 -22.5,-22.5 v0 a22.5,22.5 0 0 1 22.5,-22.5"/><path width="81" height="45" clip-path="url(#satori_bc-id-12)" fill="none" stroke="#1E293B" stroke-width="2" d="M562.59,94.59 A22.5,22.5 0 0 1 578.5,88 h36 a22.5,22.5 0 0 1 22.5,22.5 v0 a22.5,22.5 0 0 1 -22.5,22.5 h-36 a22.5,22.5 0 0 1 -22.5,-22.5 v0 A22.5,22.5 0 0 1 562.59,94.59"/><g  ><path fill="#E2E8F0" d="M581.1 117.2L581.1 117.2Q579.6 117.2 578.5 116.4Q577.3 115.7 576.6 114.4Q576.0 113.0 576.0 111.2L576.0 111.2Q576.0 109.3 576.6 108.0Q577.3 106.7 578.5 105.9Q579.6 105.2 581.1 105.2Q582.6 105.2 583.8 105.9Q584.9 106.7 585.6 108.0Q586.3 109.3 586.3 111.2L586.3 111.2Q586.3 113.0 585.6 114.4L585.6 114.4Q585.1 115.4 584.3 116.1L584.3 116.1L585.8 118.1L584.2 118.1L583.2 116.7Q582.3 117.2 581.1 117.2ZM582.3 115.6L580.6 113.4L582.2 113.4L583.4 115.0Q584.0 114.5 584.3 113.7L584.3 113.7Q584.8 112.7 584.8 111.2L584.8 111.2Q584.8 109.7 584.3 108.7Q583.8 107.6 583.0 107.1Q582.2 106.6 581.1 106.6L581.1 106.6Q580.1 106.6 579.2 107.1Q578.4 107.6 577.9 108.7Q577.4 109.7 577.4 111.2L577.4 111.2Q577.4 112.7 577.9 113.7Q578.4 114.7 579.2 115.3Q580.1 115.8 581.1 115.8L581.1 115.8Q581.8 115.8 582.3 115.6L582.3 115.6ZM589.9 117L588.5 117L588.5 108.3L589.9 108.3L589.9 117ZM589.2 106.8L589.2 106.8Q588.8 106.8 588.5 106.6Q588.2 106.3 588.2 105.9L588.2 105.9Q588.2 105.5 588.5 105.2Q588.8 105.0 589.2 105.0L589.2 105.0Q589.6 105.0 589.9 105.2Q590.2 105.5 590.2 105.9L590.2 105.9Q590.2 106.3 589.9 106.6Q589.6 106.8 589.2 106.8ZM595.3 117.2L595.3 117.2Q594.4 117.2 593.7 116.9Q593.0 116.7 592.6 116.1Q592.1 115.6 592.0 114.9L592.0 114.9L593.3 114.6Q593.5 115.3 594.0 115.6Q594.5 116.0 595.3 116.0L595.3 116.0Q596.2 116.0 596.8 115.6Q597.3 115.2 597.3 114.6L597.3 114.6Q597.3 114.2 597.0 113.9Q596.7 113.6 596.0 113.4L596.0 113.4L594.6 113.1Q593.4 112.8 592.8 112.2Q592.2 111.6 592.2 110.7L592.2 110.7Q592.2 110.0 592.6 109.4Q593.1 108.8 593.8 108.5Q594.5 108.2 595.5 108.2L595.5 108.2Q596.4 108.2 597.0 108.4Q597.6 108.7 598.0 109.2Q598.4 109.6 598.6 110.3L598.6 110.3L597.3 110.6Q597.1 110.1 596.7 109.7Q596.3 109.4 595.5 109.4L595.5 109.4Q594.7 109.4 594.2 109.7Q593.6 110.1 593.6 110.6L593.6 110.6Q593.6 111.1 594.0 111.4Q594.3 111.7 595.1 111.9L595.1 111.9L596.4 112.2Q597.6 112.5 598.2 113.1Q598.8 113.6 598.8 114.5L598.8 114.5Q598.8 115.3 598.3 115.9Q597.9 116.5 597.1 116.8Q596.3 117.2 595.3 117.2ZM602.2 117L600.8 117L600.8 105.4L602.2 105.4L602.2 112.1L602.4 112.1L606.1 108.3L607.8 108.3L604.2 112.0L608.1 117L606.3 117L603.1 112.9L602.2 113.8L602.2 117ZM611.0 117L609.6 117L609.6 108.3L611.0 108.3L611.0 117ZM610.3 106.8L610.3 106.8Q609.9 106.8 609.6 106.6Q609.3 106.3 609.3 105.9L609.3 105.9Q609.3 105.5 609.6 105.2Q609.9 105.0 610.3 105.0L610.3 105.0Q610.7 105.0 611.0 105.2Q611.3 105.5 611.3 105.9L611.3 105.9Q611.3 106.3 611.0 106.6Q610.7 106.8 610.3 106.8ZM615.1 108.3L616.9 108.3L616.9 109.5L615.1 109.5L615.1 114.7Q615.1 115.3 615.3 115.6Q615.6 115.9 616.1 115.9L616.1 115.9Q616.3 115.9 616.5 115.8Q616.7 115.8 616.8 115.8L616.8 115.8L617.1 117.0Q616.9 117.0 616.6 117.1Q616.4 117.1 616.1 117.1L616.1 117.1Q614.9 117.1 614.3 116.5Q613.7 115.9 613.7 114.8L613.7 114.8L613.7 109.5L612.4 109.5L612.4 108.3L613.7 108.3L613.7 106.2L615.1 106.2L615.1 108.3Z "/></g></svg>