<!-- Generated by readme-aura https://github.com/collectioneur/readme-aura -->
<svg width="900" height="260" viewBox="0 0 900 260" xmlns="http://www.w3.org/2000/svg"><mask id="satori_om-id"><rect x="0" y="0" width="900" height="260" fill="#fff"/></mask><defs><clipPath id="satori_bc-id-0"><path x="0" y="0" width="610" height="260" d="M24,0 h562 a24,24 0 0 1 24,24 v212 a24,24 0 0 1 -24,24 h-562 a24,24 0 0 1 -24,-24 v-212 a24,24 0 0 1 24,-24"/></clipPath></defs><mask id="satori_om-id-0"><rect x="1" y="1" width="608" height="258" fill="#fff"/><path width="610" height="260" fill="none" stroke="#000" stroke-width="2" d="M7.029,7.029 A24,24 0 0 1 24,0 h562 a24,24 0 0 1 24,24 v212 a24,24 0 0 1 -24,24 h-562 a24,24 0 0 1 -24,-24 v-212 A24,24 0 0 1 7.029,7.029"/></mask><path x="0" y="0" width="610" height="260" fill="#070B14" d="M24,0 h562 a24,24 0 0 1 24,24 v212 a24,24 0 0 1 -24,24 h-562 a24,24 0 0 1 -24,-24 v-212 a24,24 0 0 1 24,-24"/><path width="610" height="260" clip-path="url(#satori_bc-id-0)" fill="none" stroke="#1E293B" stroke-width="2" d="M7.029,7.029 A24,24 0 0 1 24,0 h562 a24,24 0 0 1 24,24 v212 a24,24 0 0 1 -24,24 h-562 a24,24 0 0 1 -24,-24 v-212 A24,24 0 0 1 7.029,7.029"/><mask id="satori_om-id-0-0"><rect x="33" y="59" width="544" height="15" fill="#fff"/></mask><g  ><path fill="#38BDF8" d="M37.6 71.1L37.6 71.1Q36.4 71.1 35.5 70.6Q34.6 70.1 34.1 69.1Q33.6 68.1 33.6 66.6L33.6 66.6Q33.6 65.2 34.1 64.2Q34.6 63.2 35.5 62.7Q36.5 62.2 37.6 62.2L37.6 62.2Q38.3 62.2 39.0 62.4Q39.6 62.6 40.1 63.0Q40.6 63.4 40.9 63.9Q41.3 64.5 41.4 65.3L41.4 65.3L39.6 65.3Q39.5 64.9 39.3 64.6Q39.2 64.3 38.9 64.1Q38.7 63.9 38.3 63.8Q38.0 63.7 37.6 63.7L37.6 63.7Q37.0 63.7 36.4 64.1Q35.9 64.4 35.7 65.1Q35.4 65.7 35.4 66.6L35.4 66.6Q35.4 67.6 35.7 68.2Q35.9 68.9 36.5 69.2Q37.0 69.5 37.6 69.5L37.6 69.5Q38.0 69.5 38.3 69.4Q38.6 69.3 38.9 69.1Q39.2 68.9 39.3 68.7Q39.5 68.4 39.6 68.0L39.6 68.0L41.4 68.0Q41.3 68.6 41.0 69.2Q40.7 69.7 40.2 70.2Q39.8 70.6 39.1 70.9Q38.4 71.1 37.6 71.1ZM48.3 71.1L48.3 71.1Q47.2 71.1 46.4 70.7Q45.6 70.3 45.1 69.6Q44.7 68.9 44.7 67.9L44.7 67.9L44.7 62.3L46.5 62.3L46.5 67.8Q46.5 68.3 46.7 68.7Q46.9 69.1 47.3 69.3Q47.7 69.5 48.3 69.5L48.3 69.5Q48.8 69.5 49.2 69.3Q49.6 69.1 49.9 68.7Q50.1 68.3 50.1 67.8L50.1 67.8L50.1 62.3L51.9 62.3L51.9 67.9Q51.9 68.9 51.4 69.6Q51.0 70.3 50.2 70.7Q49.3 71.1 48.3 71.1ZM57.2 71L55.5 71L55.5 62.3L58.9 62.3Q59.9 62.3 60.5 62.6Q61.2 63.0 61.6 63.6Q62.0 64.3 62.0 65.1Q62.0 66.0 61.6 66.6Q61.2 67.2 60.5 67.5L60.5 67.5Q60.5 67.6 60.4 67.6L60.4 67.6L62.3 71L60.3 71L58.6 67.9L57.2 67.9L57.2 71ZM57.2 63.7L57.2 66.4L58.5 66.4Q59.1 66.4 59.4 66.3Q59.8 66.1 60.0 65.8Q60.1 65.5 60.1 65.1L60.1 65.1Q60.1 64.7 60.0 64.4Q59.8 64.1 59.4 63.9Q59.1 63.7 58.5 63.7L58.5 63.7L57.2 63.7ZM67.1 71L65.3 71L65.3 62.3L68.7 62.3Q69.7 62.3 70.4 62.6Q71.1 63.0 71.5 63.6Q71.9 64.3 71.9 65.1Q71.9 66.0 71.5 66.6Q71.1 67.2 70.4 67.5L70.4 67.5Q70.4 67.6 70.3 67.6L70.3 67.6L72.2 71L70.2 71L68.5 67.9L67.1 67.9L67.1 71ZM67.1 63.7L67.1 66.4L68.4 66.4Q69.0 66.4 69.3 66.3Q69.7 66.1 69.8 65.8Q70.0 65.5 70.0 65.1L70.0 65.1Q70.0 64.7 69.8 64.4Q69.7 64.1 69.3 63.9Q69.0 63.7 68.4 63.7L68.4 63.7L67.1 63.7ZM81.1 71L75.2 71L75.2 62.3L81.1 62.3L81.1 63.8L77 63.8L77 65.9L80.8 65.9L80.8 67.3L77 67.3L77 69.5L81.1 69.5L81.1 71ZM86.3 71L84.5 71L84.5 62.3L86.5 62.3L89.3 66.7Q89.5 67.0 89.7 67.4Q89.9 67.8 90.1 68.3L90.1 68.3Q90.2 68.6 90.3 68.8L90.3 68.8Q90.3 68.6 90.3 68.4L90.3 68.4Q90.3 67.8 90.3 67.3Q90.2 66.8 90.2 66.5L90.2 66.5L90.2 62.3L92.1 62.3L92.1 71L90.1 71L87.6 67.0Q87.3 66.5 87.1 66.1Q86.8 65.7 86.6 65.2L86.6 65.2Q86.4 64.9 86.2 64.5L86.2 64.5Q86.2 64.8 86.3 65.2L86.3 65.2Q86.3 65.7 86.3 66.2Q86.3 66.7 86.3 67.0L86.3 67.0L86.3 71ZM98.0 63.8L95.3 63.8L95.3 62.3L102.4 62.3L102.4 63.8L99.8 63.8L99.8 71L98.0 71L98.0 63.8Z M112.3 71L110.5 71L110.5 62.3L116.2 62.3L116.2 63.8L112.3 63.8L112.3 66.2L115.9 66.2L115.9 67.6L112.3 67.6L112.3 71ZM123.4 71.1L123.4 71.1Q122.2 71.1 121.3 70.6Q120.4 70.1 119.8 69.1Q119.3 68.1 119.3 66.6L119.3 66.6Q119.3 65.2 119.8 64.2Q120.4 63.2 121.3 62.7Q122.2 62.2 123.4 62.2L123.4 62.2Q124.5 62.2 125.5 62.7Q126.4 63.2 126.9 64.2Q127.4 65.2 127.4 66.6L127.4 66.6Q127.4 68.1 126.9 69.1Q126.4 70.1 125.5 70.6Q124.5 71.1 123.4 71.1ZM123.4 69.5L123.4 69.5Q124.1 69.5 124.6 69.2Q125.1 68.9 125.3 68.2Q125.6 67.6 125.6 66.6L125.6 66.6Q125.6 65.7 125.3 65.0Q125.1 64.4 124.6 64.1Q124.1 63.7 123.4 63.7L123.4 63.7Q122.7 63.7 122.2 64.1Q121.7 64.4 121.4 65.1Q121.1 65.7 121.1 66.6L121.1 66.6Q121.1 67.6 121.4 68.2Q121.7 68.9 122.2 69.2Q122.7 69.5 123.4 69.5ZM134.6 71.1L134.6 71.1Q133.4 71.1 132.5 70.6Q131.6 70.1 131.1 69.1Q130.5 68.1 130.5 66.6L130.5 66.6Q130.5 65.2 131.1 64.2Q131.6 63.2 132.5 62.7Q133.5 62.2 134.6 62.2L134.6 62.2Q135.3 62.2 136.0 62.4Q136.6 62.6 137.1 63.0Q137.6 63.4 137.9 63.9Q138.3 64.5 138.4 65.3L138.4 65.3L136.5 65.3Q136.5 64.9 136.3 64.6Q136.2 64.3 135.9 64.1Q135.7 63.9 135.3 63.8Q135.0 63.7 134.6 63.7L134.6 63.7Q134.0 63.7 133.4 64.1Q132.9 64.4 132.6 65.1Q132.4 65.7 132.4 66.6L132.4 66.6Q132.4 67.6 132.7 68.2Q132.9 68.9 133.4 69.2Q134.0 69.5 134.6 69.5L134.6 69.5Q135.0 69.5 135.3 69.4Q135.6 69.3 135.9 69.1Q136.2 68.9 136.3 68.7Q136.5 68.4 136.6 68.0L136.6 68.0L138.4 68.0Q138.3 68.6 138.0 69.2Q137.7 69.7 137.2 70.2Q136.8 70.6 136.1 70.9Q135.4 71.1 134.6 71.1ZM145.3 71.1L145.3 71.1Q144.2 71.1 143.4 70.7Q142.6 70.3 142.1 69.6Q141.7 68.9 141.7 67.9L141.7 67.9L141.7 62.3L143.5 62.3L143.5 67.8Q143.5 68.3 143.7 68.7Q143.9 69.1 144.3 69.3Q144.7 69.5 145.3 69.5L145.3 69.5Q145.8 69.5 146.2 69.3Q146.6 69.1 146.9 68.7Q147.1 68.3 147.1 67.8L147.1 67.8L147.1 62.3L148.9 62.3L148.9 67.9Q148.9 68.9 148.4 69.6Q148.0 70.3 147.2 70.7Q146.3 71.1 145.3 71.1ZM155.6 71.1L155.6 71.1Q154.6 71.1 153.8 70.8Q153.0 70.5 152.6 69.9Q152.2 69.2 152.2 68.3L152.2 68.3L153.9 68.3Q153.9 68.7 154.2 69.0Q154.4 69.3 154.8 69.5Q155.2 69.6 155.6 69.6L155.6 69.6Q156.1 69.6 156.5 69.5Q156.8 69.3 157.0 69.1Q157.2 68.8 157.2 68.5L157.2 68.5Q157.2 68.2 157.0 68.0Q156.9 67.8 156.5 67.7Q156.2 67.5 155.7 67.4L155.7 67.4L154.8 67.2Q153.6 66.9 153.0 66.3Q152.4 65.7 152.4 64.8L152.4 64.8Q152.4 64.0 152.8 63.4Q153.2 62.8 154.0 62.5Q154.7 62.2 155.7 62.2L155.7 62.2Q156.6 62.2 157.4 62.5Q158.1 62.8 158.5 63.4Q158.9 64.0 158.9 64.8L158.9 64.8L157.2 64.8Q157.1 64.2 156.7 63.9Q156.3 63.7 155.7 63.7L155.7 63.7Q155.2 63.7 154.9 63.8Q154.6 63.9 154.4 64.1Q154.2 64.4 154.2 64.7L154.2 64.7Q154.2 65.0 154.4 65.2Q154.6 65.4 154.9 65.5Q155.3 65.7 155.6 65.8L155.6 65.8L156.4 66.0Q157.0 66.1 157.4 66.3Q157.9 66.5 158.3 66.8Q158.6 67.1 158.8 67.5Q159.0 68.0 159.0 68.5L159.0 68.5Q159.0 69.3 158.6 69.9Q158.2 70.5 157.5 70.8Q156.7 71.1 155.6 71.1Z "/></g><mask id="satori_om-id-0-1"><rect x="33" y="92" width="544" height="39" fill="#fff"/></mask><g  ><path fill="#F8FAFC" d="M43.0 122.3L43.0 122.3Q40.4 122.3 38.4 121.5Q36.5 120.7 35.4 119.1Q34.3 117.5 34.2 115.2L34.2 115.2L38.6 115.2Q38.7 116.3 39.3 117.1Q39.8 117.8 40.8 118.2Q41.7 118.5 42.9 118.5L42.9 118.5Q44.1 118.5 45.0 118.2Q45.9 117.9 46.4 117.2Q46.9 116.6 46.9 115.8L46.9 115.8Q46.9 115.0 46.5 114.5Q46.0 114.0 45.2 113.6Q44.3 113.3 43.1 113.0L43.1 113.0L40.7 112.4Q38.0 111.7 36.4 110.3Q34.8 108.8 34.8 106.5L34.8 106.5Q34.8 104.5 35.9 103.0Q37.0 101.5 38.8 100.7Q40.7 99.9 43.0 99.9L43.0 99.9Q45.5 99.9 47.3 100.7Q49.1 101.5 50.1 103.0Q51.1 104.5 51.1 106.4L51.1 106.4L46.8 106.4Q46.7 105.1 45.7 104.4Q44.7 103.6 43.0 103.6L43.0 103.6Q41.9 103.6 41.1 104.0Q40.3 104.3 39.8 104.9Q39.4 105.4 39.4 106.2L39.4 106.2Q39.4 107.0 39.9 107.5Q40.4 108.0 41.2 108.4Q42.0 108.7 42.9 108.9L42.9 108.9L44.9 109.4Q46.3 109.7 47.4 110.2Q48.6 110.8 49.5 111.5Q50.4 112.3 50.9 113.4Q51.4 114.4 51.4 115.8L51.4 115.8Q51.4 117.8 50.4 119.2Q49.4 120.7 47.5 121.5Q45.6 122.3 43.0 122.3ZM54.4 127.8L54.4 127.8L55.4 124.5L56.0 124.6Q56.8 124.9 57.5 124.8Q58.2 124.7 58.6 124.2Q59.0 123.7 59.1 122.9L59.1 122.9L59.3 122.0L53.1 105.6L57.8 105.6L60.5 114.1Q61.0 115.7 61.3 117.3L61.3 117.3Q61.4 117.9 61.6 118.4L61.6 118.4Q61.7 117.9 61.8 117.3L61.8 117.3Q62.2 115.7 62.8 114.1L62.8 114.1L65.6 105.6L70.2 105.6L63.3 123.9Q62.8 125.3 62.0 126.2Q61.2 127.2 60.1 127.7Q58.9 128.2 57.3 128.2L57.3 128.2Q56.4 128.2 55.6 128.1Q54.9 128.0 54.4 127.8ZM79.1 122.3L79.1 122.3Q77.1 122.3 75.6 121.8Q74.1 121.2 73.1 120.1Q72.1 119.0 71.8 117.5L71.8 117.5L75.9 116.8Q76.3 118.0 77.1 118.5Q77.9 119.1 79.2 119.1L79.2 119.1Q80.5 119.1 81.2 118.6Q81.9 118.1 81.9 117.4L81.9 117.4Q81.9 116.8 81.4 116.4Q80.9 116.0 79.8 115.7L79.8 115.7L77.0 115.1Q74.6 114.7 73.4 113.5Q72.3 112.3 72.3 110.5L72.3 110.5Q72.3 108.9 73.1 107.8Q74.0 106.6 75.5 106.0Q77.1 105.4 79.2 105.4L79.2 105.4Q81.1 105.4 82.5 106.0Q83.9 106.5 84.8 107.5Q85.7 108.5 86.0 109.8L86.0 109.8L82.1 110.5Q81.8 109.6 81.1 109.1Q80.4 108.6 79.2 108.6L79.2 108.6Q78.1 108.6 77.4 109.0Q76.7 109.5 76.7 110.2L76.7 110.2Q76.7 110.9 77.1 111.3Q77.6 111.7 78.8 111.9L78.8 111.9L81.7 112.5Q84.1 113.0 85.3 114.1Q86.4 115.2 86.4 116.9L86.4 116.9Q86.4 118.6 85.5 119.8Q84.5 121.0 82.9 121.6Q81.2 122.3 79.1 122.3ZM94.5 105.6L97.5 105.6L97.5 109.0L94.5 109.0L94.5 117.2Q94.5 118.0 94.8 118.4Q95.1 118.7 95.9 118.7L95.9 118.7Q96.2 118.7 96.6 118.7Q97.1 118.6 97.3 118.5L97.3 118.5L98.0 121.8Q97.2 122.1 96.5 122.1Q95.8 122.2 95.1 122.2L95.1 122.2Q92.7 122.2 91.4 121.0Q90.1 119.8 90.1 117.6L90.1 117.6L90.1 109.0L87.8 109.0L87.8 105.6L90.1 105.6L90.1 101.7L94.5 101.7L94.5 105.6ZM107.8 122.3L107.8 122.3Q105.3 122.3 103.4 121.3Q101.6 120.3 100.7 118.4Q99.7 116.5 99.7 113.9L99.7 113.9Q99.7 111.4 100.6 109.5Q101.6 107.6 103.4 106.5Q105.2 105.4 107.5 105.4L107.5 105.4Q109.2 105.4 110.5 105.9Q111.9 106.4 113.0 107.5Q114.0 108.5 114.6 110.1Q115.2 111.6 115.2 113.7L115.2 113.7L115.2 115.0L104.0 115.0Q104.1 116.2 104.5 117.1L104.5 117.1Q105.0 118.0 105.8 118.5Q106.7 119.0 107.8 119.0L107.8 119.0Q108.6 119.0 109.2 118.8Q109.9 118.6 110.3 118.1Q110.8 117.7 111.0 117.1L111.0 117.1L115.0 117.8Q114.6 119.2 113.6 120.2Q112.6 121.2 111.2 121.8Q109.7 122.3 107.8 122.3ZM104.1 112.2L104.1 112.2L111.0 112.2Q110.9 111.4 110.7 110.7L110.7 110.7Q110.3 109.8 109.5 109.2Q108.7 108.7 107.6 108.7L107.6 108.7Q106.4 108.7 105.6 109.3Q104.9 109.8 104.4 110.7L104.4 110.7Q104.1 111.4 104.1 112.2ZM122.6 122L118.2 122L118.2 105.6L122.3 105.6L122.5 108.8Q122.8 107.9 123.3 107.2L123.3 107.2Q124.1 106.3 125.1 105.8Q126.1 105.4 127.2 105.4L127.2 105.4Q128.9 105.4 130.0 106.5L130.0 106.5Q130.9 107.4 131.4 109.0L131.4 109.0Q131.7 108.1 132.3 107.4L132.3 107.4Q133.1 106.4 134.3 105.9Q135.4 105.4 136.6 105.4L136.6 105.4Q138.1 105.4 139.3 106.0Q140.5 106.7 141.2 107.9Q141.9 109.2 141.9 111.0L141.9 111.0L141.9 122L137.5 122L137.5 111.8Q137.5 110.4 136.7 109.7Q136.0 109.1 134.9 109.1L134.9 109.1Q134.0 109.1 133.4 109.4Q132.8 109.8 132.5 110.4Q132.2 111.1 132.2 111.9L132.2 111.9L132.2 122L127.9 122L127.9 111.7Q127.9 110.5 127.2 109.8Q126.5 109.1 125.4 109.1L125.4 109.1Q124.6 109.1 124.0 109.4Q123.4 109.8 123.0 110.4Q122.6 111.1 122.6 112.1L122.6 112.1L122.6 122ZM152.1 122.3L152.1 122.3Q150.1 122.3 148.6 121.8Q147.1 121.2 146.1 120.1Q145.2 119.0 144.9 117.5L144.9 117.5L149.0 116.8Q149.3 118.0 150.1 118.5Q150.9 119.1 152.3 119.1L152.3 119.1Q153.5 119.1 154.2 118.6Q155.0 118.1 155.0 117.4L155.0 117.4Q155.0 116.8 154.4 116.4Q153.9 116.0 152.9 115.7L152.9 115.7L150.0 115.1Q147.7 114.7 146.5 113.5Q145.3 112.3 145.3 110.5L145.3 110.5Q145.3 108.9 146.2 107.8Q147.0 106.6 148.6 106.0Q150.1 105.4 152.2 105.4L152.2 105.4Q154.1 105.4 155.5 106.0Q157.0 106.5 157.8 107.5Q158.7 108.5 159.0 109.8L159.0 109.8L155.1 110.5Q154.9 109.6 154.2 109.1Q153.5 108.6 152.3 108.6L152.3 108.6Q151.2 108.6 150.4 109.0Q149.7 109.5 149.7 110.2L149.7 110.2Q149.7 110.9 150.2 111.3Q150.7 111.7 151.8 111.9L151.8 111.9L154.8 112.5Q157.1 113.0 158.3 114.1Q159.4 115.2 159.4 116.9L159.4 116.9Q159.4 118.6 158.5 119.8Q157.6 121.0 155.9 121.6Q154.3 122.3 152.1 122.3Z M174.8 118.0L174.8 118.0Q173.5 118.0 172.4 117.4Q171.3 116.7 170.7 115.7Q170.1 114.6 170.1 113.3L170.1 113.3Q170.1 112.0 170.7 110.9Q171.3 109.9 172.4 109.2Q173.5 108.6 174.8 108.6L174.8 108.6Q176.1 108.6 177.1 109.2Q178.2 109.9 178.8 110.9Q179.4 112.0 179.4 113.3L179.4 113.3Q179.4 114.6 178.8 115.7Q178.2 116.7 177.1 117.4Q176.1 118.0 174.8 118.0Z M200.7 122L195.6 122L189.7 100.2L194.6 100.2L197.1 110.9Q197.4 112.3 197.7 113.8Q197.9 115.3 198.2 116.9L198.2 116.9Q198.2 117.2 198.3 117.5L198.3 117.5Q198.3 117.2 198.4 116.9L198.4 116.9Q198.7 115.3 198.9 113.8Q199.2 112.3 199.6 110.9L199.6 110.9L202.2 100.2L206.9 100.2L209.5 110.9Q209.9 112.3 210.1 113.8Q210.4 115.3 210.7 116.9L210.7 116.9Q210.7 117.2 210.8 117.5L210.8 117.5Q210.8 117.2 210.9 116.9L210.9 116.9Q211.1 115.3 211.4 113.8Q211.7 112.3 212.0 110.9L212.0 110.9L214.5 100.2L219.4 100.2L213.5 122L208.4 122L205.5 110.8Q205.0 109.0 204.7 106.8L204.7 106.8Q204.6 106.2 204.5 105.5L204.5 105.5Q204.4 106.1 204.4 106.7L204.4 106.7Q204.1 108.9 203.6 110.8L203.6 110.8L200.7 122ZM229.4 122.3L229.4 122.3Q226.9 122.3 225.1 121.3Q223.2 120.3 222.3 118.4Q221.3 116.5 221.3 113.9L221.3 113.9Q221.3 111.4 222.3 109.5Q223.2 107.6 225.0 106.5Q226.8 105.4 229.2 105.4L229.2 105.4Q230.8 105.4 232.2 105.9Q233.6 106.4 234.6 107.5Q235.7 108.5 236.3 110.1Q236.8 111.6 236.8 113.7L236.8 113.7L236.8 115.0L225.6 115.0Q225.7 116.2 226.1 117.1L226.1 117.1Q226.6 118.0 227.5 118.5Q228.3 119.0 229.5 119.0L229.5 119.0Q230.2 119.0 230.9 118.8Q231.5 118.6 231.9 118.1Q232.4 117.7 232.6 117.1L232.6 117.1L236.6 117.8Q236.2 119.2 235.2 120.2Q234.2 121.2 232.8 121.8Q231.3 122.3 229.4 122.3ZM225.7 112.2L225.7 112.2L232.6 112.2Q232.5 111.4 232.3 110.7L232.3 110.7Q231.9 109.8 231.1 109.2Q230.3 108.7 229.2 108.7L229.2 108.7Q228.1 108.7 227.3 109.3Q226.5 109.8 226.1 110.7L226.1 110.7Q225.7 111.4 225.7 112.2ZM249.0 122.3L249.0 122.3Q247.7 122.3 246.8 121.8Q245.8 121.4 245.3 120.7Q244.7 120.0 244.4 119.4L244.4 119.4L244.2 119.4L244.2 122L239.9 122L239.9 100.2L244.2 100.2L244.2 108.4L244.4 108.4Q244.7 107.7 245.2 107.0Q245.8 106.4 246.7 105.9Q247.7 105.4 249.0 105.4L249.0 105.4Q250.9 105.4 252.4 106.4Q253.9 107.3 254.8 109.2Q255.7 111.0 255.7 113.8L255.7 113.8Q255.7 116.6 254.8 118.4Q253.9 120.3 252.4 121.3Q250.9 122.3 249.0 122.3ZM247.7 118.7L247.7 118.7Q248.8 118.7 249.6 118.1Q250.4 117.5 250.8 116.4Q251.2 115.3 251.2 113.8L251.2 113.8Q251.2 112.4 250.8 111.3Q250.4 110.2 249.6 109.6Q248.8 108.9 247.7 108.9L247.7 108.9Q246.5 108.9 245.8 109.5Q245.0 110.1 244.6 111.2Q244.1 112.3 244.1 113.8L244.1 113.8Q244.1 115.3 244.6 116.4Q245.0 117.5 245.8 118.1Q246.6 118.7 247.7 118.7ZM266.5 122.3L266.5 122.3Q264.2 122.3 262.3 121.5Q260.5 120.7 259.4 119.2Q258.4 117.8 258.3 115.9L258.3 115.9L262.8 115.9Q262.9 116.7 263.4 117.3Q263.9 117.9 264.7 118.3Q265.5 118.6 266.6 118.6L266.6 118.6Q267.6 118.6 268.5 118.2Q269.3 117.8 269.7 117.2Q270.2 116.5 270.2 115.6L270.2 115.6Q270.2 114.7 269.7 114.0Q269.2 113.3 268.3 112.9Q267.4 112.5 266.1 112.5L266.1 112.5L264.1 112.5L264.1 109.2L266.1 109.2Q267.2 109.2 268.0 108.8Q268.8 108.5 269.3 107.8Q269.7 107.2 269.7 106.3L269.7 106.3Q269.7 105.4 269.4 104.8Q269.0 104.2 268.2 103.8Q267.5 103.5 266.6 103.5L266.6 103.5Q265.6 103.5 264.8 103.8Q264.0 104.1 263.6 104.8Q263.1 105.4 263.1 106.2L263.1 106.2L258.8 106.2Q258.8 104.4 259.8 102.9Q260.9 101.5 262.6 100.7Q264.4 99.9 266.6 99.9L266.6 99.9Q268.9 99.9 270.5 100.7Q272.2 101.5 273.2 102.9Q274.1 104.3 274.1 106.0L274.1 106.0Q274.1 107.8 272.9 109.1Q271.8 110.3 270.0 110.6L270.0 110.6L270.0 110.8Q271.6 111.0 272.7 111.7Q273.8 112.4 274.3 113.5Q274.9 114.5 274.9 115.9L274.9 115.9Q274.9 117.7 273.8 119.2Q272.7 120.6 270.9 121.5Q269.0 122.3 266.5 122.3Z M290.5 118.0L290.5 118.0Q289.2 118.0 288.1 117.4Q287.0 116.7 286.4 115.7Q285.8 114.6 285.8 113.3L285.8 113.3Q285.8 112.0 286.4 110.9Q287.0 109.9 288.1 109.2Q289.2 108.6 290.5 108.6L290.5 108.6Q291.8 108.6 292.8 109.2Q293.9 109.9 294.5 110.9Q295.1 112.0 295.1 113.3L295.1 113.3Q295.1 114.6 294.5 115.7Q293.9 116.7 292.8 117.4Q291.8 118.0 290.5 118.0Z M316.2 122.3L316.2 122.3Q313.4 122.3 311.0 121.0Q308.7 119.7 307.4 117.2Q306.1 114.6 306.1 111.1L306.1 111.1Q306.1 107.5 307.4 105.0Q308.7 102.5 311.0 101.2Q313.4 99.9 316.2 99.9L316.2 99.9Q319.1 99.9 321.4 101.2Q323.7 102.5 325.1 105.0Q326.4 107.5 326.4 111.1L326.4 111.1Q326.4 114.6 325.1 117.2L325.1 117.2Q324.2 118.7 323.0 119.8L323.0 119.8L326.2 123.8L322.0 123.8L320.2 121.6Q318.4 122.3 316.2 122.3ZM317.6 118.2L314.9 114.5L318.7 114.5L320.3 116.5Q320.8 115.9 321.2 115.0L321.2 115.0Q321.9 113.4 321.9 111.1L321.9 111.1Q321.9 108.7 321.2 107.1Q320.5 105.5 319.2 104.7Q317.9 103.9 316.2 103.9L316.2 103.9Q314.6 103.9 313.3 104.7Q312.0 105.5 311.3 107.1Q310.6 108.8 310.6 111.1L310.6 111.1Q310.6 113.4 311.3 115.0Q312.0 116.7 313.3 117.5Q314.6 118.3 316.2 118.3L316.2 118.3Q317.0 118.3 317.6 118.2L317.6 118.2ZM335.5 122.2L335.5 122.2Q333.8 122.2 332.5 121.5Q331.3 120.7 330.6 119.3Q329.9 118.0 329.9 116.0L329.9 116.0L329.9 105.6L334.3 105.6L334.3 115.3Q334.3 116.8 335.1 117.7Q335.8 118.5 337.2 118.5L337.2 118.5Q338.2 118.5 338.9 118.1Q339.6 117.7 340.0 117.0Q340.4 116.2 340.4 115.1L340.4 115.1L340.4 105.6L344.8 105.6L344.8 122L340.6 122L340.6 118.6Q340.0 120.2 338.9 121.1L338.9 121.1Q337.5 122.2 335.5 122.2ZM353.1 122.3L353.1 122.3Q351.6 122.3 350.3 121.8Q349.1 121.2 348.4 120.1Q347.7 119.0 347.7 117.4L347.7 117.4Q347.7 116.1 348.2 115.1Q348.7 114.2 349.5 113.7Q350.4 113.1 351.5 112.8Q352.6 112.5 353.8 112.4L353.8 112.4Q355.3 112.2 356.1 112.1Q357.0 112.0 357.4 111.7Q357.8 111.5 357.8 110.9L357.8 110.9L357.8 110.9Q357.8 110.1 357.5 109.7Q357.2 109.2 356.6 108.9Q356.1 108.7 355.3 108.7L355.3 108.7Q354.4 108.7 353.8 108.9Q353.1 109.2 352.7 109.6Q352.4 110.0 352.2 110.6L352.2 110.6L348.1 109.9Q348.6 108.5 349.5 107.5Q350.5 106.5 352.0 105.9Q353.4 105.4 355.3 105.4L355.3 105.4Q356.6 105.4 357.8 105.7Q359.1 106.0 360.1 106.7Q361.1 107.4 361.6 108.4Q362.2 109.5 362.2 111.0L362.2 111.0L362.2 122L358.0 122L358.0 119.7L357.9 119.7Q357.5 120.5 356.8 121.1Q356.2 121.6 355.3 122.0Q354.3 122.3 353.1 122.3ZM354.4 119.2L354.4 119.2Q355.4 119.2 356.2 118.8Q357.0 118.4 357.4 117.7Q357.8 117.0 357.8 116.1L357.8 116.1L357.8 114.4Q357.7 114.5 357.3 114.6Q356.9 114.7 356.4 114.8Q355.9 114.9 355.4 115.0Q355.0 115.1 354.6 115.1L354.6 115.1Q353.8 115.2 353.2 115.5Q352.6 115.8 352.2 116.2Q351.9 116.6 351.9 117.3L351.9 117.3Q351.9 117.9 352.2 118.4Q352.5 118.8 353.1 119.0Q353.6 119.2 354.4 119.2ZM370.4 112.5L370.4 112.5L370.4 122L366.0 122L366.0 105.6L370.1 105.6L370.2 109.0Q370.8 107.5 371.9 106.5L371.9 106.5Q373.2 105.4 375.3 105.4L375.3 105.4Q377.0 105.4 378.2 106.2Q379.5 106.9 380.2 108.3Q380.9 109.7 380.9 111.6L380.9 111.6L380.9 122L376.5 122L376.5 112.3Q376.5 110.8 375.7 110.0Q374.9 109.1 373.5 109.1L373.5 109.1Q372.6 109.1 371.9 109.5Q371.2 109.9 370.8 110.7Q370.4 111.4 370.4 112.5ZM389.7 105.6L392.8 105.6L392.8 109.0L389.7 109.0L389.7 117.2Q389.7 118.0 390.0 118.4Q390.4 118.7 391.2 118.7L391.2 118.7Q391.4 118.7 391.9 118.7Q392.4 118.6 392.6 118.5L392.6 118.5L393.2 121.8Q392.5 122.1 391.8 122.1Q391.0 122.2 390.4 122.2L390.4 122.2Q387.9 122.2 386.6 121.0Q385.3 119.8 385.3 117.6L385.3 117.6L385.3 109.0L383.1 109.0L383.1 105.6L385.3 105.6L385.3 101.7L389.7 101.7L389.7 105.6ZM401.3 122.2L401.3 122.2Q399.6 122.2 398.3 121.5Q397.0 120.7 396.3 119.3Q395.6 118.0 395.6 116.0L395.6 116.0L395.6 105.6L400.0 105.6L400.0 115.3Q400.0 116.8 400.8 117.7Q401.6 118.5 403.0 118.5L403.0 118.5Q403.9 118.5 404.6 118.1Q405.3 117.7 405.8 117.0Q406.2 116.2 406.2 115.1L406.2 115.1L406.2 105.6L410.6 105.6L410.6 122L406.4 122L406.4 118.6Q405.7 120.2 404.6 121.1L404.6 121.1Q403.3 122.2 401.3 122.2ZM418.7 122L414.3 122L414.3 105.6L418.4 105.6L418.5 108.8Q418.9 107.9 419.4 107.2L419.4 107.2Q420.1 106.3 421.1 105.8Q422.1 105.4 423.2 105.4L423.2 105.4Q425.0 105.4 426.1 106.5L426.1 106.5Q426.9 107.4 427.4 109.0L427.4 109.0Q427.8 108.1 428.4 107.4L428.4 107.4Q429.2 106.4 430.3 105.9Q431.5 105.4 432.7 105.4L432.7 105.4Q434.2 105.4 435.4 106.0Q436.6 106.7 437.2 107.9Q437.9 109.2 437.9 111.0L437.9 111.0L437.9 122L433.5 122L433.5 111.8Q433.5 110.4 432.8 109.7Q432.0 109.1 430.9 109.1L430.9 109.1Q430.1 109.1 429.5 109.4Q428.9 109.8 428.6 110.4Q428.2 111.1 428.2 111.9L428.2 111.9L428.2 122L424.0 122L424.0 111.7Q424.0 110.5 423.3 109.8Q422.6 109.1 421.4 109.1L421.4 109.1Q420.7 109.1 420.0 109.4Q419.4 109.8 419.1 110.4Q418.7 111.1 418.7 112.1L418.7 112.1L418.7 122Z "/></g><mask id="satori_om-id-0-2"><rect x="33" y="149" width="544" height="52" fill="#fff"/></mask><g  ><path fill="#94A3B8" d="M41.0 167L34.3 167L34.3 156.1L41.0 156.1L41.0 157.3L35.7 157.3L35.7 160.9L40.6 160.9L40.6 162.1L35.7 162.1L35.7 165.8L41.0 165.8L41.0 167ZM44.0 167L42.5 167L45.4 162.8L42.7 158.8L44.2 158.8L45.2 160.4Q45.6 161.0 45.9 161.6L45.9 161.6Q46.0 161.8 46.2 162.0L46.2 162.0Q46.3 161.8 46.4 161.6L46.4 161.6Q46.6 161.0 47.0 160.4L47.0 160.4L48.1 158.8L49.6 158.8L46.9 162.9L49.7 167L48.2 167L47.0 165.2Q46.6 164.6 46.3 164.0L46.3 164.0Q46.2 163.8 46.1 163.6L46.1 163.6Q46.0 163.8 45.9 164.0L45.9 164.0Q45.6 164.6 45.2 165.2L45.2 165.2L44.0 167ZM52.7 170.1L51.4 170.1L51.4 158.8L52.6 158.8L52.6 160.1L52.8 160.1Q52.9 159.9 53.2 159.6Q53.4 159.2 53.9 159.0Q54.4 158.7 55.2 158.7L55.2 158.7Q56.2 158.7 57.0 159.2Q57.7 159.7 58.2 160.7Q58.6 161.6 58.6 162.9L58.6 162.9Q58.6 164.2 58.2 165.2Q57.7 166.1 57.0 166.7Q56.2 167.2 55.2 167.2L55.2 167.2Q54.4 167.2 53.9 166.9Q53.4 166.6 53.2 166.3Q52.9 166.0 52.8 165.7L52.8 165.7L52.7 165.7L52.7 170.1ZM55.0 166.0L55.0 166.0Q55.7 166.0 56.3 165.6Q56.8 165.2 57.0 164.5Q57.3 163.8 57.3 162.9L57.3 162.9Q57.3 162.1 57.0 161.4Q56.8 160.7 56.3 160.3Q55.7 159.9 55.0 159.9L55.0 159.9Q54.2 159.9 53.7 160.3Q53.2 160.6 52.9 161.3Q52.7 162.0 52.7 162.9L52.7 162.9Q52.7 163.8 52.9 164.5Q53.2 165.2 53.7 165.6Q54.2 166.0 55.0 166.0ZM60.5 156.1L61.9 156.1L61.9 167L60.5 167L60.5 156.1ZM67.5 167.2L67.5 167.2Q66.4 167.2 65.6 166.6Q64.7 166.1 64.3 165.2Q63.8 164.2 63.8 163.0L63.8 163.0Q63.8 161.7 64.3 160.7Q64.7 159.8 65.6 159.2Q66.4 158.7 67.5 158.7L67.5 158.7Q68.6 158.7 69.5 159.2Q70.3 159.8 70.8 160.7Q71.3 161.7 71.3 163.0L71.3 163.0Q71.3 164.2 70.8 165.2Q70.3 166.1 69.5 166.6Q68.6 167.2 67.5 167.2ZM67.5 166.0L67.5 166.0Q68.3 166.0 68.9 165.6Q69.4 165.1 69.7 164.5Q69.9 163.8 69.9 163.0L69.9 163.0Q69.9 162.1 69.7 161.4Q69.4 160.7 68.9 160.3Q68.3 159.9 67.5 159.9L67.5 159.9Q66.7 159.9 66.2 160.3Q65.6 160.7 65.4 161.4Q65.1 162.1 65.1 163.0L65.1 163.0Q65.1 163.8 65.4 164.5Q65.6 165.1 66.2 165.6Q66.7 166.0 67.5 166.0ZM74.5 167L73.2 167L73.2 158.8L74.4 158.8L74.4 160.1L74.5 160.1Q74.8 159.4 75.3 159.1Q75.9 158.7 76.7 158.7L76.7 158.7Q76.8 158.7 77.0 158.7Q77.2 158.7 77.3 158.7L77.3 158.7L77.3 160.0Q77.3 160.0 77.0 160.0Q76.8 160.0 76.5 160.0L76.5 160.0Q75.9 160.0 75.5 160.2Q75.0 160.5 74.8 160.9Q74.5 161.3 74.5 161.9L74.5 161.9L74.5 167ZM80.1 167L78.8 167L78.8 158.8L80.1 158.8L80.1 167ZM79.5 157.5L79.5 157.5Q79.1 157.5 78.8 157.2Q78.6 157.0 78.6 156.6L78.6 156.6Q78.6 156.2 78.8 156.0Q79.1 155.7 79.5 155.7L79.5 155.7Q79.9 155.7 80.1 156.0Q80.4 156.2 80.4 156.6L80.4 156.6Q80.4 157.0 80.1 157.2Q79.9 157.5 79.5 157.5ZM83.8 162.1L83.8 162.1L83.8 167L82.5 167L82.5 158.8L83.7 158.8L83.7 160.3Q84.1 159.6 84.6 159.2L84.6 159.2Q85.3 158.7 86.2 158.7L86.2 158.7Q87.1 158.7 87.7 159.0Q88.3 159.4 88.7 160.1Q89.0 160.8 89.0 161.8L89.0 161.8L89.0 167L87.7 167L87.7 161.9Q87.7 161.0 87.2 160.4Q86.7 159.9 85.8 159.9L85.8 159.9Q85.3 159.9 84.8 160.2Q84.3 160.4 84.0 160.9Q83.8 161.4 83.8 162.1ZM94.6 170.2L94.6 170.2Q93.7 170.2 93.1 170.0Q92.4 169.8 92.0 169.4Q91.5 169.0 91.3 168.6L91.3 168.6L92.3 167.9Q92.5 168.1 92.8 168.4Q93.0 168.7 93.5 168.9Q93.9 169.1 94.6 169.1L94.6 169.1Q95.6 169.1 96.2 168.6Q96.9 168.1 96.9 167.1L96.9 167.1L96.9 165.5L96.8 165.5Q96.6 165.7 96.4 166.1Q96.1 166.4 95.6 166.6Q95.2 166.9 94.4 166.9L94.4 166.9Q93.4 166.9 92.6 166.4Q91.8 165.9 91.4 165.0Q90.9 164.2 90.9 162.9L90.9 162.9Q90.9 161.6 91.4 160.7Q91.8 159.7 92.6 159.2Q93.4 158.7 94.4 158.7L94.4 158.7Q95.2 158.7 95.7 159.0Q96.1 159.2 96.4 159.6Q96.7 159.9 96.8 160.1L96.8 160.1L96.9 160.1L96.9 158.8L98.2 158.8L98.2 167.2Q98.2 168.3 97.7 168.9Q97.2 169.6 96.4 169.9Q95.6 170.2 94.6 170.2ZM94.6 165.7L94.6 165.7Q95.3 165.7 95.9 165.4Q96.4 165.0 96.6 164.4Q96.9 163.7 96.9 162.8L96.9 162.8Q96.9 162.0 96.6 161.3Q96.4 160.6 95.9 160.3Q95.4 159.9 94.6 159.9L94.6 159.9Q93.8 159.9 93.3 160.3Q92.8 160.7 92.5 161.4Q92.3 162.0 92.3 162.8L92.3 162.8Q92.3 163.7 92.5 164.3Q92.8 165.0 93.3 165.3Q93.8 165.7 94.6 165.7Z M108.2 167.2L108.2 167.2Q107.2 167.2 106.4 166.7Q105.6 166.1 105.2 165.2Q104.8 164.2 104.8 162.9L104.8 162.9Q104.8 161.6 105.2 160.7Q105.6 159.7 106.4 159.2Q107.2 158.7 108.2 158.7L108.2 158.7Q109.0 158.7 109.5 159.0Q110.0 159.2 110.2 159.6Q110.5 159.9 110.6 160.1L110.6 160.1L110.7 160.1L110.7 156.1L112.0 156.1L112.0 167L110.8 167L110.8 165.7L110.6 165.7Q110.5 166.0 110.2 166.3Q110.0 166.6 109.5 166.9Q109.0 167.2 108.2 167.2ZM108.4 166.0L108.4 166.0Q109.2 166.0 109.7 165.6Q110.2 165.2 110.5 164.5Q110.7 163.8 110.7 162.9L110.7 162.9Q110.7 162.0 110.5 161.3Q110.2 160.6 109.7 160.3Q109.2 159.9 108.4 159.9L108.4 159.9Q107.6 159.9 107.1 160.3Q106.6 160.7 106.4 161.4Q106.1 162.1 106.1 162.9L106.1 162.9Q106.1 163.8 106.4 164.5Q106.6 165.2 107.1 165.6Q107.7 166.0 108.4 166.0ZM115.7 167L114.3 167L114.3 158.8L115.7 158.8L115.7 167ZM115.0 157.5L115.0 157.5Q114.6 157.5 114.4 157.2Q114.1 157.0 114.1 156.6L114.1 156.6Q114.1 156.2 114.4 156.0Q114.6 155.7 115.0 155.7L115.0 155.7Q115.4 155.7 115.7 156.0Q115.9 156.2 115.9 156.6L115.9 156.6Q115.9 157.0 115.7 157.2Q115.4 157.5 115.0 157.5ZM120.8 167.2L120.8 167.2Q119.9 167.2 119.3 166.9Q118.6 166.7 118.2 166.2Q117.8 165.7 117.6 165.0L117.6 165.0L118.9 164.7Q119.0 165.4 119.5 165.7Q120.0 166.0 120.7 166.0L120.7 166.0Q121.6 166.0 122.1 165.7Q122.6 165.3 122.6 164.8L122.6 164.8Q122.6 164.4 122.3 164.1Q122.0 163.8 121.4 163.7L121.4 163.7L120.1 163.3Q118.9 163.1 118.4 162.5Q117.9 162.0 117.9 161.1L117.9 161.1Q117.9 160.4 118.3 159.9Q118.6 159.3 119.3 159.0Q120.0 158.7 120.9 158.7L120.9 158.7Q121.7 158.7 122.3 159.0Q122.9 159.2 123.3 159.7Q123.7 160.1 123.8 160.7L123.8 160.7L122.6 161.0Q122.5 160.5 122.1 160.2Q121.7 159.8 120.9 159.8L120.9 159.8Q120.2 159.8 119.7 160.2Q119.2 160.5 119.2 161.0L119.2 161.0Q119.2 161.5 119.5 161.7Q119.8 162.0 120.6 162.2L120.6 162.2L121.8 162.5Q122.9 162.7 123.5 163.3Q124.0 163.9 124.0 164.7L124.0 164.7Q124.0 165.4 123.6 166.0Q123.2 166.5 122.4 166.9Q121.7 167.2 120.8 167.2ZM127.4 158.8L129.1 158.8L129.1 159.9L127.4 159.9L127.4 164.9Q127.4 165.4 127.7 165.7Q127.9 165.9 128.4 165.9L128.4 165.9Q128.5 165.9 128.7 165.9Q128.9 165.9 129.1 165.8L129.1 165.8L129.3 167.0Q129.1 167.0 128.9 167.1Q128.6 167.1 128.4 167.1L128.4 167.1Q127.3 167.1 126.7 166.5Q126.1 166.0 126.1 165.0L126.1 165.0L126.1 159.9L124.9 159.9L124.9 158.8L126.1 158.8L126.1 156.9L127.4 156.9L127.4 158.8ZM132.1 167L130.8 167L130.8 158.8L132.1 158.8L132.1 160.1L132.2 160.1Q132.4 159.4 133.0 159.1Q133.6 158.7 134.3 158.7L134.3 158.7Q134.4 158.7 134.6 158.7Q134.8 158.7 135.0 158.7L135.0 158.7L135.0 160.0Q134.9 160.0 134.7 160.0Q134.4 160.0 134.2 160.0L134.2 160.0Q133.6 160.0 133.1 160.2Q132.6 160.5 132.4 160.9Q132.1 161.3 132.1 161.9L132.1 161.9L132.1 167ZM137.8 167L136.4 167L136.4 158.8L137.8 158.8L137.8 167ZM137.1 157.5L137.1 157.5Q136.7 157.5 136.5 157.2Q136.2 157.0 136.2 156.6L136.2 156.6Q136.2 156.2 136.5 156.0Q136.7 155.7 137.1 155.7L137.1 155.7Q137.5 155.7 137.8 156.0Q138.0 156.2 138.0 156.6L138.0 156.6Q138.0 157.0 137.8 157.2Q137.5 157.5 137.1 157.5ZM143.9 167.2L143.9 167.2Q143.1 167.2 142.6 166.9Q142.2 166.6 141.9 166.3Q141.6 166.0 141.5 165.7L141.5 165.7L141.4 165.7L141.4 167L140.1 167L140.1 156.1L141.4 156.1L141.4 160.1L141.5 160.1Q141.6 159.9 141.9 159.6Q142.1 159.2 142.6 159.0Q143.1 158.7 143.9 158.7L143.9 158.7Q144.9 158.7 145.7 159.2Q146.5 159.7 146.9 160.7Q147.3 161.6 147.3 162.9L147.3 162.9Q147.3 164.2 146.9 165.2Q146.5 166.1 145.7 166.7Q144.9 167.2 143.9 167.2ZM143.7 166.0L143.7 166.0Q144.5 166.0 145.0 165.6Q145.5 165.2 145.7 164.5Q146.0 163.8 146.0 162.9L146.0 162.9Q146.0 162.1 145.7 161.4Q145.5 160.7 145.0 160.3Q144.5 159.9 143.7 159.9L143.7 159.9Q142.9 159.9 142.4 160.3Q141.9 160.6 141.6 161.3Q141.4 162.0 141.4 162.9L141.4 162.9Q141.4 163.8 141.6 164.5Q141.9 165.2 142.4 165.6Q142.9 166.0 143.7 166.0ZM152.0 167.1L152.0 167.1Q151.2 167.1 150.6 166.8Q150.0 166.4 149.6 165.7Q149.3 165.0 149.3 164.0L149.3 164.0L149.3 158.8L150.6 158.8L150.6 163.9Q150.6 164.8 151.1 165.4Q151.6 165.9 152.4 165.9L152.4 165.9Q153.0 165.9 153.5 165.7Q154.0 165.4 154.2 164.9Q154.5 164.4 154.5 163.7L154.5 163.7L154.5 158.8L155.8 158.8L155.8 167L154.5 167L154.5 165.5Q154.2 166.3 153.6 166.6L153.6 166.6Q152.9 167.1 152.0 167.1ZM159.7 158.8L161.4 158.8L161.4 159.9L159.7 159.9L159.7 164.9Q159.7 165.4 159.9 165.7Q160.1 165.9 160.6 165.9L160.6 165.9Q160.8 165.9 161.0 165.9Q161.2 165.9 161.3 165.8L161.3 165.8L161.6 167.0Q161.4 167.0 161.1 167.1Q160.9 167.1 160.6 167.1L160.6 167.1Q159.5 167.1 158.9 166.5Q158.4 166.0 158.4 165.0L158.4 165.0L158.4 159.9L157.1 159.9L157.1 158.8L158.4 158.8L158.4 156.9L159.7 156.9L159.7 158.8ZM166.5 167.2L166.5 167.2Q165.3 167.2 164.4 166.6Q163.6 166.1 163.1 165.2Q162.6 164.2 162.6 163.0Q162.6 161.7 163.1 160.8Q163.6 159.8 164.4 159.3Q165.2 158.7 166.3 158.7L166.3 158.7Q167.0 158.7 167.6 158.9Q168.2 159.1 168.8 159.6Q169.3 160.1 169.6 160.9Q169.9 161.7 169.9 162.8L169.9 162.8L169.9 163.4L164.0 163.4Q164.0 164.1 164.3 164.7L164.3 164.7Q164.6 165.4 165.2 165.7Q165.7 166.0 166.5 166.0L166.5 166.0Q167.0 166.0 167.4 165.9Q167.8 165.7 168.1 165.4Q168.3 165.2 168.5 164.7L168.5 164.7L169.8 165.1Q169.6 165.7 169.1 166.2Q168.7 166.6 168.0 166.9Q167.3 167.2 166.5 167.2ZM164.0 162.2L164.0 162.2L168.6 162.2Q168.5 161.7 168.3 161.2L168.3 161.2Q168.1 160.6 167.6 160.2Q167.1 159.9 166.3 159.9Q165.6 159.9 165.1 160.2Q164.5 160.6 164.3 161.2L164.3 161.2Q164.0 161.7 164.0 162.2ZM174.9 167.2L174.9 167.2Q173.8 167.2 173.1 166.7Q172.3 166.1 171.8 165.2Q171.4 164.2 171.4 162.9L171.4 162.9Q171.4 161.6 171.8 160.7Q172.3 159.7 173.1 159.2Q173.8 158.7 174.9 158.7L174.9 158.7Q175.7 158.7 176.1 159.0Q176.6 159.2 176.9 159.6Q177.1 159.9 177.2 160.1L177.2 160.1L177.3 160.1L177.3 156.1L178.7 156.1L178.7 167L177.4 167L177.4 165.7L177.2 165.7Q177.1 166.0 176.8 166.3Q176.6 166.6 176.1 166.9Q175.6 167.2 174.9 167.2ZM175.1 166.0L175.1 166.0Q175.8 166.0 176.3 165.6Q176.8 165.2 177.1 164.5Q177.4 163.8 177.4 162.9L177.4 162.9Q177.4 162.0 177.1 161.3Q176.8 160.6 176.3 160.3Q175.8 159.9 175.1 159.9L175.1 159.9Q174.3 159.9 173.8 160.3Q173.2 160.7 173.0 161.4Q172.7 162.1 172.7 162.9L172.7 162.9Q172.7 163.8 173.0 164.5Q173.3 165.2 173.8 165.6Q174.3 166.0 175.1 166.0Z M187.9 167.2L187.9 167.2Q187.1 167.2 186.4 166.9Q185.8 166.7 185.4 166.2Q184.9 165.7 184.8 165.0L184.8 165.0L186.0 164.7Q186.2 165.4 186.7 165.7Q187.2 166.0 187.9 166.0L187.9 166.0Q188.8 166.0 189.3 165.7Q189.8 165.3 189.8 164.8L189.8 164.8Q189.8 164.4 189.5 164.1Q189.2 163.8 188.6 163.7L188.6 163.7L187.2 163.3Q186.1 163.1 185.6 162.5Q185.0 162.0 185.0 161.1L185.0 161.1Q185.0 160.4 185.4 159.9Q185.8 159.3 186.5 159.0Q187.2 158.7 188.1 158.7L188.1 158.7Q188.9 158.7 189.5 159.0Q190.1 159.2 190.5 159.7Q190.8 160.1 191.0 160.7L191.0 160.7L189.8 161.0Q189.7 160.5 189.3 160.2Q188.9 159.8 188.1 159.8L188.1 159.8Q187.3 159.8 186.9 160.2Q186.4 160.5 186.4 161.0L186.4 161.0Q186.4 161.5 186.7 161.7Q187.0 162.0 187.8 162.2L187.8 162.2L189.0 162.5Q190.1 162.7 190.6 163.3Q191.2 163.9 191.2 164.7L191.2 164.7Q191.2 165.4 190.8 166.0Q190.4 166.5 189.6 166.9Q188.9 167.2 187.9 167.2ZM192.9 170.0L192.9 170.0L193.3 168.8L193.4 168.9Q193.8 169.0 194.2 168.9Q194.5 168.9 194.7 168.6Q195.0 168.3 195.2 167.7L195.2 167.7L195.4 167.0L192.3 158.8L193.8 158.8L195.5 163.7Q195.8 164.4 196.0 165.2L196.0 165.2Q196.0 165.5 196.1 165.8L196.1 165.8Q196.2 165.5 196.3 165.2L196.3 165.2Q196.5 164.4 196.8 163.7L196.8 163.7L198.5 158.8L200.0 158.8L196.4 168.2Q196.1 168.9 195.8 169.3Q195.4 169.7 194.9 169.9Q194.5 170.1 193.9 170.1L193.9 170.1Q193.6 170.1 193.3 170.1Q193.0 170.0 192.9 170.0ZM204.3 167.2L204.3 167.2Q203.4 167.2 202.8 166.9Q202.1 166.7 201.7 166.2Q201.3 165.7 201.1 165.0L201.1 165.0L202.4 164.7Q202.6 165.4 203.1 165.7Q203.5 166.0 204.3 166.0L204.3 166.0Q205.1 166.0 205.6 165.7Q206.1 165.3 206.1 164.8L206.1 164.8Q206.1 164.4 205.9 164.1Q205.6 163.8 204.9 163.7L204.9 163.7L203.6 163.3Q202.5 163.1 201.9 162.5Q201.4 162.0 201.4 161.1L201.4 161.1Q201.4 160.4 201.8 159.9Q202.2 159.3 202.9 159.0Q203.5 158.7 204.4 158.7L204.4 158.7Q205.3 158.7 205.9 159.0Q206.4 159.2 206.8 159.7Q207.2 160.1 207.4 160.7L207.4 160.7L206.2 161.0Q206.0 160.5 205.6 160.2Q205.2 159.8 204.4 159.8L204.4 159.8Q203.7 159.8 203.2 160.2Q202.7 160.5 202.7 161.0L202.7 161.0Q202.7 161.5 203.1 161.7Q203.4 162.0 204.1 162.2L204.1 162.2L205.3 162.5Q206.4 162.7 207.0 163.3Q207.5 163.9 207.5 164.7L207.5 164.7Q207.5 165.4 207.1 166.0Q206.7 166.5 206.0 166.9Q205.2 167.2 204.3 167.2ZM211.0 158.8L212.6 158.8L212.6 159.9L211.0 159.9L211.0 164.9Q211.0 165.4 211.2 165.7Q211.4 165.9 211.9 165.9L211.9 165.9Q212.1 165.9 212.2 165.9Q212.4 165.9 212.6 165.8L212.6 165.8L212.9 167.0Q212.7 167.0 212.4 167.1Q212.1 167.1 211.9 167.1L211.9 167.1Q210.8 167.1 210.2 166.5Q209.6 166.0 209.6 165.0L209.6 165.0L209.6 159.9L208.4 159.9L208.4 158.8L209.6 158.8L209.6 156.9L211.0 156.9L211.0 158.8ZM217.8 167.2L217.8 167.2Q216.6 167.2 215.7 166.6Q214.9 166.1 214.4 165.2Q213.9 164.2 213.9 163.0Q213.9 161.7 214.4 160.8Q214.8 159.8 215.7 159.3Q216.5 158.7 217.6 158.7L217.6 158.7Q218.3 158.7 218.9 158.9Q219.5 159.1 220.1 159.6Q220.6 160.1 220.9 160.9Q221.2 161.7 221.2 162.8L221.2 162.8L221.2 163.4L215.3 163.4Q215.3 164.1 215.6 164.7L215.6 164.7Q215.9 165.4 216.5 165.7Q217.0 166.0 217.8 166.0L217.8 166.0Q218.3 166.0 218.7 165.9Q219.1 165.7 219.3 165.4Q219.6 165.2 219.8 164.7L219.8 164.7L221.1 165.1Q220.9 165.7 220.4 166.2Q220.0 166.6 219.3 166.9Q218.6 167.2 217.8 167.2ZM215.3 162.2L215.3 162.2L219.8 162.2Q219.8 161.7 219.6 161.2L219.6 161.2Q219.4 160.6 218.9 160.2Q218.4 159.9 217.6 159.9Q216.9 159.9 216.4 160.2Q215.8 160.6 215.5 161.2L215.5 161.2Q215.3 161.7 215.3 162.2ZM224.4 167L223.1 167L223.1 158.8L224.4 158.8L224.4 160.3Q224.5 159.9 224.8 159.5L224.8 159.5Q225.2 159.1 225.6 158.9Q226.1 158.7 226.7 158.7L226.7 158.7Q227.5 158.7 228.1 159.2L228.1 159.2Q228.6 159.7 228.7 160.3L228.7 160.3Q228.9 159.9 229.2 159.6L229.2 159.6Q229.6 159.1 230.1 158.9Q230.7 158.7 231.3 158.7L231.3 158.7Q232.0 158.7 232.6 159.0Q233.2 159.3 233.6 159.9Q233.9 160.5 233.9 161.5L233.9 161.5L233.9 167L232.6 167L232.6 161.5Q232.6 160.6 232.1 160.2Q231.6 159.9 230.9 159.9L230.9 159.9Q230.4 159.9 230.0 160.1Q229.6 160.3 229.4 160.7Q229.1 161.1 229.1 161.7L229.1 161.7L229.1 167L227.8 167L227.8 161.4Q227.8 160.7 227.4 160.3Q226.9 159.9 226.2 159.9L226.2 159.9Q225.7 159.9 225.3 160.1Q224.9 160.3 224.6 160.8Q224.4 161.2 224.4 161.8L224.4 161.8L224.4 167ZM239.0 167.2L239.0 167.2Q238.2 167.2 237.5 166.9Q236.8 166.7 236.4 166.2Q236.0 165.7 235.8 165.0L235.8 165.0L237.1 164.7Q237.3 165.4 237.8 165.7Q238.3 166.0 239.0 166.0L239.0 166.0Q239.8 166.0 240.3 165.7Q240.9 165.3 240.9 164.8L240.9 164.8Q240.9 164.4 240.6 164.1Q240.3 163.8 239.7 163.7L239.7 163.7L238.3 163.3Q237.2 163.1 236.6 162.5Q236.1 162.0 236.1 161.1L236.1 161.1Q236.1 160.4 236.5 159.9Q236.9 159.3 237.6 159.0Q238.3 158.7 239.1 158.7L239.1 158.7Q240.0 158.7 240.6 159.0Q241.2 159.2 241.5 159.7Q241.9 160.1 242.1 160.7L242.1 160.7L240.9 161.0Q240.7 160.5 240.3 160.2Q239.9 159.8 239.1 159.8L239.1 159.8Q238.4 159.8 237.9 160.2Q237.4 160.5 237.4 161.0L237.4 161.0Q237.4 161.5 237.8 161.7Q238.1 162.0 238.8 162.2L238.8 162.2L240.0 162.5Q241.2 162.7 241.7 163.3Q242.2 163.9 242.2 164.7L242.2 164.7Q242.2 165.4 241.8 166.0Q241.4 166.5 240.7 166.9Q240.0 167.2 239.0 167.2ZM244.9 169.6L243.9 169.6L244.6 165.5L246.1 165.5L244.9 169.6Z M256.0 167.2L256.0 167.2Q255.2 167.2 254.7 166.9Q254.2 166.6 254.0 166.3Q253.7 166.0 253.6 165.7L253.6 165.7L253.4 165.7L253.4 167L252.2 167L252.2 156.1L253.5 156.1L253.5 160.1L253.6 160.1Q253.7 159.9 254.0 159.6Q254.2 159.2 254.7 159.0Q255.2 158.7 256.0 158.7L256.0 158.7Q257.0 158.7 257.8 159.2Q258.5 159.7 259.0 160.7Q259.4 161.6 259.4 162.9L259.4 162.9Q259.4 164.2 259.0 165.2Q258.5 166.1 257.8 166.7Q257.0 167.2 256.0 167.2ZM255.8 166.0L255.8 166.0Q256.5 166.0 257.0 165.6Q257.6 165.2 257.8 164.5Q258.1 163.8 258.1 162.9L258.1 162.9Q258.1 162.1 257.8 161.4Q257.6 160.7 257.1 160.3Q256.5 159.9 255.8 159.9L255.8 159.9Q255.0 159.9 254.5 160.3Q254.0 160.6 253.7 161.3Q253.5 162.0 253.5 162.9L253.5 162.9Q253.5 163.8 253.7 164.5Q254.0 165.2 254.5 165.6Q255.0 166.0 255.8 166.0ZM261.3 156.1L262.7 156.1L262.7 167L261.3 167L261.3 156.1ZM268.3 167.2L268.3 167.2Q267.2 167.2 266.4 166.6Q265.5 166.1 265.0 165.2Q264.6 164.2 264.6 163.0L264.6 163.0Q264.6 161.7 265.0 160.7Q265.5 159.8 266.4 159.2Q267.2 158.7 268.3 158.7L268.3 158.7Q269.4 158.7 270.3 159.2Q271.1 159.8 271.6 160.7Q272.0 161.7 272.0 163.0L272.0 163.0Q272.0 164.2 271.6 165.2Q271.1 166.1 270.3 166.6Q269.4 167.2 268.3 167.2ZM268.3 166.0L268.3 166.0Q269.1 166.0 269.7 165.6Q270.2 165.1 270.5 164.5Q270.7 163.8 270.7 163.0L270.7 163.0Q270.7 162.1 270.5 161.4Q270.2 160.7 269.7 160.3Q269.1 159.9 268.3 159.9L268.3 159.9Q267.5 159.9 267.0 160.3Q266.4 160.7 266.2 161.4Q265.9 162.1 265.9 163.0L265.9 163.0Q265.9 163.8 266.2 164.5Q266.4 165.1 267.0 165.6Q267.5 166.0 268.3 166.0ZM277.3 167.2L277.3 167.2Q276.2 167.2 275.3 166.6Q274.5 166.1 274.0 165.2Q273.6 164.2 273.6 163.0L273.6 163.0Q273.6 161.7 274.0 160.7Q274.5 159.8 275.3 159.2Q276.2 158.7 277.3 158.7L277.3 158.7Q277.9 158.7 278.4 158.9Q278.9 159.0 279.4 159.3Q279.8 159.6 280.1 160.0Q280.5 160.4 280.6 161.0L280.6 161.0L279.4 161.3Q279.3 161.0 279.1 160.8Q278.9 160.5 278.6 160.3Q278.4 160.1 278.0 160.0Q277.7 159.9 277.3 159.9L277.3 159.9Q276.5 159.9 276.0 160.3Q275.4 160.7 275.2 161.4Q274.9 162.1 274.9 163.0L274.9 163.0Q274.9 163.8 275.2 164.5Q275.4 165.1 276.0 165.6Q276.5 166.0 277.3 166.0L277.3 166.0Q277.7 166.0 278.1 165.9Q278.4 165.8 278.7 165.6Q278.9 165.4 279.1 165.1Q279.3 164.8 279.4 164.5L279.4 164.5L280.6 164.8Q280.5 165.4 280.2 165.8Q279.9 166.3 279.4 166.6Q279.0 166.9 278.4 167.0Q277.9 167.2 277.3 167.2ZM283.9 167L282.5 167L282.5 156.1L283.9 156.1L283.9 162.4L284.0 162.4L287.5 158.8L289.2 158.8L285.7 162.3L289.4 167L287.7 167L284.7 163.2L283.9 164.0L283.9 167ZM294.1 167.2L294.1 167.2Q293.0 167.2 292.2 166.6Q291.3 166.1 290.8 165.2Q290.4 164.2 290.4 163.0L290.4 163.0Q290.4 161.7 290.8 160.7Q291.3 159.8 292.2 159.2Q293.0 158.7 294.1 158.7L294.1 158.7Q294.7 158.7 295.2 158.9Q295.8 159.0 296.2 159.3Q296.6 159.6 296.9 160.0Q297.3 160.4 297.4 161.0L297.4 161.0L296.2 161.3Q296.1 161.0 295.9 160.8Q295.7 160.5 295.4 160.3Q295.2 160.1 294.8 160.0Q294.5 159.9 294.1 159.9L294.1 159.9Q293.3 159.9 292.8 160.3Q292.2 160.7 292.0 161.4Q291.7 162.1 291.7 163.0L291.7 163.0Q291.7 163.8 292.0 164.5Q292.2 165.1 292.8 165.6Q293.3 166.0 294.1 166.0L294.1 166.0Q294.5 166.0 294.9 165.9Q295.2 165.8 295.5 165.6Q295.7 165.4 295.9 165.1Q296.1 164.8 296.2 164.5L296.2 164.5L297.5 164.8Q297.3 165.4 297.0 165.8Q296.7 166.3 296.2 166.6Q295.8 166.9 295.2 167.0Q294.7 167.2 294.1 167.2ZM300.7 162.1L300.7 162.1L300.7 167L299.3 167L299.3 156.1L300.7 156.1L300.7 160.2Q301.0 159.5 301.5 159.2L301.5 159.2Q302.2 158.7 303.1 158.7L303.1 158.7Q303.9 158.7 304.6 159.0Q305.2 159.4 305.5 160.1Q305.9 160.8 305.9 161.8L305.9 161.8L305.9 167L304.6 167L304.6 161.9Q304.6 161.0 304.1 160.4Q303.6 159.9 302.7 159.9L302.7 159.9Q302.1 159.9 301.7 160.2Q301.2 160.4 300.9 160.9Q300.7 161.4 300.7 162.1ZM310.5 167.2L310.5 167.2Q309.7 167.2 309.1 166.9Q308.5 166.6 308.1 166.0Q307.7 165.5 307.7 164.7L307.7 164.7Q307.7 164.0 308.0 163.5Q308.3 163.1 308.7 162.8Q309.2 162.6 309.8 162.5Q310.3 162.3 310.9 162.3L310.9 162.3Q311.6 162.2 312.1 162.1Q312.6 162.1 312.8 161.9Q313.0 161.8 313.0 161.5L313.0 161.5L313.0 161.5Q313.0 161.0 312.8 160.6Q312.6 160.2 312.2 160.1Q311.9 159.9 311.3 159.9L311.3 159.9Q310.7 159.9 310.3 160.0Q309.9 160.2 309.6 160.5Q309.3 160.8 309.2 161.1L309.2 161.1L307.9 160.6Q308.3 159.9 308.8 159.5Q309.3 159.1 310.0 158.9Q310.6 158.7 311.2 158.7L311.2 158.7Q311.7 158.7 312.2 158.8Q312.7 158.9 313.2 159.2Q313.7 159.5 314.0 160.1Q314.3 160.6 314.3 161.6L314.3 161.6L314.3 167L313.0 167L313.0 165.9L312.9 165.9Q312.8 166.2 312.5 166.5Q312.2 166.8 311.7 167.0Q311.2 167.2 310.5 167.2ZM310.7 166.0L310.7 166.0Q311.5 166.0 312.0 165.7Q312.5 165.5 312.7 165.0Q313.0 164.5 313.0 164.0L313.0 164.0L313.0 162.9Q312.9 163.0 312.6 163.1Q312.4 163.2 312.0 163.2Q311.7 163.3 311.4 163.3Q311.0 163.4 310.8 163.4L310.8 163.4Q310.4 163.4 309.9 163.6Q309.5 163.7 309.3 164.0Q309.0 164.3 309.0 164.7L309.0 164.7Q309.0 165.2 309.3 165.4Q309.5 165.7 309.9 165.9Q310.2 166.0 310.7 166.0ZM318.0 167L316.6 167L316.6 158.8L318.0 158.8L318.0 167ZM317.3 157.5L317.3 157.5Q316.9 157.5 316.7 157.2Q316.4 157.0 316.4 156.6L316.4 156.6Q316.4 156.2 316.7 156.0Q316.9 155.7 317.3 155.7L317.3 155.7Q317.7 155.7 318.0 156.0Q318.2 156.2 318.2 156.6L318.2 156.6Q318.2 157.0 318.0 157.2Q317.7 157.5 317.3 157.5ZM321.6 162.1L321.6 162.1L321.6 167L320.3 167L320.3 158.8L321.5 158.8L321.5 160.3Q321.9 159.6 322.4 159.2L322.4 159.2Q323.1 158.7 324.0 158.7L324.0 158.7Q324.9 158.7 325.5 159.0Q326.1 159.4 326.5 160.1Q326.8 160.8 326.8 161.8L326.8 161.8L326.8 167L325.5 167L325.5 161.9Q325.5 161.0 325.0 160.4Q324.5 159.9 323.6 159.9L323.6 159.9Q323.1 159.9 322.6 160.2Q322.1 160.4 321.9 160.9Q321.6 161.4 321.6 162.1Z M334.5 167L333.2 167L333.2 158.8L334.5 158.8L334.5 167ZM333.8 157.5L333.8 157.5Q333.5 157.5 333.2 157.2Q332.9 157.0 332.9 156.6L332.9 156.6Q332.9 156.2 333.2 156.0Q333.5 155.7 333.8 155.7L333.8 155.7Q334.2 155.7 334.5 156.0Q334.7 156.2 334.7 156.6L334.7 156.6Q334.7 157.0 334.5 157.2Q334.2 157.5 333.8 157.5ZM338.1 162.1L338.1 162.1L338.1 167L336.8 167L336.8 158.8L338.1 158.8L338.1 160.3Q338.4 159.6 339.0 159.2L339.0 159.2Q339.6 158.7 340.6 158.7L340.6 158.7Q341.4 158.7 342.0 159.0Q342.6 159.4 343.0 160.1Q343.3 160.8 343.3 161.8L343.3 161.8L343.3 167L342.0 167L342.0 161.9Q342.0 161.0 341.5 160.4Q341.0 159.9 340.2 159.9L340.2 159.9Q339.6 159.9 339.1 160.2Q338.7 160.4 338.4 160.9Q338.1 161.4 338.1 162.1ZM347.6 158.8L349.5 158.8L349.5 159.9L347.6 159.9L347.6 167L346.3 167L346.3 159.9L344.6 159.9L344.6 158.8L346.3 158.8L346.3 157.7Q346.3 157.0 346.6 156.5Q346.9 156.1 347.5 155.8Q348.0 155.6 348.6 155.6L348.6 155.6Q349.1 155.6 349.4 155.7Q349.7 155.7 349.8 155.8L349.8 155.8L349.4 156.9Q349.3 156.9 349.2 156.8Q349.0 156.8 348.7 156.8L348.7 156.8Q348.1 156.8 347.8 157.1Q347.6 157.4 347.6 158.0L347.6 158.0L347.6 158.8ZM352.5 167L351.2 167L351.2 158.8L352.5 158.8L352.5 160.1L352.6 160.1Q352.8 159.4 353.4 159.1Q354.0 158.7 354.7 158.7L354.7 158.7Q354.8 158.7 355.0 158.7Q355.2 158.7 355.4 158.7L355.4 158.7L355.4 160.0Q355.3 160.0 355.1 160.0Q354.8 160.0 354.6 160.0L354.6 160.0Q354.0 160.0 353.5 160.2Q353.0 160.5 352.8 160.9Q352.5 161.3 352.5 161.9L352.5 161.9L352.5 167ZM359.1 167.2L359.1 167.2Q358.4 167.2 357.7 166.9Q357.1 166.6 356.7 166.0Q356.4 165.5 356.4 164.7L356.4 164.7Q356.4 164.0 356.6 163.5Q356.9 163.1 357.4 162.8Q357.8 162.6 358.4 162.5Q359.0 162.3 359.5 162.3L359.5 162.3Q360.3 162.2 360.7 162.1Q361.2 162.1 361.4 161.9Q361.6 161.8 361.6 161.5L361.6 161.5L361.6 161.5Q361.6 161.0 361.5 160.6Q361.3 160.2 360.9 160.1Q360.5 159.9 359.9 159.9L359.9 159.9Q359.3 159.9 358.9 160.0Q358.5 160.2 358.2 160.5Q358.0 160.8 357.9 161.1L357.9 161.1L356.6 160.6Q356.9 159.9 357.4 159.5Q358.0 159.1 358.6 158.9Q359.3 158.7 359.9 158.7L359.9 158.7Q360.3 158.7 360.8 158.8Q361.3 158.9 361.8 159.2Q362.3 159.5 362.6 160.1Q363.0 160.6 363.0 161.6L363.0 161.6L363.0 167L361.7 167L361.7 165.9L361.6 165.9Q361.4 166.2 361.1 166.5Q360.8 166.8 360.3 167.0Q359.8 167.2 359.1 167.2ZM359.4 166.0L359.4 166.0Q360.1 166.0 360.6 165.7Q361.1 165.5 361.4 165.0Q361.6 164.5 361.6 164.0L361.6 164.0L361.6 162.9Q361.6 163.0 361.3 163.1Q361.0 163.2 360.7 163.2Q360.3 163.3 360.0 163.3Q359.7 163.4 359.5 163.4L359.5 163.4Q359.0 163.4 358.6 163.6Q358.2 163.7 357.9 164.0Q357.7 164.3 357.7 164.7L357.7 164.7Q357.7 165.2 357.9 165.4Q358.1 165.7 358.5 165.9Q358.9 166.0 359.4 166.0ZM368.1 167.2L368.1 167.2Q367.2 167.2 366.6 166.9Q365.9 166.7 365.5 166.2Q365.1 165.7 364.9 165.0L364.9 165.0L366.2 164.7Q366.3 165.4 366.8 165.7Q367.3 166.0 368.0 166.0L368.0 166.0Q368.9 166.0 369.4 165.7Q369.9 165.3 369.9 164.8L369.9 164.8Q369.9 164.4 369.6 164.1Q369.3 163.8 368.7 163.7L368.7 163.7L367.4 163.3Q366.2 163.1 365.7 162.5Q365.2 162.0 365.2 161.1L365.2 161.1Q365.2 160.4 365.6 159.9Q365.9 159.3 366.6 159.0Q367.3 158.7 368.2 158.7L368.2 158.7Q369.0 158.7 369.6 159.0Q370.2 159.2 370.6 159.7Q371.0 160.1 371.1 160.7L371.1 160.7L369.9 161.0Q369.8 160.5 369.4 160.2Q369.0 159.8 368.2 159.8L368.2 159.8Q367.5 159.8 367.0 160.2Q366.5 160.5 366.5 161.0L366.5 161.0Q366.5 161.5 366.8 161.7Q367.1 162.0 367.9 162.2L367.9 162.2L369.1 162.5Q370.2 162.7 370.8 163.3Q371.3 163.9 371.3 164.7L371.3 164.7Q371.3 165.4 370.9 166.0Q370.5 166.5 369.7 166.9Q369.0 167.2 368.1 167.2ZM374.7 158.8L376.4 158.8L376.4 159.9L374.7 159.9L374.7 164.9Q374.7 165.4 375.0 165.7Q375.2 165.9 375.7 165.9L375.7 165.9Q375.8 165.9 376.0 165.9Q376.2 165.9 376.4 165.8L376.4 165.8L376.6 167.0Q376.4 167.0 376.2 167.1Q375.9 167.1 375.7 167.1L375.7 167.1Q374.6 167.1 374.0 166.5Q373.4 166.0 373.4 165.0L373.4 165.0L373.4 159.9L372.2 159.9L372.2 158.8L373.4 158.8L373.4 156.9L374.7 156.9L374.7 158.8ZM379.4 167L378.1 167L378.1 158.8L379.4 158.8L379.4 160.1L379.5 160.1Q379.7 159.4 380.3 159.1Q380.9 158.7 381.6 158.7L381.6 158.7Q381.7 158.7 381.9 158.7Q382.1 158.7 382.3 158.7L382.3 158.7L382.3 160.0Q382.2 160.0 382.0 160.0Q381.7 160.0 381.5 160.0L381.5 160.0Q380.9 160.0 380.4 160.2Q379.9 160.5 379.7 160.9Q379.4 161.3 379.4 161.9L379.4 161.9L379.4 167ZM386.5 167.1L386.5 167.1Q385.7 167.1 385.1 166.8Q384.4 166.4 384.1 165.7Q383.7 165.0 383.7 164.0L383.7 164.0L383.7 158.8L385.1 158.8L385.1 163.9Q385.1 164.8 385.6 165.4Q386.1 165.9 386.9 165.9L386.9 165.9Q387.5 165.9 388.0 165.7Q388.4 165.4 388.7 164.9Q389.0 164.4 389.0 163.7L389.0 163.7L389.0 158.8L390.3 158.8L390.3 167L389.0 167L389.0 165.5Q388.7 166.3 388.1 166.6L388.1 166.6Q387.4 167.1 386.5 167.1ZM395.9 167.2L395.9 167.2Q394.8 167.2 394.0 166.6Q393.2 166.1 392.7 165.2Q392.2 164.2 392.2 163.0L392.2 163.0Q392.2 161.7 392.7 160.7Q393.2 159.8 394.0 159.2Q394.8 158.7 395.9 158.7L395.9 158.7Q396.5 158.7 397.1 158.9Q397.6 159.0 398.0 159.3Q398.5 159.6 398.8 160.0Q399.1 160.4 399.3 161.0L399.3 161.0L398.0 161.3Q397.9 161.0 397.7 160.8Q397.5 160.5 397.3 160.3Q397.0 160.1 396.7 160.0Q396.4 159.9 395.9 159.9L395.9 159.9Q395.1 159.9 394.6 160.3Q394.1 160.7 393.8 161.4Q393.6 162.1 393.6 163.0L393.6 163.0Q393.6 163.8 393.8 164.5Q394.1 165.1 394.6 165.6Q395.1 166.0 395.9 166.0L395.9 166.0Q396.4 166.0 396.7 165.9Q397.0 165.8 397.3 165.6Q397.6 165.4 397.8 165.1Q397.9 164.8 398.0 164.5L398.0 164.5L399.3 164.8Q399.1 165.4 398.8 165.8Q398.5 166.3 398.1 166.6Q397.6 166.9 397.1 167.0Q396.5 167.2 395.9 167.2ZM402.7 158.8L404.4 158.8L404.4 159.9L402.7 159.9L402.7 164.9Q402.7 165.4 402.9 165.7Q403.2 165.9 403.7 165.9L403.7 165.9Q403.8 165.9 404.0 165.9Q404.2 165.9 404.4 165.8L404.4 165.8L404.6 167.0Q404.4 167.0 404.2 167.1Q403.9 167.1 403.7 167.1L403.7 167.1Q402.6 167.1 402.0 166.5Q401.4 166.0 401.4 165.0L401.4 165.0L401.4 159.9L400.2 159.9L400.2 158.8L401.4 158.8L401.4 156.9L402.7 156.9L402.7 158.8ZM408.9 167.1L408.9 167.1Q408.0 167.1 407.4 166.8Q406.8 166.4 406.4 165.7Q406.1 165.0 406.1 164.0L406.1 164.0L406.1 158.8L407.4 158.8L407.4 163.9Q407.4 164.8 407.9 165.4Q408.4 165.9 409.3 165.9L409.3 165.9Q409.8 165.9 410.3 165.7Q410.8 165.4 411.1 164.9Q411.3 164.4 411.3 163.7L411.3 163.7L411.3 158.8L412.6 158.8L412.6 167L411.4 167L411.4 165.5Q411.0 166.3 410.5 166.6L410.5 166.6Q409.8 167.1 408.9 167.1ZM416.3 167L415.0 167L415.0 158.8L416.2 158.8L416.2 160.1L416.3 160.1Q416.6 159.4 417.1 159.1Q417.7 158.7 418.4 158.7L418.4 158.7Q418.6 158.7 418.8 158.7Q419.0 158.7 419.1 158.7L419.1 158.7L419.1 160.0Q419.1 160.0 418.8 160.0Q418.6 160.0 418.3 160.0L418.3 160.0Q417.7 160.0 417.3 160.2Q416.8 160.5 416.5 160.9Q416.3 161.3 416.3 161.9L416.3 161.9L416.3 167ZM424.1 167.2L424.1 167.2Q422.9 167.2 422.0 166.6Q421.1 166.1 420.7 165.2Q420.2 164.2 420.2 163.0Q420.2 161.7 420.7 160.8Q421.1 159.8 422.0 159.3Q422.8 158.7 423.9 158.7L423.9 158.7Q424.5 158.7 425.2 158.9Q425.8 159.1 426.3 159.6Q426.8 160.1 427.2 160.9Q427.5 161.7 427.5 162.8L427.5 162.8L427.5 163.4L421.5 163.4Q421.6 164.1 421.9 164.7L421.9 164.7Q422.2 165.4 422.7 165.7Q423.3 166.0 424.1 166.0L424.1 166.0Q424.5 166.0 424.9 165.9Q425.3 165.7 425.6 165.4Q425.9 165.2 426.1 164.7L426.1 164.7L427.3 165.1Q427.1 165.7 426.7 166.2Q426.2 166.6 425.6 166.9Q424.9 167.2 424.1 167.2ZM421.6 162.2L421.6 162.2L426.1 162.2Q426.1 161.7 425.9 161.2L425.9 161.2Q425.6 160.6 425.1 160.2Q424.6 159.9 423.9 159.9Q423.2 159.9 422.6 160.2Q422.1 160.6 421.8 161.2L421.8 161.2Q421.6 161.7 421.6 162.2ZM430.1 169.6L429.1 169.6L429.8 165.5L431.3 165.5L430.1 169.6Z M445.0 158.8L445.0 170.1L443.7 170.1L443.7 165.7L443.6 165.7Q443.5 166.0 443.2 166.3Q443.0 166.6 442.5 166.9Q442.0 167.2 441.2 167.2L441.2 167.2Q440.2 167.2 439.4 166.7Q438.6 166.1 438.2 165.2Q437.8 164.2 437.8 162.9L437.8 162.9Q437.8 161.6 438.2 160.7Q438.6 159.7 439.4 159.2Q440.2 158.7 441.2 158.7L441.2 158.7Q442.0 158.7 442.5 159.0Q443.0 159.2 443.2 159.6Q443.5 159.9 443.6 160.1L443.6 160.1L443.8 160.1L443.8 158.8L445.0 158.8ZM441.4 166.0L441.4 166.0Q442.2 166.0 442.7 165.6Q443.2 165.2 443.5 164.5Q443.7 163.8 443.7 162.9L443.7 162.9Q443.7 162.0 443.5 161.3Q443.2 160.6 442.7 160.3Q442.2 159.9 441.4 159.9L441.4 159.9Q440.6 159.9 440.1 160.3Q439.6 160.7 439.4 161.4Q439.1 162.1 439.1 162.9L439.1 162.9Q439.1 163.8 439.4 164.5Q439.6 165.2 440.1 165.6Q440.7 166.0 441.4 166.0ZM450.1 167.1L450.1 167.1Q449.3 167.1 448.7 166.8Q448.0 166.4 447.7 165.7Q447.3 165.0 447.3 164.0L447.3 164.0L447.3 158.8L448.7 158.8L448.7 163.9Q448.7 164.8 449.2 165.4Q449.7 165.9 450.5 165.9L450.5 165.9Q451.1 165.9 451.6 165.7Q452.0 165.4 452.3 164.9Q452.6 164.4 452.6 163.7L452.6 163.7L452.6 158.8L453.9 158.8L453.9 167L452.6 167L452.6 165.5Q452.3 166.3 451.7 166.6L451.7 166.6Q451.0 167.1 450.1 167.1ZM458.5 167.2L458.5 167.2Q457.7 167.2 457.1 166.9Q456.5 166.6 456.1 166.0Q455.7 165.5 455.7 164.7L455.7 164.7Q455.7 164.0 456.0 163.5Q456.3 163.1 456.7 162.8Q457.2 162.6 457.8 162.5Q458.3 162.3 458.9 162.3L458.9 162.3Q459.6 162.2 460.1 162.1Q460.6 162.1 460.8 161.9Q461.0 161.8 461.0 161.5L461.0 161.5L461.0 161.5Q461.0 161.0 460.8 160.6Q460.6 160.2 460.2 160.1Q459.9 159.9 459.3 159.9L459.3 159.9Q458.7 159.9 458.3 160.0Q457.9 160.2 457.6 160.5Q457.3 160.8 457.2 161.1L457.2 161.1L455.9 160.6Q456.3 159.9 456.8 159.5Q457.3 159.1 458.0 158.9Q458.6 158.7 459.3 158.7L459.3 158.7Q459.7 158.7 460.2 158.8Q460.7 158.9 461.2 159.2Q461.7 159.5 462.0 160.1Q462.3 160.6 462.3 161.6L462.3 161.6L462.3 167L461.0 167L461.0 165.9L460.9 165.9Q460.8 166.2 460.5 166.5Q460.2 166.8 459.7 167.0Q459.2 167.2 458.5 167.2ZM458.7 166.0L458.7 166.0Q459.5 166.0 460.0 165.7Q460.5 165.5 460.7 165.0Q461.0 164.5 461.0 164.0L461.0 164.0L461.0 162.9Q460.9 163.0 460.6 163.1Q460.4 163.2 460.0 163.2Q459.7 163.3 459.4 163.3Q459.0 163.4 458.8 163.4L458.8 163.4Q458.4 163.4 458.0 163.6Q457.5 163.7 457.3 164.0Q457.0 164.3 457.0 164.7L457.0 164.7Q457.0 165.2 457.3 165.4Q457.5 165.7 457.9 165.9Q458.2 166.0 458.7 166.0ZM466.0 162.1L466.0 162.1L466.0 167L464.6 167L464.6 158.8L465.9 158.8L465.9 160.3Q466.3 159.6 466.8 159.2L466.8 159.2Q467.5 158.7 468.4 158.7L468.4 158.7Q469.2 158.7 469.9 159.0Q470.5 159.4 470.8 160.1Q471.2 160.8 471.2 161.8L471.2 161.8L471.2 167L469.9 167L469.9 161.9Q469.9 161.0 469.4 160.4Q468.9 159.9 468.0 159.9L468.0 159.9Q467.4 159.9 467.0 160.2Q466.5 160.4 466.2 160.9Q466.0 161.4 466.0 162.1ZM475.0 158.8L476.7 158.8L476.7 159.9L475.0 159.9L475.0 164.9Q475.0 165.4 475.3 165.7Q475.5 165.9 476.0 165.9L476.0 165.9Q476.1 165.9 476.3 165.9Q476.5 165.9 476.7 165.8L476.7 165.8L476.9 167.0Q476.7 167.0 476.5 167.1Q476.2 167.1 476.0 167.1L476.0 167.1Q474.9 167.1 474.3 166.5Q473.7 166.0 473.7 165.0L473.7 165.0L473.7 159.9L472.5 159.9L472.5 158.8L473.7 158.8L473.7 156.9L475.0 156.9L475.0 158.8ZM481.2 167.1L481.2 167.1Q480.4 167.1 479.7 166.8Q479.1 166.4 478.8 165.7Q478.4 165.0 478.4 164.0L478.4 164.0L478.4 158.8L479.7 158.8L479.7 163.9Q479.7 164.8 480.2 165.4Q480.7 165.9 481.6 165.9L481.6 165.9Q482.2 165.9 482.6 165.7Q483.1 165.4 483.4 164.9Q483.6 164.4 483.6 163.7L483.6 163.7L483.6 158.8L485.0 158.8L485.0 167L483.7 167L483.7 165.5Q483.3 166.3 482.8 166.6L482.8 166.6Q482.1 167.1 481.2 167.1ZM488.6 167L487.3 167L487.3 158.8L488.6 158.8L488.6 160.3Q488.7 159.9 489.0 159.5L489.0 159.5Q489.4 159.1 489.8 158.9Q490.3 158.7 490.9 158.7L490.9 158.7Q491.7 158.7 492.3 159.2L492.3 159.2Q492.8 159.7 492.9 160.3L492.9 160.3Q493.1 159.9 493.4 159.6L493.4 159.6Q493.8 159.1 494.3 158.9Q494.9 158.7 495.5 158.7L495.5 158.7Q496.2 158.7 496.8 159.0Q497.4 159.3 497.8 159.9Q498.1 160.5 498.1 161.5L498.1 161.5L498.1 167L496.8 167L496.8 161.5Q496.8 160.6 496.3 160.2Q495.8 159.9 495.1 159.9L495.1 159.9Q494.6 159.9 494.2 160.1Q493.8 160.3 493.6 160.7Q493.3 161.1 493.3 161.7L493.3 161.7L493.3 167L492.0 167L492.0 161.4Q492.0 160.7 491.6 160.3Q491.1 159.9 490.4 159.9L490.4 159.9Q489.9 159.9 489.5 160.1Q489.1 160.3 488.8 160.8Q488.6 161.2 488.6 161.8L488.6 161.8L488.6 167Z M37.5 193.2L37.5 193.2Q36.4 193.2 35.5 192.6Q34.7 192.1 34.2 191.2Q33.8 190.2 33.8 189.0L33.8 189.0Q33.8 187.7 34.2 186.7Q34.7 185.8 35.5 185.2Q36.4 184.7 37.5 184.7L37.5 184.7Q38.1 184.7 38.6 184.9Q39.1 185.0 39.6 185.3Q40.0 185.6 40.3 186.0Q40.6 186.4 40.8 187.0L40.8 187.0L39.5 187.3Q39.5 187.0 39.3 186.8Q39.1 186.5 38.8 186.3Q38.6 186.1 38.2 186.0Q37.9 185.9 37.5 185.9L37.5 185.9Q36.7 185.9 36.1 186.3Q35.6 186.7 35.4 187.4Q35.1 188.1 35.1 189.0L35.1 189.0Q35.1 189.8 35.4 190.5Q35.6 191.1 36.1 191.6Q36.7 192.0 37.5 192.0L37.5 192.0Q37.9 192.0 38.2 191.9Q38.6 191.8 38.9 191.6Q39.1 191.4 39.3 191.1Q39.5 190.8 39.6 190.5L39.6 190.5L40.8 190.8Q40.7 191.4 40.4 191.8Q40.0 192.3 39.6 192.6Q39.2 192.9 38.6 193.0Q38.1 193.2 37.5 193.2ZM46.1 193.2L46.1 193.2Q44.9 193.2 44.1 192.6Q43.3 192.1 42.8 191.2Q42.3 190.2 42.3 189.0L42.3 189.0Q42.3 187.7 42.8 186.7Q43.3 185.8 44.1 185.2Q44.9 184.7 46.1 184.7L46.1 184.7Q47.2 184.7 48.0 185.2Q48.9 185.8 49.3 186.7Q49.8 187.7 49.8 189.0L49.8 189.0Q49.8 190.2 49.3 191.2Q48.9 192.1 48.0 192.6Q47.2 193.2 46.1 193.2ZM46.1 192.0L46.1 192.0Q46.9 192.0 47.4 191.6Q48.0 191.1 48.2 190.5Q48.5 189.8 48.5 189.0L48.5 189.0Q48.5 188.1 48.2 187.4Q48.0 186.7 47.4 186.3Q46.9 185.9 46.1 185.9L46.1 185.9Q45.2 185.9 44.7 186.3Q44.2 186.7 43.9 187.4Q43.7 188.1 43.7 189.0L43.7 189.0Q43.7 189.8 43.9 190.5Q44.2 191.1 44.7 191.6Q45.2 192.0 46.1 192.0ZM53.0 193L51.7 193L51.7 184.8L53.0 184.8L53.0 186.3Q53.2 185.9 53.4 185.5L53.4 185.5Q53.8 185.1 54.3 184.9Q54.8 184.7 55.3 184.7L55.3 184.7Q56.2 184.7 56.8 185.2L56.8 185.2Q57.2 185.7 57.4 186.3L57.4 186.3Q57.5 185.9 57.8 185.6L57.8 185.6Q58.2 185.1 58.8 184.9Q59.3 184.7 60.0 184.7L60.0 184.7Q60.7 184.7 61.3 185.0Q61.9 185.3 62.2 185.9Q62.5 186.5 62.5 187.5L62.5 187.5L62.5 193L61.2 193L61.2 187.5Q61.2 186.6 60.7 186.2Q60.2 185.9 59.6 185.9L59.6 185.9Q59.0 185.9 58.6 186.1Q58.2 186.3 58.0 186.7Q57.8 187.1 57.8 187.7L57.8 187.7L57.8 193L56.5 193L56.5 187.4Q56.5 186.7 56.0 186.3Q55.6 185.9 54.9 185.9L54.9 185.9Q54.4 185.9 54.0 186.1Q53.6 186.3 53.3 186.8Q53.0 187.2 53.0 187.8L53.0 187.8L53.0 193ZM66.2 196.1L64.9 196.1L64.9 184.8L66.1 184.8L66.1 186.1L66.3 186.1Q66.4 185.9 66.7 185.6Q66.9 185.2 67.4 185.0Q67.9 184.7 68.7 184.7L68.7 184.7Q69.7 184.7 70.5 185.2Q71.2 185.7 71.7 186.7Q72.1 187.6 72.1 188.9L72.1 188.9Q72.1 190.2 71.7 191.2Q71.2 192.1 70.5 192.7Q69.7 193.2 68.7 193.2L68.7 193.2Q67.9 193.2 67.4 192.9Q66.9 192.6 66.7 192.3Q66.4 192.0 66.3 191.7L66.3 191.7L66.2 191.7L66.2 196.1ZM68.5 192.0L68.5 192.0Q69.2 192.0 69.7 191.6Q70.3 191.2 70.5 190.5Q70.8 189.8 70.8 188.9L70.8 188.9Q70.8 188.1 70.5 187.4Q70.3 186.7 69.8 186.3Q69.2 185.9 68.5 185.9L68.5 185.9Q67.7 185.9 67.2 186.3Q66.7 186.6 66.4 187.3Q66.2 188.0 66.2 188.9L66.2 188.9Q66.2 189.8 66.4 190.5Q66.7 191.2 67.2 191.6Q67.7 192.0 68.5 192.0ZM76.8 193.1L76.8 193.1Q76.0 193.1 75.4 192.8Q74.7 192.4 74.4 191.7Q74.0 191.0 74.0 190.0L74.0 190.0L74.0 184.8L75.4 184.8L75.4 189.9Q75.4 190.8 75.9 191.4Q76.4 191.9 77.2 191.9L77.2 191.9Q77.8 191.9 78.3 191.7Q78.7 191.4 79.0 190.9Q79.3 190.4 79.3 189.7L79.3 189.7L79.3 184.8L80.6 184.8L80.6 193L79.3 193L79.3 191.5Q79.0 192.3 78.4 192.6L78.4 192.6Q77.7 193.1 76.8 193.1ZM84.5 184.8L86.1 184.8L86.1 185.9L84.5 185.9L84.5 190.9Q84.5 191.4 84.7 191.7Q84.9 191.9 85.4 191.9L85.4 191.9Q85.5 191.9 85.7 191.9Q85.9 191.9 86.1 191.8L86.1 191.8L86.4 193.0Q86.2 193.0 85.9 193.1Q85.6 193.1 85.4 193.1L85.4 193.1Q84.3 193.1 83.7 192.5Q83.1 192.0 83.1 191.0L83.1 191.0L83.1 185.9L81.9 185.9L81.9 184.8L83.1 184.8L83.1 182.9L84.5 182.9L84.5 184.8ZM89.1 193L87.8 193L87.8 184.8L89.1 184.8L89.1 193ZM88.5 183.5L88.5 183.5Q88.1 183.5 87.8 183.2Q87.6 183.0 87.6 182.6L87.6 182.6Q87.6 182.2 87.8 182.0Q88.1 181.7 88.5 181.7L88.5 181.7Q88.9 181.7 89.1 182.0Q89.4 182.2 89.4 182.6L89.4 182.6Q89.4 183.0 89.1 183.2Q88.9 183.5 88.5 183.5ZM92.8 188.1L92.8 188.1L92.8 193L91.5 193L91.5 184.8L92.7 184.8L92.7 186.3Q93.1 185.6 93.6 185.2L93.6 185.2Q94.3 184.7 95.2 184.7L95.2 184.7Q96.1 184.7 96.7 185.0Q97.3 185.4 97.7 186.1Q98.0 186.8 98.0 187.8L98.0 187.8L98.0 193L96.7 193L96.7 187.9Q96.7 187.0 96.2 186.4Q95.7 185.9 94.8 185.9L94.8 185.9Q94.3 185.9 93.8 186.2Q93.3 186.4 93.0 186.9Q92.8 187.4 92.8 188.1ZM103.6 196.2L103.6 196.2Q102.7 196.2 102.1 196.0Q101.4 195.8 101.0 195.4Q100.5 195.0 100.3 194.6L100.3 194.6L101.3 193.9Q101.5 194.1 101.8 194.4Q102.0 194.7 102.5 194.9Q102.9 195.1 103.6 195.1L103.6 195.1Q104.6 195.1 105.2 194.6Q105.9 194.1 105.9 193.1L105.9 193.1L105.9 191.5L105.8 191.5Q105.6 191.7 105.4 192.1Q105.1 192.4 104.6 192.6Q104.2 192.9 103.4 192.9L103.4 192.9Q102.4 192.9 101.6 192.4Q100.8 191.9 100.4 191.0Q99.9 190.2 99.9 188.9L99.9 188.9Q99.9 187.6 100.4 186.7Q100.8 185.7 101.6 185.2Q102.4 184.7 103.4 184.7L103.4 184.7Q104.2 184.7 104.7 185.0Q105.1 185.2 105.4 185.6Q105.7 185.9 105.8 186.1L105.8 186.1L105.9 186.1L105.9 184.8L107.2 184.8L107.2 193.2Q107.2 194.3 106.7 194.9Q106.2 195.6 105.4 195.9Q104.6 196.2 103.6 196.2ZM103.6 191.7L103.6 191.7Q104.3 191.7 104.9 191.4Q105.4 191.0 105.6 190.4Q105.9 189.7 105.9 188.8L105.9 188.8Q105.9 188.0 105.6 187.3Q105.4 186.6 104.9 186.3Q104.4 185.9 103.6 185.9L103.6 185.9Q102.8 185.9 102.3 186.3Q101.8 186.7 101.5 187.4Q101.3 188.0 101.3 188.8L101.3 188.8Q101.3 189.7 101.5 190.3Q101.8 191.0 102.3 191.3Q102.8 191.7 103.6 191.7ZM110.3 195.6L109.3 195.6L109.9 191.5L111.4 191.5L110.3 195.6Z M122.0 193.2L122.0 193.2Q121.2 193.2 120.7 192.9Q120.2 192.6 120.0 192.3Q119.7 192.0 119.6 191.7L119.6 191.7L119.4 191.7L119.4 193L118.2 193L118.2 182.1L119.5 182.1L119.5 186.1L119.6 186.1Q119.7 185.9 120.0 185.6Q120.2 185.2 120.7 185.0Q121.2 184.7 122.0 184.7L122.0 184.7Q123.0 184.7 123.8 185.2Q124.5 185.7 125.0 186.7Q125.4 187.6 125.4 188.9L125.4 188.9Q125.4 190.2 125.0 191.2Q124.5 192.1 123.8 192.7Q123.0 193.2 122.0 193.2ZM121.8 192.0L121.8 192.0Q122.5 192.0 123.0 191.6Q123.6 191.2 123.8 190.5Q124.1 189.8 124.1 188.9L124.1 188.9Q124.1 188.1 123.8 187.4Q123.6 186.7 123.1 186.3Q122.5 185.9 121.8 185.9L121.8 185.9Q121.0 185.9 120.5 186.3Q120.0 186.6 119.7 187.3Q119.5 188.0 119.5 188.9L119.5 188.9Q119.5 189.8 119.7 190.5Q120.0 191.2 120.5 191.6Q121.0 192.0 121.8 192.0ZM129.6 193.2L129.6 193.2Q128.9 193.2 128.2 192.9Q127.6 192.6 127.2 192.0Q126.8 191.5 126.8 190.7L126.8 190.7Q126.8 190.0 127.1 189.5Q127.4 189.1 127.9 188.8Q128.3 188.6 128.9 188.5Q129.5 188.3 130.0 188.3L130.0 188.3Q130.8 188.2 131.2 188.1Q131.7 188.1 131.9 187.9Q132.1 187.8 132.1 187.5L132.1 187.5L132.1 187.5Q132.1 187.0 131.9 186.6Q131.8 186.2 131.4 186.1Q131.0 185.9 130.4 185.9L130.4 185.9Q129.8 185.9 129.4 186.0Q129.0 186.2 128.7 186.5Q128.5 186.8 128.3 187.1L128.3 187.1L127.1 186.6Q127.4 185.9 127.9 185.5Q128.5 185.1 129.1 184.9Q129.8 184.7 130.4 184.7L130.4 184.7Q130.8 184.7 131.3 184.8Q131.8 184.9 132.3 185.2Q132.8 185.5 133.1 186.1Q133.5 186.6 133.5 187.6L133.5 187.6L133.5 193L132.2 193L132.2 191.9L132.1 191.9Q131.9 192.2 131.6 192.5Q131.3 192.8 130.8 193.0Q130.3 193.2 129.6 193.2ZM129.9 192.0L129.9 192.0Q130.6 192.0 131.1 191.7Q131.6 191.5 131.9 191.0Q132.1 190.5 132.1 190.0L132.1 190.0L132.1 188.9Q132.1 189.0 131.8 189.1Q131.5 189.2 131.2 189.2Q130.8 189.3 130.5 189.3Q130.2 189.4 130.0 189.4L130.0 189.4Q129.5 189.4 129.1 189.6Q128.7 189.7 128.4 190.0Q128.2 190.3 128.2 190.7L128.2 190.7Q128.2 191.2 128.4 191.4Q128.6 191.7 129.0 191.9Q129.4 192.0 129.9 192.0ZM139.1 193.2L139.1 193.2Q138.0 193.2 137.1 192.6Q136.3 192.1 135.8 191.2Q135.4 190.2 135.4 189.0L135.4 189.0Q135.4 187.7 135.8 186.7Q136.3 185.8 137.1 185.2Q138.0 184.7 139.1 184.7L139.1 184.7Q139.7 184.7 140.2 184.9Q140.7 185.0 141.2 185.3Q141.6 185.6 141.9 186.0Q142.2 186.4 142.4 187.0L142.4 187.0L141.1 187.3Q141.1 187.0 140.9 186.8Q140.7 186.5 140.4 186.3Q140.2 186.1 139.8 186.0Q139.5 185.9 139.1 185.9L139.1 185.9Q138.3 185.9 137.7 186.3Q137.2 186.7 137.0 187.4Q136.7 188.1 136.7 189.0L136.7 189.0Q136.7 189.8 137.0 190.5Q137.2 191.1 137.7 191.6Q138.3 192.0 139.1 192.0L139.1 192.0Q139.5 192.0 139.9 191.9Q140.2 191.8 140.5 191.6Q140.7 191.4 140.9 191.1Q141.1 190.8 141.2 190.5L141.2 190.5L142.4 190.8Q142.3 191.4 142.0 191.8Q141.6 192.3 141.2 192.6Q140.8 192.9 140.2 193.0Q139.7 193.2 139.1 193.2ZM145.7 193L144.3 193L144.3 182.1L145.7 182.1L145.7 188.4L145.8 188.4L149.3 184.8L150.9 184.8L147.5 188.3L151.2 193L149.5 193L146.5 189.2L145.7 190.0L145.7 193ZM156.0 193.2L156.0 193.2Q154.8 193.2 154.0 192.6Q153.1 192.1 152.6 191.2Q152.2 190.2 152.2 189.0Q152.2 187.7 152.6 186.8Q153.1 185.8 153.9 185.3Q154.7 184.7 155.9 184.7L155.9 184.7Q156.5 184.7 157.1 184.9Q157.8 185.1 158.3 185.6Q158.8 186.1 159.1 186.9Q159.4 187.7 159.4 188.8L159.4 188.8L159.4 189.4L153.5 189.4Q153.5 190.1 153.8 190.7L153.8 190.7Q154.1 191.4 154.7 191.7Q155.3 192.0 156.0 192.0L156.0 192.0Q156.5 192.0 156.9 191.9Q157.3 191.7 157.6 191.4Q157.9 191.2 158.0 190.7L158.0 190.7L159.3 191.1Q159.1 191.7 158.6 192.2Q158.2 192.6 157.5 192.9Q156.9 193.2 156.0 193.2ZM153.5 188.2L153.5 188.2L158.1 188.2Q158.0 187.7 157.8 187.2L157.8 187.2Q157.6 186.6 157.1 186.2Q156.6 185.9 155.9 185.9Q155.1 185.9 154.6 186.2Q154.1 186.6 153.8 187.2L153.8 187.2Q153.5 187.7 153.5 188.2ZM162.6 188.1L162.6 188.1L162.6 193L161.3 193L161.3 184.8L162.6 184.8L162.6 186.3Q162.9 185.6 163.5 185.2L163.5 185.2Q164.2 184.7 165.1 184.7L165.1 184.7Q165.9 184.7 166.5 185.0Q167.2 185.4 167.5 186.1Q167.9 186.8 167.9 187.8L167.9 187.8L167.9 193L166.5 193L166.5 187.9Q166.5 187.0 166.0 186.4Q165.6 185.9 164.7 185.9L164.7 185.9Q164.1 185.9 163.6 186.2Q163.2 186.4 162.9 186.9Q162.6 187.4 162.6 188.1ZM173.2 193.2L173.2 193.2Q172.2 193.2 171.4 192.7Q170.7 192.1 170.2 191.2Q169.8 190.2 169.8 188.9L169.8 188.9Q169.8 187.6 170.2 186.7Q170.7 185.7 171.4 185.2Q172.2 184.7 173.3 184.7L173.3 184.7Q174.0 184.7 174.5 185.0Q175.0 185.2 175.2 185.6Q175.5 185.9 175.6 186.1L175.6 186.1L175.7 186.1L175.7 182.1L177.0 182.1L177.0 193L175.8 193L175.8 191.7L175.6 191.7Q175.5 192.0 175.2 192.3Q175.0 192.6 174.5 192.9Q174.0 193.2 173.2 193.2ZM173.4 192.0L173.4 192.0Q174.2 192.0 174.7 191.6Q175.2 191.2 175.5 190.5Q175.7 189.8 175.7 188.9L175.7 188.9Q175.7 188.0 175.5 187.3Q175.2 186.6 174.7 186.3Q174.2 185.9 173.4 185.9L173.4 185.9Q172.7 185.9 172.1 186.3Q171.6 186.7 171.4 187.4Q171.1 188.1 171.1 188.9L171.1 188.9Q171.1 189.8 171.4 190.5Q171.6 191.2 172.2 191.6Q172.7 192.0 173.4 192.0Z M186.6 193.2L186.6 193.2Q185.4 193.2 184.6 192.6Q183.7 192.1 183.2 191.2Q182.8 190.2 182.8 189.0Q182.8 187.7 183.2 186.8Q183.7 185.8 184.5 185.3Q185.3 184.7 186.4 184.7L186.4 184.7Q187.1 184.7 187.7 184.9Q188.4 185.1 188.9 185.6Q189.4 186.1 189.7 186.9Q190.0 187.7 190.0 188.8L190.0 188.8L190.0 189.4L184.1 189.4Q184.1 190.1 184.4 190.7L184.4 190.7Q184.7 191.4 185.3 191.7Q185.9 192.0 186.6 192.0L186.6 192.0Q187.1 192.0 187.5 191.9Q187.9 191.7 188.2 191.4Q188.5 191.2 188.6 190.7L188.6 190.7L189.9 191.1Q189.7 191.7 189.2 192.2Q188.8 192.6 188.1 192.9Q187.4 193.2 186.6 193.2ZM184.1 188.2L184.1 188.2L188.7 188.2Q188.6 187.7 188.4 187.2L188.4 187.2Q188.2 186.6 187.7 186.2Q187.2 185.9 186.4 185.9Q185.7 185.9 185.2 186.2Q184.7 186.6 184.4 187.2L184.4 187.2Q184.1 187.7 184.1 188.2ZM193.2 188.1L193.2 188.1L193.2 193L191.9 193L191.9 184.8L193.2 184.8L193.2 186.3Q193.5 185.6 194.1 185.2L194.1 185.2Q194.8 184.7 195.7 184.7L195.7 184.7Q196.5 184.7 197.1 185.0Q197.8 185.4 198.1 186.1Q198.5 186.8 198.5 187.8L198.5 187.8L198.5 193L197.1 193L197.1 187.9Q197.1 187.0 196.6 186.4Q196.1 185.9 195.3 185.9L195.3 185.9Q194.7 185.9 194.2 186.2Q193.8 186.4 193.5 186.9Q193.2 187.4 193.2 188.1ZM204.1 196.2L204.1 196.2Q203.2 196.2 202.5 196.0Q201.8 195.8 201.4 195.4Q201.0 195.0 200.7 194.6L200.7 194.6L201.8 193.9Q202.0 194.1 202.2 194.4Q202.5 194.7 202.9 194.9Q203.4 195.1 204.1 195.1L204.1 195.1Q205.1 195.1 205.7 194.6Q206.3 194.1 206.3 193.1L206.3 193.1L206.3 191.5L206.2 191.5Q206.1 191.7 205.8 192.1Q205.6 192.4 205.1 192.6Q204.6 192.9 203.8 192.9L203.8 192.9Q202.8 192.9 202.1 192.4Q201.3 191.9 200.8 191.0Q200.4 190.2 200.4 188.9L200.4 188.9Q200.4 187.6 200.8 186.7Q201.3 185.7 202.1 185.2Q202.8 184.7 203.9 184.7L203.9 184.7Q204.6 184.7 205.1 185.0Q205.6 185.2 205.8 185.6Q206.1 185.9 206.2 186.1L206.2 186.1L206.4 186.1L206.4 184.8L207.6 184.8L207.6 193.2Q207.6 194.3 207.2 194.9Q206.7 195.6 205.9 195.9Q205.1 196.2 204.1 196.2ZM204.0 191.7L204.0 191.7Q204.8 191.7 205.3 191.4Q205.8 191.0 206.1 190.4Q206.3 189.7 206.3 188.8L206.3 188.8Q206.3 188.0 206.1 187.3Q205.8 186.6 205.3 186.3Q204.8 185.9 204.0 185.9L204.0 185.9Q203.3 185.9 202.7 186.3Q202.2 186.7 202.0 187.4Q201.7 188.0 201.7 188.8L201.7 188.8Q201.7 189.7 202.0 190.3Q202.2 191.0 202.8 191.3Q203.3 191.7 204.0 191.7ZM211.3 193L210.0 193L210.0 184.8L211.3 184.8L211.3 193ZM210.6 183.5L210.6 183.5Q210.3 183.5 210.0 183.2Q209.7 183.0 209.7 182.6L209.7 182.6Q209.7 182.2 210.0 182.0Q210.3 181.7 210.6 181.7L210.6 181.7Q211.0 181.7 211.3 182.0Q211.6 182.2 211.6 182.6L211.6 182.6Q211.6 183.0 211.3 183.2Q211.0 183.5 210.6 183.5ZM214.9 188.1L214.9 188.1L214.9 193L213.6 193L213.6 184.8L214.9 184.8L214.9 186.3Q215.2 185.6 215.8 185.2L215.8 185.2Q216.4 184.7 217.4 184.7L217.4 184.7Q218.2 184.7 218.8 185.0Q219.4 185.4 219.8 186.1Q220.1 186.8 220.1 187.8L220.1 187.8L220.1 193L218.8 193L218.8 187.9Q218.8 187.0 218.3 186.4Q217.8 185.9 217.0 185.9L217.0 185.9Q216.4 185.9 215.9 186.2Q215.5 186.4 215.2 186.9Q214.9 187.4 214.9 188.1ZM225.9 193.2L225.9 193.2Q224.7 193.2 223.9 192.6Q223.0 192.1 222.5 191.2Q222.1 190.2 222.1 189.0Q222.1 187.7 222.5 186.8Q223.0 185.8 223.8 185.3Q224.6 184.7 225.7 184.7L225.7 184.7Q226.4 184.7 227.0 184.9Q227.7 185.1 228.2 185.6Q228.7 186.1 229.0 186.9Q229.3 187.7 229.3 188.8L229.3 188.8L229.3 189.4L223.4 189.4Q223.4 190.1 223.7 190.7L223.7 190.7Q224.0 191.4 224.6 191.7Q225.2 192.0 225.9 192.0L225.9 192.0Q226.4 192.0 226.8 191.9Q227.2 191.7 227.5 191.4Q227.8 191.2 227.9 190.7L227.9 190.7L229.2 191.1Q229.0 191.7 228.5 192.2Q228.1 192.6 227.4 192.9Q226.7 193.2 225.9 193.2ZM223.4 188.2L223.4 188.2L228.0 188.2Q227.9 187.7 227.7 187.2L227.7 187.2Q227.5 186.6 227.0 186.2Q226.5 185.9 225.7 185.9Q225.0 185.9 224.5 186.2Q224.0 186.6 223.7 187.2L223.7 187.2Q223.4 187.7 223.4 188.2ZM234.6 193.2L234.6 193.2Q233.5 193.2 232.6 192.6Q231.7 192.1 231.3 191.2Q230.8 190.2 230.8 189.0Q230.8 187.7 231.3 186.8Q231.7 185.8 232.5 185.3Q233.4 184.7 234.5 184.7L234.5 184.7Q235.1 184.7 235.8 184.9Q236.4 185.1 236.9 185.6Q237.4 186.1 237.8 186.9Q238.1 187.7 238.1 188.8L238.1 188.8L238.1 189.4L232.1 189.4Q232.2 190.1 232.5 190.7L232.5 190.7Q232.8 191.4 233.3 191.7Q233.9 192.0 234.7 192.0L234.7 192.0Q235.1 192.0 235.5 191.9Q235.9 191.7 236.2 191.4Q236.5 191.2 236.7 190.7L236.7 190.7L237.9 191.1Q237.7 191.7 237.3 192.2Q236.8 192.6 236.2 192.9Q235.5 193.2 234.6 193.2ZM232.1 188.2L232.1 188.2L236.7 188.2Q236.7 187.7 236.5 187.2L236.5 187.2Q236.2 186.6 235.7 186.2Q235.2 185.9 234.5 185.9Q233.8 185.9 233.2 186.2Q232.7 186.6 232.4 187.2L232.4 187.2Q232.2 187.7 232.1 188.2ZM241.3 193L239.9 193L239.9 184.8L241.2 184.8L241.2 186.1L241.3 186.1Q241.5 185.4 242.1 185.1Q242.7 184.7 243.4 184.7L243.4 184.7Q243.6 184.7 243.8 184.7Q244.0 184.7 244.1 184.7L244.1 184.7L244.1 186.0Q244.0 186.0 243.8 186.0Q243.6 186.0 243.3 186.0L243.3 186.0Q242.7 186.0 242.3 186.2Q241.8 186.5 241.5 186.9Q241.3 187.3 241.3 187.9L241.3 187.9L241.3 193ZM246.9 193L245.6 193L245.6 184.8L246.9 184.8L246.9 193ZM246.3 183.5L246.3 183.5Q245.9 183.5 245.6 183.2Q245.3 183.0 245.3 182.6L245.3 182.6Q245.3 182.2 245.6 182.0Q245.9 181.7 246.3 181.7L246.3 181.7Q246.6 181.7 246.9 182.0Q247.2 182.2 247.2 182.6L247.2 182.6Q247.2 183.0 246.9 183.2Q246.6 183.5 246.3 183.5ZM250.5 188.1L250.5 188.1L250.5 193L249.2 193L249.2 184.8L250.5 184.8L250.5 186.3Q250.8 185.6 251.4 185.2L251.4 185.2Q252.1 184.7 253.0 184.7L253.0 184.7Q253.8 184.7 254.5 185.0Q255.1 185.4 255.4 186.1Q255.8 186.8 255.8 187.8L255.8 187.8L255.8 193L254.5 193L254.5 187.9Q254.5 187.0 254.0 186.4Q253.5 185.9 252.6 185.9L252.6 185.9Q252.0 185.9 251.6 186.2Q251.1 186.4 250.8 186.9Q250.5 187.4 250.5 188.1ZM261.4 196.2L261.4 196.2Q260.5 196.2 259.8 196.0Q259.2 195.8 258.7 195.4Q258.3 195.0 258.0 194.6L258.0 194.6L259.1 193.9Q259.3 194.1 259.5 194.4Q259.8 194.7 260.2 194.9Q260.7 195.1 261.4 195.1L261.4 195.1Q262.4 195.1 263.0 194.6Q263.7 194.1 263.7 193.1L263.7 193.1L263.7 191.5L263.5 191.5Q263.4 191.7 263.1 192.1Q262.9 192.4 262.4 192.6Q261.9 192.9 261.2 192.9L261.2 192.9Q260.2 192.9 259.4 192.4Q258.6 191.9 258.1 191.0Q257.7 190.2 257.7 188.9L257.7 188.9Q257.7 187.6 258.1 186.7Q258.6 185.7 259.4 185.2Q260.2 184.7 261.2 184.7L261.2 184.7Q262.0 184.7 262.4 185.0Q262.9 185.2 263.2 185.6Q263.4 185.9 263.6 186.1L263.6 186.1L263.7 186.1L263.7 184.8L265.0 184.8L265.0 193.2Q265.0 194.3 264.5 194.9Q264.0 195.6 263.2 195.9Q262.4 196.2 261.4 196.2ZM261.4 191.7L261.4 191.7Q262.1 191.7 262.6 191.4Q263.1 191.0 263.4 190.4Q263.7 189.7 263.7 188.8L263.7 188.8Q263.7 188.0 263.4 187.3Q263.2 186.6 262.6 186.3Q262.1 185.9 261.4 185.9L261.4 185.9Q260.6 185.9 260.1 186.3Q259.6 186.7 259.3 187.4Q259.0 188.0 259.0 188.8L259.0 188.8Q259.0 189.7 259.3 190.3Q259.6 191.0 260.1 191.3Q260.6 191.7 261.4 191.7ZM268.1 195.6L267.1 195.6L267.7 191.5L269.2 191.5L268.1 195.6Z M278.4 193.2L278.4 193.2Q277.7 193.2 277.0 192.9Q276.4 192.6 276.0 192.0Q275.7 191.5 275.7 190.7L275.7 190.7Q275.7 190.0 275.9 189.5Q276.2 189.1 276.7 188.8Q277.1 188.6 277.7 188.5Q278.3 188.3 278.8 188.3L278.8 188.3Q279.6 188.2 280.0 188.1Q280.5 188.1 280.7 187.9Q280.9 187.8 280.9 187.5L280.9 187.5L280.9 187.5Q280.9 187.0 280.8 186.6Q280.6 186.2 280.2 186.1Q279.8 185.9 279.2 185.9L279.2 185.9Q278.6 185.9 278.2 186.0Q277.8 186.2 277.6 186.5Q277.3 186.8 277.2 187.1L277.2 187.1L275.9 186.6Q276.2 185.9 276.7 185.5Q277.3 185.1 277.9 184.9Q278.6 184.7 279.2 184.7L279.2 184.7Q279.6 184.7 280.1 184.8Q280.7 184.9 281.1 185.2Q281.6 185.5 281.9 186.1Q282.3 186.6 282.3 187.6L282.3 187.6L282.3 193L281.0 193L281.0 191.9L280.9 191.9Q280.7 192.2 280.4 192.5Q280.1 192.8 279.6 193.0Q279.1 193.2 278.4 193.2ZM278.7 192.0L278.7 192.0Q279.4 192.0 279.9 191.7Q280.4 191.5 280.7 191.0Q280.9 190.5 280.9 190.0L280.9 190.0L280.9 188.9Q280.9 189.0 280.6 189.1Q280.3 189.2 280.0 189.2Q279.6 189.3 279.3 189.3Q279.0 189.4 278.8 189.4L278.8 189.4Q278.3 189.4 277.9 189.6Q277.5 189.7 277.2 190.0Q277.0 190.3 277.0 190.7L277.0 190.7Q277.0 191.2 277.2 191.4Q277.4 191.7 277.8 191.9Q278.2 192.0 278.7 192.0ZM285.9 188.1L285.9 188.1L285.9 193L284.6 193L284.6 184.8L285.8 184.8L285.9 186.3Q286.2 185.6 286.7 185.2L286.7 185.2Q287.4 184.7 288.4 184.7L288.4 184.7Q289.2 184.7 289.8 185.0Q290.4 185.4 290.8 186.1Q291.1 186.8 291.1 187.8L291.1 187.8L291.1 193L289.8 193L289.8 187.9Q289.8 187.0 289.3 186.4Q288.8 185.9 288.0 185.9L288.0 185.9Q287.4 185.9 286.9 186.2Q286.4 186.4 286.2 186.9Q285.9 187.4 285.9 188.1ZM296.5 193.2L296.5 193.2Q295.5 193.2 294.7 192.7Q293.9 192.1 293.5 191.2Q293.0 190.2 293.0 188.9L293.0 188.9Q293.0 187.6 293.5 186.7Q293.9 185.7 294.7 185.2Q295.5 184.7 296.5 184.7L296.5 184.7Q297.3 184.7 297.8 185.0Q298.3 185.2 298.5 185.6Q298.8 185.9 298.9 186.1L298.9 186.1L299.0 186.1L299.0 182.1L300.3 182.1L300.3 193L299.0 193L299.0 191.7L298.9 191.7Q298.8 192.0 298.5 192.3Q298.2 192.6 297.8 192.9Q297.3 193.2 296.5 193.2ZM296.7 192.0L296.7 192.0Q297.5 192.0 298.0 191.6Q298.5 191.2 298.7 190.5Q299.0 189.8 299.0 188.9L299.0 188.9Q299.0 188.0 298.7 187.3Q298.5 186.6 298.0 186.3Q297.5 185.9 296.7 185.9L296.7 185.9Q295.9 185.9 295.4 186.3Q294.9 186.7 294.6 187.4Q294.4 188.1 294.4 188.9L294.4 188.9Q294.4 189.8 294.6 190.5Q294.9 191.2 295.4 191.6Q295.9 192.0 296.7 192.0Z M309.4 193.2L309.4 193.2Q308.7 193.2 308.0 192.9Q307.4 192.6 307.0 192.0Q306.7 191.5 306.7 190.7L306.7 190.7Q306.7 190.0 306.9 189.5Q307.2 189.1 307.7 188.8Q308.1 188.6 308.7 188.5Q309.3 188.3 309.8 188.3L309.8 188.3Q310.6 188.2 311.0 188.1Q311.5 188.1 311.7 187.9Q311.9 187.8 311.9 187.5L311.9 187.5L311.9 187.5Q311.9 187.0 311.8 186.6Q311.6 186.2 311.2 186.1Q310.8 185.9 310.2 185.9L310.2 185.9Q309.6 185.9 309.2 186.0Q308.8 186.2 308.6 186.5Q308.3 186.8 308.2 187.1L308.2 187.1L306.9 186.6Q307.2 185.9 307.7 185.5Q308.3 185.1 308.9 184.9Q309.6 184.7 310.2 184.7L310.2 184.7Q310.6 184.7 311.1 184.8Q311.7 184.9 312.1 185.2Q312.6 185.5 312.9 186.1Q313.3 186.6 313.3 187.6L313.3 187.6L313.3 193L312.0 193L312.0 191.9L311.9 191.9Q311.7 192.2 311.4 192.5Q311.1 192.8 310.6 193.0Q310.1 193.2 309.4 193.2ZM309.7 192.0L309.7 192.0Q310.4 192.0 310.9 191.7Q311.4 191.5 311.7 191.0Q311.9 190.5 311.9 190.0L311.9 190.0L311.9 188.9Q311.9 189.0 311.6 189.1Q311.3 189.2 311.0 189.2Q310.6 189.3 310.3 189.3Q310.0 189.4 309.8 189.4L309.8 189.4Q309.3 189.4 308.9 189.6Q308.5 189.7 308.2 190.0Q308.0 190.3 308.0 190.7L308.0 190.7Q308.0 191.2 308.2 191.4Q308.4 191.7 308.8 191.9Q309.2 192.0 309.7 192.0ZM318.6 193.2L318.6 193.2Q317.6 193.2 316.8 192.7Q316.1 192.1 315.6 191.2Q315.2 190.2 315.2 188.9L315.2 188.9Q315.2 187.6 315.6 186.7Q316.1 185.7 316.9 185.2Q317.6 184.7 318.7 184.7L318.7 184.7Q319.5 184.7 319.9 185.0Q320.4 185.2 320.6 185.6Q320.9 185.9 321.0 186.1L321.0 186.1L321.1 186.1L321.1 182.1L322.5 182.1L322.5 193L321.2 193L321.2 191.7L321.0 191.7Q320.9 192.0 320.6 192.3Q320.4 192.6 319.9 192.9Q319.4 193.2 318.6 193.2ZM318.8 192.0L318.8 192.0Q319.6 192.0 320.1 191.6Q320.6 191.2 320.9 190.5Q321.1 189.8 321.1 188.9L321.1 188.9Q321.1 188.0 320.9 187.3Q320.6 186.6 320.1 186.3Q319.6 185.9 318.8 185.9L318.8 185.9Q318.1 185.9 317.6 186.3Q317.0 186.7 316.8 187.4Q316.5 188.1 316.5 188.9L316.5 188.9Q316.5 189.8 316.8 190.5Q317.0 191.2 317.6 191.6Q318.1 192.0 318.8 192.0ZM328.5 193L327.1 193L324.0 184.8L325.4 184.8L327.2 189.7Q327.5 190.4 327.7 191.2L327.7 191.2Q327.7 191.5 327.8 191.8L327.8 191.8Q327.9 191.5 328.0 191.2L328.0 191.2Q328.2 190.4 328.5 189.7L328.5 189.7L330.2 184.8L331.6 184.8L328.5 193ZM335.5 193.2L335.5 193.2Q334.7 193.2 334.1 192.9Q333.4 192.6 333.1 192.0Q332.7 191.5 332.7 190.7L332.7 190.7Q332.7 190.0 333.0 189.5Q333.3 189.1 333.7 188.8Q334.2 188.6 334.7 188.5Q335.3 188.3 335.9 188.3L335.9 188.3Q336.6 188.2 337.1 188.1Q337.5 188.1 337.8 187.9Q338.0 187.8 338.0 187.5L338.0 187.5L338.0 187.5Q338.0 187.0 337.8 186.6Q337.6 186.2 337.2 186.1Q336.8 185.9 336.3 185.9L336.3 185.9Q335.7 185.9 335.3 186.0Q334.9 186.2 334.6 186.5Q334.3 186.8 334.2 187.1L334.2 187.1L332.9 186.6Q333.2 185.9 333.8 185.5Q334.3 185.1 335.0 184.9Q335.6 184.7 336.2 184.7L336.2 184.7Q336.6 184.7 337.2 184.8Q337.7 184.9 338.2 185.2Q338.7 185.5 339.0 186.1Q339.3 186.6 339.3 187.6L339.3 187.6L339.3 193L338.0 193L338.0 191.9L337.9 191.9Q337.8 192.2 337.5 192.5Q337.2 192.8 336.7 193.0Q336.2 193.2 335.5 193.2ZM335.7 192.0L335.7 192.0Q336.4 192.0 337.0 191.7Q337.5 191.5 337.7 191.0Q338.0 190.5 338.0 190.0L338.0 190.0L338.0 188.9Q337.9 189.0 337.6 189.1Q337.4 189.2 337.0 189.2Q336.7 189.3 336.3 189.3Q336.0 189.4 335.8 189.4L335.8 189.4Q335.3 189.4 334.9 189.6Q334.5 189.7 334.3 190.0Q334.0 190.3 334.0 190.7L334.0 190.7Q334.0 191.2 334.2 191.4Q334.5 191.7 334.8 191.9Q335.2 192.0 335.7 192.0ZM342.9 188.1L342.9 188.1L342.9 193L341.6 193L341.6 184.8L342.9 184.8L342.9 186.3Q343.2 185.6 343.8 185.2L343.8 185.2Q344.5 184.7 345.4 184.7L345.4 184.7Q346.2 184.7 346.8 185.0Q347.5 185.4 347.8 186.1Q348.2 186.8 348.2 187.8L348.2 187.8L348.2 193L346.8 193L346.8 187.9Q346.8 187.0 346.4 186.4Q345.9 185.9 345.0 185.9L345.0 185.9Q344.4 185.9 343.9 186.2Q343.5 186.4 343.2 186.9Q342.9 187.4 342.9 188.1ZM353.8 193.2L353.8 193.2Q352.7 193.2 351.9 192.6Q351.0 192.1 350.6 191.2Q350.1 190.2 350.1 189.0L350.1 189.0Q350.1 187.7 350.6 186.7Q351.0 185.8 351.9 185.2Q352.7 184.7 353.8 184.7L353.8 184.7Q354.4 184.7 354.9 184.9Q355.5 185.0 355.9 185.3Q356.3 185.6 356.6 186.0Q357.0 186.4 357.1 187.0L357.1 187.0L355.9 187.3Q355.8 187.0 355.6 186.8Q355.4 186.5 355.1 186.3Q354.9 186.1 354.6 186.0Q354.2 185.9 353.8 185.9L353.8 185.9Q353.0 185.9 352.5 186.3Q351.9 186.7 351.7 187.4Q351.4 188.1 351.4 189.0L351.4 189.0Q351.4 189.8 351.7 190.5Q351.9 191.1 352.5 191.6Q353.0 192.0 353.8 192.0L353.8 192.0Q354.2 192.0 354.6 191.9Q354.9 191.8 355.2 191.6Q355.4 191.4 355.6 191.1Q355.8 190.8 355.9 190.5L355.9 190.5L357.2 190.8Q357.0 191.4 356.7 191.8Q356.4 192.3 355.9 192.6Q355.5 192.9 354.9 193.0Q354.4 193.2 353.8 193.2ZM362.5 193.2L362.5 193.2Q361.3 193.2 360.4 192.6Q359.6 192.1 359.1 191.2Q358.7 190.2 358.7 189.0Q358.7 187.7 359.1 186.8Q359.6 185.8 360.4 185.3Q361.2 184.7 362.3 184.7L362.3 184.7Q363.0 184.7 363.6 184.9Q364.3 185.1 364.8 185.6Q365.3 186.1 365.6 186.9Q365.9 187.7 365.9 188.8L365.9 188.8L365.9 189.4L360.0 189.4Q360.0 190.1 360.3 190.7L360.3 190.7Q360.6 191.4 361.2 191.7Q361.8 192.0 362.5 192.0L362.5 192.0Q363.0 192.0 363.4 191.9Q363.8 191.7 364.1 191.4Q364.3 191.2 364.5 190.7L364.5 190.7L365.8 191.1Q365.6 191.7 365.1 192.2Q364.7 192.6 364.0 192.9Q363.3 193.2 362.5 193.2ZM360.0 188.2L360.0 188.2L364.6 188.2Q364.5 187.7 364.3 187.2L364.3 187.2Q364.1 186.6 363.6 186.2Q363.1 185.9 362.3 185.9Q361.6 185.9 361.1 186.2Q360.5 186.6 360.3 187.2L360.3 187.2Q360.0 187.7 360.0 188.2ZM370.9 193.2L370.9 193.2Q369.8 193.2 369.1 192.7Q368.3 192.1 367.8 191.2Q367.4 190.2 367.4 188.9L367.4 188.9Q367.4 187.6 367.8 186.7Q368.3 185.7 369.1 185.2Q369.9 184.7 370.9 184.7L370.9 184.7Q371.7 184.7 372.1 185.0Q372.6 185.2 372.9 185.6Q373.1 185.9 373.2 186.1L373.2 186.1L373.3 186.1L373.3 182.1L374.7 182.1L374.7 193L373.4 193L373.4 191.7L373.2 191.7Q373.1 192.0 372.9 192.3Q372.6 192.6 372.1 192.9Q371.6 193.2 370.9 193.2ZM371.1 192.0L371.1 192.0Q371.8 192.0 372.3 191.6Q372.8 191.2 373.1 190.5Q373.4 189.8 373.4 188.9L373.4 188.9Q373.4 188.0 373.1 187.3Q372.8 186.6 372.3 186.3Q371.8 185.9 371.1 185.9L371.1 185.9Q370.3 185.9 369.8 186.3Q369.3 186.7 369.0 187.4Q368.7 188.1 368.7 188.9L368.7 188.9Q368.7 189.8 369.0 190.5Q369.3 191.2 369.8 191.6Q370.3 192.0 371.1 192.0Z M384.7 193L384.7 193L381.3 193L381.3 182.1L384.9 182.1Q386.5 182.1 387.6 182.7Q388.7 183.4 389.3 184.6Q389.9 185.8 389.9 187.5L389.9 187.5Q389.9 189.2 389.3 190.5Q388.7 191.7 387.6 192.3Q386.4 193 384.7 193ZM382.7 183.3L382.7 191.8L384.6 191.8Q386.0 191.8 386.8 191.3Q387.7 190.8 388.2 189.8Q388.6 188.8 388.6 187.5L388.6 187.5Q388.6 186.2 388.2 185.3Q387.7 184.3 386.9 183.8Q386.0 183.3 384.8 183.3L384.8 183.3L382.7 183.3ZM395.6 193.2L395.6 193.2Q394.5 193.2 393.6 192.8Q392.7 192.4 392.2 191.7Q391.7 191.1 391.7 190.1L391.7 190.1L393.1 190.1Q393.2 190.8 393.5 191.2Q393.9 191.6 394.4 191.8Q395 191.9 395.6 191.9L395.6 191.9Q396.4 191.9 397.0 191.7Q397.6 191.5 397.9 191.0Q398.2 190.6 398.2 190.0L398.2 190.0Q398.2 189.5 397.9 189.1Q397.7 188.8 397.2 188.6Q396.7 188.4 396.1 188.2L396.1 188.2L394.8 187.9Q393.4 187.5 392.7 186.8Q392.0 186.1 392.0 185.0L392.0 185.0Q392.0 184.1 392.5 183.4Q393.0 182.7 393.8 182.3Q394.7 181.9 395.7 181.9L395.7 181.9Q396.8 181.9 397.6 182.3Q398.5 182.7 398.9 183.4Q399.4 184.0 399.5 184.8L399.5 184.8L398.1 184.8Q398.0 184.0 397.3 183.6Q396.7 183.2 395.7 183.2L395.7 183.2Q395.0 183.2 394.5 183.4Q393.9 183.6 393.6 184.0Q393.3 184.4 393.3 184.9L393.3 184.9Q393.3 185.5 393.7 185.9Q394.0 186.2 394.5 186.4Q395.0 186.6 395.4 186.7L395.4 186.7L396.5 187.0Q396.9 187.1 397.5 187.3Q398.0 187.5 398.5 187.9Q399.0 188.2 399.3 188.7Q399.6 189.3 399.6 190.0L399.6 190.0Q399.6 190.9 399.1 191.6Q398.7 192.4 397.8 192.8Q396.9 193.2 395.6 193.2ZM402.3 193L400.8 193L404.8 182.1L406.4 182.1L410.4 193L409.0 193L407.9 190.0L403.4 190.0L402.3 193ZM403.8 188.7L407.4 188.7L406.6 186.5Q406.4 185.9 406.1 185.0L406.1 185.0Q405.9 184.3 405.6 183.2L405.6 183.2Q405.3 184.3 405.0 185.1L405.0 185.1Q404.7 186.0 404.6 186.5L404.6 186.5L403.8 188.7ZM413.0 193.1L413.0 193.1Q412.5 193.1 412.3 192.8Q412.0 192.5 412.0 192.1L412.0 192.1Q412.0 191.7 412.3 191.4Q412.5 191.1 413.0 191.1L413.0 191.1Q413.4 191.1 413.7 191.4Q413.9 191.7 413.9 192.1L413.9 192.1Q413.9 192.5 413.7 192.8Q413.4 193.1 413.0 193.1Z "/></g><mask id="satori_om-id-1"><rect x="628" y="0" width="272" height="260" fill="#fff"/></mask><defs><clipPath id="satori_bc-id-1-0"><path x="628" y="0" width="272" height="121" d="M652,0 h224 a24,24 0 0 1 24,24 v73 a24,24 0 0 1 -24,24 h-224 a24,24 0 0 1 -24,-24 v-73 a24,24 0 0 1 24,-24"/></clipPath></defs><mask id="satori_om-id-1-0"><rect x="629" y="1" width="270" height="119" fill="#fff"/><path width="272" height="121" fill="none" stroke="#000" stroke-width="2" d="M635.029,7.029 A24,24 0 0 1 652,0 h224 a24,24 0 0 1 24,24 v73 a24,24 0 0 1 -24,24 h-224 a24,24 0 0 1 -24,-24 v-73 A24,24 0 0 1 635.029,7.029"/></mask><path x="628" y="0" width="272" height="121" fill="#070B14" d="M652,0 h224 a24,24 0 0 1 24,24 v73 a24,24 0 0 1 -24,24 h-224 a24,24 0 0 1 -24,-24 v-73 a24,24 0 0 1 24,-24"/><path width="272" height="121" clip-path="url(#satori_bc-id-1-0)" fill="none" stroke="#1E293B" stroke-width="2" d="M635.029,7.029 A24,24 0 0 1 652,0 h224 a24,24 0 0 1 24,24 v73 a24,24 0 0 1 -24,24 h-224 a24,24 0 0 1 -24,-24 v-73 A24,24 0 0 1 635.029,7.029"/><g  ><path fill="#C084FC" d="M684.6 66L682.3 66L685.8 55.8L688.5 55.8L692.1 66L689.8 66L689.0 63.6L685.4 63.6L684.6 66ZM685.9 62.0L688.5 62.0L688.2 61.1Q687.9 60.1 687.6 59L687.6 59Q687.4 58.3 687.2 57.5L687.2 57.5Q687.0 58.3 686.8 59.0L686.8 59.0Q686.5 60.2 686.2 61.1L686.2 61.1L685.9 62.0ZM701.9 66L695.4 66L695.4 55.8L697.5 55.8L697.5 64.3L701.9 64.3L701.9 66ZM709.8 66L707.4 66L704.7 55.8L707.0 55.8L708.2 60.8Q708.3 61.5 708.4 62.2Q708.5 62.9 708.7 63.6L708.7 63.6Q708.7 63.8 708.7 63.9L708.7 63.9Q708.7 63.8 708.8 63.6L708.8 63.6Q708.9 62.9 709.0 62.2Q709.1 61.5 709.3 60.8L709.3 60.8L710.5 55.8L712.7 55.8L714.0 60.8Q714.1 61.5 714.2 62.2Q714.4 62.9 714.5 63.6L714.5 63.6Q714.5 63.8 714.5 63.9L714.5 63.9Q714.6 63.8 714.6 63.6L714.6 63.6Q714.7 62.9 714.8 62.2Q715.0 61.5 715.1 60.8L715.1 60.8L716.3 55.8L718.6 55.8L715.8 66L713.4 66L712.1 60.8Q711.9 59.9 711.7 58.9L711.7 58.9Q711.7 58.6 711.6 58.3L711.6 58.3Q711.6 58.6 711.5 58.9L711.5 58.9Q711.4 59.9 711.2 60.8L711.2 60.8L709.8 66ZM723.5 66L721.2 66L724.7 55.8L727.4 55.8L731.0 66L728.7 66L727.9 63.6L724.3 63.6L723.5 66ZM724.8 62.0L727.4 62.0L727.1 61.1Q726.8 60.1 726.5 59L726.5 59Q726.3 58.3 726.1 57.5L726.1 57.5Q725.9 58.3 725.7 59.0L725.7 59.0Q725.4 60.2 725.1 61.1L725.1 61.1L724.8 62.0ZM739.5 66L737.5 66L737.5 62.2L733.7 55.8L736.1 55.8L737.8 59.0Q738.1 59.5 738.3 59.9L738.3 59.9Q738.4 60.2 738.5 60.4L738.5 60.4Q738.6 60.1 738.7 59.9L738.7 59.9Q738.9 59.5 739.1 59.0L739.1 59.0L740.8 55.8L743.2 55.8L739.5 62.2L739.5 66ZM750.2 66.2L750.2 66.2Q749.0 66.2 748.1 65.8Q747.2 65.4 746.7 64.7Q746.2 63.9 746.2 62.8L746.2 62.8L748.2 62.8Q748.2 63.4 748.5 63.7Q748.8 64.0 749.2 64.2Q749.7 64.4 750.2 64.4L750.2 64.4Q750.8 64.4 751.2 64.2Q751.6 64.1 751.8 63.8Q752.1 63.5 752.1 63.1L752.1 63.1Q752.1 62.7 751.9 62.5Q751.7 62.3 751.3 62.1Q750.9 61.9 750.3 61.8L750.3 61.8L749.2 61.5Q747.9 61.2 747.2 60.5Q746.4 59.9 746.4 58.7L746.4 58.7Q746.4 57.8 746.9 57.1Q747.4 56.4 748.3 56.1Q749.2 55.7 750.3 55.7L750.3 55.7Q751.4 55.7 752.2 56.1Q753.1 56.5 753.5 57.1Q754.0 57.8 754.0 58.7L754.0 58.7L752.0 58.7Q752.0 58.1 751.5 57.8Q751.0 57.4 750.2 57.4L750.2 57.4Q749.7 57.4 749.3 57.6Q749.0 57.7 748.8 58.0Q748.6 58.3 748.6 58.6L748.6 58.6Q748.6 59.0 748.8 59.2Q749.0 59.5 749.4 59.6Q749.8 59.8 750.2 59.9L750.2 59.9L751.1 60.1Q751.8 60.3 752.3 60.5Q752.9 60.8 753.3 61.1Q753.7 61.5 753.9 62.0Q754.2 62.5 754.2 63.1L754.2 63.1Q754.2 64.0 753.7 64.7Q753.2 65.4 752.4 65.8Q751.5 66.2 750.2 66.2Z M767.3 66L763.0 66L763.0 55.8L767.0 55.8Q768.1 55.8 768.9 56.2Q769.6 56.5 770.0 57.1Q770.4 57.7 770.4 58.4L770.4 58.4Q770.4 59.0 770.1 59.5Q769.9 59.9 769.5 60.2Q769.1 60.5 768.6 60.6L768.6 60.6L768.6 60.7Q769.1 60.7 769.6 61.0Q770.1 61.4 770.5 61.9Q770.8 62.4 770.8 63.2L770.8 63.2Q770.8 64.0 770.4 64.6Q770.0 65.3 769.2 65.6Q768.4 66 767.3 66L767.3 66ZM765.1 61.5L765.1 64.3L766.9 64.3Q767.8 64.3 768.2 63.9Q768.6 63.6 768.6 63.0L768.6 63.0Q768.6 62.6 768.4 62.2Q768.2 61.9 767.8 61.7Q767.5 61.5 766.9 61.5L766.9 61.5L765.1 61.5ZM765.1 57.5L765.1 60.1L766.7 60.1Q767.2 60.1 767.5 59.9Q767.9 59.8 768.1 59.5Q768.3 59.2 768.3 58.8L768.3 58.8Q768.3 58.2 767.9 57.9Q767.5 57.5 766.8 57.5L766.8 57.5L765.1 57.5ZM778.4 66.1L778.4 66.1Q777.2 66.1 776.2 65.7Q775.3 65.2 774.8 64.4Q774.2 63.5 774.2 62.4L774.2 62.4L774.2 55.8L776.3 55.8L776.3 62.3Q776.3 62.8 776.6 63.3Q776.9 63.8 777.3 64.0Q777.8 64.3 778.4 64.3L778.4 64.3Q779.1 64.3 779.6 64.0Q780.0 63.8 780.3 63.3Q780.6 62.8 780.6 62.3L780.6 62.3L780.6 55.8L782.7 55.8L782.7 62.4Q782.7 63.5 782.1 64.4Q781.6 65.2 780.7 65.7Q779.7 66.1 778.4 66.1ZM786.5 55.8L788.6 55.8L788.6 66L786.5 66L786.5 55.8ZM798.9 66L792.4 66L792.4 55.8L794.5 55.8L794.5 64.3L798.9 64.3L798.9 66ZM805.9 66L805.9 66L802.3 66L802.3 55.8L806.0 55.8Q807.5 55.8 808.6 56.4Q809.7 57.0 810.3 58.2Q810.9 59.3 810.9 60.9L810.9 60.9Q810.9 62.5 810.3 63.6Q809.7 64.8 808.6 65.4Q807.5 66 805.9 66ZM804.4 57.6L804.4 64.2L805.8 64.2Q806.8 64.2 807.5 63.9Q808.1 63.5 808.5 62.8Q808.8 62.0 808.8 60.9L808.8 60.9Q808.8 59.8 808.5 59.0Q808.1 58.3 807.5 58.0Q806.8 57.6 805.8 57.6L805.8 57.6L804.4 57.6ZM814.5 55.8L816.5 55.8L816.5 66L814.5 66L814.5 55.8ZM822.5 66L820.4 66L820.4 55.8L822.7 55.8L825.9 61.0Q826.2 61.4 826.4 61.8Q826.7 62.3 826.9 62.9L826.9 62.9Q827.1 63.1 827.2 63.5L827.2 63.5Q827.2 63.2 827.2 62.9L827.2 62.9Q827.1 62.3 827.1 61.7Q827.1 61.1 827.1 60.7L827.1 60.7L827.1 55.8L829.2 55.8L829.2 66L826.9 66L824.0 61.3Q823.6 60.8 823.4 60.3Q823.1 59.8 822.8 59.2L822.8 59.2Q822.6 58.8 822.4 58.4L822.4 58.4Q822.4 58.8 822.4 59.2L822.4 59.2Q822.5 59.9 822.5 60.4Q822.5 61.0 822.5 61.3L822.5 61.3L822.5 66ZM837.6 66.1L837.6 66.1Q836.1 66.1 835.1 65.5Q834.0 64.9 833.4 63.7Q832.8 62.5 832.8 60.9L832.8 60.9Q832.8 59.3 833.4 58.1Q834.0 56.9 835.1 56.3Q836.2 55.7 837.5 55.7L837.5 55.7Q838.4 55.7 839.1 55.9Q839.9 56.2 840.4 56.6Q841.0 57.1 841.4 57.7Q841.7 58.3 841.9 59.1L841.9 59.1L839.7 59.1Q839.6 58.7 839.4 58.4Q839.2 58.2 839.0 57.9Q838.7 57.7 838.3 57.6Q838.0 57.5 837.6 57.5L837.6 57.5Q836.8 57.5 836.2 57.9Q835.6 58.3 835.2 59.1Q834.9 59.8 834.9 60.9Q834.9 62.0 835.2 62.7Q835.6 63.5 836.2 63.9Q836.8 64.3 837.6 64.3L837.6 64.3Q838.3 64.3 838.8 64.0Q839.4 63.8 839.7 63.3L839.7 63.3Q839.9 62.8 839.9 62.2L839.9 62.2L837.7 62.2L837.7 60.6L842.0 60.6L842.0 61.8Q842.0 63.2 841.4 64.1Q840.8 65.1 839.8 65.6Q838.8 66.1 837.6 66.1Z "/></g><defs><clipPath id="satori_bc-id-1-1"><path x="628" y="139" width="272" height="121" d="M652,139 h224 a24,24 0 0 1 24,24 v73 a24,24 0 0 1 -24,24 h-224 a24,24 0 0 1 -24,-24 v-73 a24,24 0 0 1 24,-24"/></clipPath></defs><mask id="satori_om-id-1-1"><rect x="629" y="140" width="270" height="119" fill="#fff"/><path width="272" height="121" fill="none" stroke="#000" stroke-width="2" d="M635.029,146.029 A24,24 0 0 1 652,139 h224 a24,24 0 0 1 24,24 v73 a24,24 0 0 1 -24,24 h-224 a24,24 0 0 1 -24,-24 v-73 A24,24 0 0 1 635.029,146.029"/></mask><path x="628" y="139" width="272" height="121" fill="#070B14" d="M652,139 h224 a24,24 0 0 1 24,24 v73 a24,24 0 0 1 -24,24 h-224 a24,24 0 0 1 -24,-24 v-73 a24,24 0 0 1 24,-24"/><path width="272" height="121" clip-path="url(#satori_bc-id-1-1)" fill="none" stroke="#1E293B" stroke-width="2" d="M635.029,146.029 A24,24 0 0 1 652,139 h224 a24,24 0 0 1 24,24 v73 a24,24 0 0 1 -24,24 h-224 a24,24 0 0 1 -24,-24 v-73 A24,24 0 0 1 635.029,146.029"/><g  ><path fill="#34D399" d="M693.4 205.1L693.4 205.1Q692.0 205.1 691.0 204.5Q689.9 203.9 689.3 202.7Q688.6 201.6 688.6 199.9L688.6 199.9Q688.6 198.3 689.3 197.1Q689.9 195.9 691.0 195.3Q692.0 194.7 693.4 194.7L693.4 194.7Q694.7 194.7 695.8 195.3Q696.9 195.9 697.5 197.1Q698.1 198.3 698.1 199.9L698.1 199.9Q698.1 201.6 697.5 202.7Q696.9 203.9 695.8 204.5Q694.7 205.1 693.4 205.1ZM693.4 203.3L693.4 203.3Q694.2 203.3 694.8 202.9Q695.4 202.5 695.7 201.8Q696.0 201.0 696.0 199.9L696.0 199.9Q696.0 198.8 695.7 198.1Q695.4 197.3 694.8 196.9Q694.2 196.5 693.4 196.5L693.4 196.5Q692.6 196.5 692.0 196.9Q691.4 197.3 691.1 198.1Q690.8 198.8 690.8 199.9L690.8 199.9Q690.8 201.0 691.1 201.8Q691.4 202.5 692.0 202.9Q692.6 203.3 693.4 203.3ZM703.8 205L701.7 205L701.7 194.8L705.7 194.8Q706.8 194.8 707.7 195.3Q708.5 195.7 708.9 196.5Q709.3 197.2 709.3 198.3L709.3 198.3Q709.3 199.3 708.9 200.0Q708.5 200.8 707.6 201.2Q706.8 201.7 705.6 201.7L705.6 201.7L703.8 201.7L703.8 205ZM703.8 196.5L703.8 200.0L705.3 200.0Q705.9 200.0 706.4 199.8Q706.8 199.5 707.0 199.2Q707.2 198.8 707.2 198.3Q707.2 197.7 707.0 197.4Q706.8 197.0 706.4 196.8Q705.9 196.5 705.3 196.5L705.3 196.5L703.8 196.5ZM719.6 205L712.8 205L712.8 194.8L719.6 194.8L719.6 196.5L714.9 196.5L714.9 199.0L719.2 199.0L719.2 200.7L714.9 200.7L714.9 203.3L719.6 203.3L719.6 205ZM725.4 205L723.3 205L723.3 194.8L725.6 194.8L728.8 200.0Q729.1 200.4 729.3 200.8Q729.6 201.3 729.8 201.9L729.8 201.9Q730.0 202.1 730.1 202.5L730.1 202.5Q730.1 202.2 730.1 201.9L730.1 201.9Q730.0 201.3 730.0 200.7Q730.0 200.1 730.0 199.7L730.0 199.7L730.0 194.8L732.1 194.8L732.1 205L729.8 205L726.9 200.3Q726.5 199.8 726.3 199.3Q726.0 198.8 725.7 198.2L725.7 198.2Q725.5 197.8 725.3 197.4L725.3 197.4Q725.3 197.8 725.3 198.2L725.3 198.2Q725.4 198.9 725.4 199.4Q725.4 200.0 725.4 200.3L725.4 200.3L725.4 205Z M744.0 196.5L740.9 196.5L740.9 194.8L749.2 194.8L749.2 196.5L746.1 196.5L746.1 205L744.0 205L744.0 196.5ZM757.1 205.1L757.1 205.1Q755.7 205.1 754.7 204.5Q753.6 203.9 753.0 202.7Q752.3 201.6 752.3 199.9L752.3 199.9Q752.3 198.3 753.0 197.1Q753.6 195.9 754.7 195.3Q755.7 194.7 757.1 194.7L757.1 194.7Q758.4 194.7 759.5 195.3Q760.6 195.9 761.2 197.1Q761.8 198.3 761.8 199.9L761.8 199.9Q761.8 201.6 761.2 202.7Q760.6 203.9 759.5 204.5Q758.4 205.1 757.1 205.1ZM757.1 203.3L757.1 203.3Q757.9 203.3 758.5 202.9Q759.1 202.5 759.4 201.8Q759.7 201.0 759.7 199.9L759.7 199.9Q759.7 198.8 759.4 198.1Q759.1 197.3 758.5 196.9Q757.9 196.5 757.1 196.5L757.1 196.5Q756.3 196.5 755.7 196.9Q755.1 197.3 754.8 198.1Q754.5 198.8 754.5 199.9L754.5 199.9Q754.5 201.0 754.8 201.8Q755.1 202.5 755.7 202.9Q756.3 203.3 757.1 203.3Z M775.2 205.1L775.2 205.1Q773.8 205.1 772.7 204.5Q771.7 203.9 771.1 202.7Q770.4 201.6 770.4 199.9L770.4 199.9Q770.4 198.3 771.1 197.1Q771.7 195.9 772.8 195.3Q773.8 194.7 775.2 194.7L775.2 194.7Q776.0 194.7 776.8 194.9Q777.5 195.2 778.1 195.6Q778.7 196.1 779.1 196.8Q779.4 197.4 779.6 198.3L779.6 198.3L777.4 198.3Q777.4 197.9 777.2 197.6Q777.0 197.2 776.7 197.0Q776.4 196.8 776.0 196.6Q775.6 196.5 775.2 196.5L775.2 196.5Q774.4 196.5 773.8 196.9Q773.2 197.3 772.9 198.1Q772.6 198.8 772.6 199.9L772.6 199.9Q772.6 201.0 772.9 201.8Q773.2 202.5 773.8 202.9Q774.4 203.3 775.2 203.3L775.2 203.3Q775.6 203.3 776.0 203.2Q776.4 203.0 776.7 202.8Q777.0 202.6 777.2 202.3Q777.4 201.9 777.4 201.5L777.4 201.5L779.6 201.5Q779.5 202.2 779.1 202.9Q778.8 203.5 778.2 204.0Q777.7 204.5 776.9 204.8Q776.1 205.1 775.2 205.1ZM787.5 205.1L787.5 205.1Q786.2 205.1 785.1 204.5Q784.0 203.9 783.4 202.7Q782.8 201.6 782.8 199.9L782.8 199.9Q782.8 198.3 783.4 197.1Q784.0 195.9 785.1 195.3Q786.2 194.7 787.5 194.7L787.5 194.7Q788.9 194.7 790.0 195.3Q791.0 195.9 791.7 197.1Q792.3 198.3 792.3 199.9L792.3 199.9Q792.3 201.6 791.7 202.7Q791.0 203.9 790.0 204.5Q788.9 205.1 787.5 205.1ZM787.5 203.3L787.5 203.3Q788.3 203.3 788.9 202.9Q789.5 202.5 789.8 201.8Q790.2 201.0 790.2 199.9L790.2 199.9Q790.2 198.8 789.8 198.1Q789.5 197.3 788.9 196.9Q788.3 196.5 787.5 196.5L787.5 196.5Q786.8 196.5 786.2 196.9Q785.6 197.3 785.2 198.1Q784.9 198.8 784.9 199.9L784.9 199.9Q784.9 201.0 785.2 201.8Q785.6 202.5 786.2 202.9Q786.8 203.3 787.5 203.3ZM802.3 205L795.9 205L795.9 194.8L797.9 194.8L797.9 203.3L802.3 203.3L802.3 205ZM812.3 205L805.8 205L805.8 194.8L807.9 194.8L807.9 203.3L812.3 203.3L812.3 205ZM817.4 205L815.1 205L818.6 194.8L821.3 194.8L824.9 205L822.6 205L821.8 202.6L818.2 202.6L817.4 205ZM818.7 201.0L821.2 201.0L820.9 200.1Q820.6 199.1 820.3 198L820.3 198Q820.1 197.3 819.9 196.5L819.9 196.5Q819.7 197.3 819.5 198.0L819.5 198.0Q819.3 199.2 819.0 200.1L819.0 200.1L818.7 201.0ZM832.4 205L828.1 205L828.1 194.8L832.2 194.8Q833.3 194.8 834.1 195.2Q834.8 195.5 835.2 196.1Q835.5 196.7 835.5 197.4L835.5 197.4Q835.5 198.0 835.3 198.5Q835.1 198.9 834.7 199.2Q834.2 199.5 833.7 199.6L833.7 199.6L833.7 199.7Q834.3 199.7 834.8 200.0Q835.3 200.4 835.6 200.9Q835.9 201.4 835.9 202.2L835.9 202.2Q835.9 203.0 835.5 203.6Q835.2 204.3 834.4 204.6Q833.6 205 832.4 205L832.4 205ZM830.2 200.5L830.2 203.3L832.0 203.3Q833.0 203.3 833.4 202.9Q833.8 202.6 833.8 202.0L833.8 202.0Q833.8 201.6 833.6 201.2Q833.4 200.9 833 200.7Q832.6 200.5 832.1 200.5L832.1 200.5L830.2 200.5ZM830.2 196.5L830.2 199.1L831.9 199.1Q832.3 199.1 832.7 198.9Q833.0 198.8 833.2 198.5Q833.4 198.2 833.4 197.8L833.4 197.8Q833.4 197.2 833.0 196.9Q832.7 196.5 831.9 196.5L831.9 196.5L830.2 196.5Z "/></g></svg>